<svg width="71" height="71" viewBox="0 0 71 71" fill="none" xmlns="http://www.w3.org/2000/svg">
<path d="M11.1753 8.73987C11.1753 8.10746 11.6881 7.59471 12.3205 7.59471H24.6568C25.2892 7.59471 25.8019 8.10746 25.8019 8.73987C25.8019 9.37229 25.2892 9.88503 24.6568 9.88503H12.3205C11.6881 9.88503 11.1753 9.37229 11.1753 8.73987ZM6.79596 17.19H24.6568C25.2892 17.19 25.8019 16.6773 25.8019 16.0449C25.8019 15.4124 25.2892 14.8997 24.6568 14.8997H6.79596C6.16354 14.8997 5.6508 15.4124 5.6508 16.0449C5.6508 16.6773 6.1634 17.19 6.79596 17.19ZM71 7.51498V44.5704C71 45.2028 70.4873 45.7156 69.8548 45.7156H46.597C44.6116 47.5711 42.1628 48.9362 39.4448 49.6158L39.5168 54.3985C39.7839 54.5181 40.032 54.683 40.2486 54.8933C40.7325 55.3628 41.0045 55.9912 41.0145 56.6627L41.1884 68.2319C41.2092 69.6212 40.096 70.7684 38.7069 70.7891L34.4024 70.854C34.3896 70.8541 34.3766 70.8543 34.3639 70.8543C32.9921 70.8543 31.8658 69.7489 31.8449 68.3724L31.6709 56.803C31.6607 56.1317 31.9136 55.4954 32.3833 55.0115C32.674 54.7119 33.0257 54.4941 33.4107 54.3688L33.3444 49.9574C29.9123 49.5009 26.8155 47.9702 24.403 45.7154H1.14516C0.512746 45.7154 0 45.2027 0 44.5703V7.51498C0 7.21122 0.120671 6.91992 0.335389 6.70521L6.70506 0.335389C6.91978 0.120671 7.21108 0 7.51483 0H30.3076C30.94 0 31.4527 0.512746 31.4527 1.14516V18.0781C32.7472 17.7454 34.1033 17.5683 35.5 17.5683C36.8967 17.5683 38.2528 17.7454 39.5471 18.0781V1.1453C39.5471 0.512889 40.0599 0.000143067 40.6923 0.000143067H63.485C63.7888 0.000143067 64.0801 0.120814 64.2948 0.335532L70.6645 6.70535C70.8793 6.92007 71 7.21137 71 7.51498ZM64.6303 6.36982H67.0903L64.6303 3.90987V6.36982ZM3.90972 6.36982H6.36967V3.90987L3.90972 6.36982ZM2.29032 43.4254H22.3709C21.4139 42.1189 20.6467 40.6654 20.1108 39.1051H6.79596C6.16354 39.1051 5.6508 38.5924 5.6508 37.9599C5.6508 37.3275 6.16354 36.8148 6.79596 36.8148H19.5085C19.3289 35.8483 19.234 34.8524 19.234 33.8346C19.234 33.1457 19.2774 32.4668 19.361 31.8001H6.79596C6.16354 31.8001 5.6508 31.2874 5.6508 30.655C5.6508 30.0226 6.16354 29.5098 6.79596 29.5098H19.8187C20.3209 27.6914 21.1311 25.9999 22.1901 24.4951H6.79596C6.16354 24.4951 5.6508 23.9824 5.6508 23.35C5.6508 22.7176 6.16354 22.2048 6.79596 22.2048H24.1401C25.5812 20.7968 27.2813 19.653 29.1624 18.8542V2.29047H8.66V7.51512C8.66 8.14754 8.14725 8.66028 7.51483 8.66028H2.29032V43.4254ZM35.5 47.8103C43.2062 47.8103 49.4757 41.5409 49.4757 33.8346C49.4757 30.1555 48.046 26.8046 45.7138 24.3063C45.5731 24.2136 45.4547 24.0902 45.3667 23.9462C42.837 21.4218 39.3477 19.8588 35.5 19.8588C27.7938 19.8588 21.5242 26.1283 21.5242 33.8346C21.5243 41.5407 27.7938 47.8103 35.5 47.8103ZM38.8986 68.2662L38.7246 56.6971C38.7235 56.6205 38.6856 56.5678 38.6538 56.537C38.6226 56.5068 38.5699 56.4711 38.4952 56.4711H38.4916L34.1871 56.5359C34.1105 56.537 34.0578 56.5751 34.0269 56.6068C33.9963 56.6384 33.9598 56.6922 33.961 56.7687L34.1351 68.3381C34.137 68.4625 34.2442 68.5617 34.3679 68.5641L38.6725 68.4993C38.7969 68.4974 38.9003 68.3907 38.8986 68.2662ZM37.1603 50.0165C36.659 50.0676 36.1507 50.0947 35.6371 50.0988L35.6991 54.2224L37.2233 54.1995L37.1603 50.0165ZM68.7097 43.4254V8.66014H63.4852C62.8528 8.66014 62.34 8.14739 62.34 7.51498V2.29047H41.8376V18.8541C43.7187 19.653 45.4188 20.7968 46.86 22.2048H64.2042C64.8366 22.2048 65.3493 22.7176 65.3493 23.35C65.3493 23.9824 64.8366 24.4951 64.2042 24.4951H48.8101C49.8691 25.9999 50.6794 27.6914 51.1814 29.5098H64.2042C64.8366 29.5098 65.3493 30.0226 65.3493 30.655C65.3493 31.2874 64.8366 31.8001 64.2042 31.8001H51.6392C51.7228 32.4668 51.7662 33.1457 51.7662 33.8346C51.7662 34.8524 51.6713 35.8483 51.4916 36.8148H64.2042C64.8366 36.8148 65.3493 37.3275 65.3493 37.9599C65.3493 38.5924 64.8366 39.1051 64.2042 39.1051H50.8892C50.3535 40.6655 49.5862 42.119 48.6293 43.4254H68.7097ZM46.3432 9.88503H58.6795C59.3119 9.88503 59.8247 9.37229 59.8247 8.73987C59.8247 8.10746 59.3119 7.59471 58.6795 7.59471H46.3432C45.7108 7.59471 45.1981 8.10746 45.1981 8.73987C45.1981 9.37229 45.7107 9.88503 46.3432 9.88503ZM64.2042 14.8997H46.3432C45.7108 14.8997 45.1981 15.4124 45.1981 16.0449C45.1981 16.6773 45.7108 17.19 46.3432 17.19H64.2042C64.8366 17.19 65.3493 16.6773 65.3493 16.0449C65.3493 15.4124 64.8366 14.8997 64.2042 14.8997ZM35.5 45.7157C28.9488 45.7157 23.619 40.3858 23.619 33.8346C23.619 27.2835 28.9488 21.9536 35.5 21.9536C42.0512 21.9536 47.381 27.2835 47.381 33.8346C47.381 40.3858 42.0512 45.7157 35.5 45.7157ZM45.0907 33.8346C45.0907 28.5463 40.7884 24.2439 35.5 24.2439C30.2116 24.2439 25.9093 28.5463 25.9093 33.8346C25.9093 39.123 30.2116 43.4254 35.5 43.4254C40.7884 43.4254 45.0907 39.1229 45.0907 33.8346Z" fill="#FEA96C"/>
</svg>
