<svg width="71" height="71" viewBox="0 0 71 71" fill="none" xmlns="http://www.w3.org/2000/svg">
<path d="M29.583 11.833H41.4163V14.1997H29.583V11.833Z" fill="#FEA96C"/>
<path d="M29.583 16.5674H41.4163V18.9341H29.583V16.5674Z" fill="#FEA96C"/>
<path d="M65.0837 61.5334V52.0667C65.0837 51.5413 64.737 51.0786 64.2317 50.9307L36.6837 42.8959V28.4H44.967C45.6214 28.4 46.1503 27.8699 46.1503 27.2167V8.28334C46.1503 7.96975 46.0261 7.668 45.8036 7.44672L38.7036 0.346717C38.4823 0.12425 38.1818 0 37.867 0H26.0337C25.3793 0 24.8503 0.530134 24.8503 1.18333V27.2167C24.8503 27.8699 25.3793 28.4 26.0337 28.4H34.317V42.8959L6.76899 50.9307C6.26371 51.0786 5.91699 51.5413 5.91699 52.0667V61.5334C5.91699 62.0588 6.26371 62.5214 6.76899 62.6694L35.169 70.9527C35.2779 70.9846 35.3879 71 35.5003 71C35.6128 71 35.7228 70.9846 35.8317 70.9527L64.2317 62.6694C64.737 62.5214 65.0837 62.0588 65.0837 61.5334ZM39.0503 4.0399L42.1104 7.1H39.0503V4.0399ZM27.217 2.36667H36.6837V8.28334C36.6837 8.93654 37.2126 9.46667 37.867 9.46667H43.7837V26.0333H27.217V2.36667ZM34.317 45.3607V51.5768L31.6036 48.8634L29.9304 50.5366L34.6637 55.27C34.8945 55.5007 35.1974 55.6167 35.5003 55.6167C35.8033 55.6167 36.1062 55.5007 36.337 55.27L41.0703 50.5366L39.3971 48.8634L36.6837 51.5768V45.3607L59.6747 52.0667L35.5003 59.117L11.326 52.0667L34.317 45.3607ZM8.28366 53.6441L34.317 61.2375V68.2393L8.28366 60.6459V53.6441ZM36.6837 68.2393V61.2375L62.717 53.6441V60.6459L36.6837 68.2393Z" fill="#FEA96C"/>
<path d="M29.583 7.09961H34.3163V9.46628H29.583V7.09961Z" fill="#FEA96C"/>
<path d="M1.18333 28.4H9.46667C9.46667 31.6625 12.1209 34.3167 15.3833 34.3167H18.9333C20.8906 34.3167 22.4833 35.9095 22.4833 37.8667V39.7435L19.77 37.0301L18.0967 38.7033L22.8301 43.4366C23.0608 43.6674 23.3637 43.7834 23.6667 43.7834C23.9696 43.7834 24.2725 43.6674 24.5033 43.4366L29.2366 38.7033L27.5634 37.0301L24.85 39.7435V37.8667C24.85 34.6042 22.1958 31.95 18.9333 31.95H15.3833C13.4261 31.95 11.8333 30.3573 11.8333 28.4H20.1167C20.7711 28.4 21.3 27.8699 21.3 27.2167V8.28334C21.3 7.96975 21.1758 7.668 20.9533 7.44672L13.8533 0.346717C13.632 0.12425 13.3314 0 13.0167 0H1.18333C0.52895 0 0 0.530134 0 1.18333V27.2167C0 27.8699 0.52895 28.4 1.18333 28.4ZM14.2 4.0399L17.2601 7.1H14.2V4.0399ZM2.36667 2.36667H11.8333V8.28334C11.8333 8.93654 12.3623 9.46667 13.0167 9.46667H18.9333V26.0333H2.36667V2.36667Z" fill="#FEA96C"/>
<path d="M4.73315 11.833H16.5665V14.1997H4.73315V11.833Z" fill="#FEA96C"/>
<path d="M4.7334 16.5674H16.5667V18.9341H4.7334V16.5674Z" fill="#FEA96C"/>
<path d="M4.73315 21.3H16.5665V23.6667H4.73315V21.3Z" fill="#FEA96C"/>
<path d="M4.7334 7.09961H9.46673V9.46628H4.7334V7.09961Z" fill="#FEA96C"/>
<path d="M71.0003 27.2167V8.28334C71.0003 7.96975 70.8761 7.668 70.6536 7.44672L63.5536 0.346717C63.3323 0.12425 63.0317 0 62.717 0H50.8836C50.2292 0 49.7003 0.530134 49.7003 1.18333V27.2167C49.7003 27.8699 50.2292 28.4 50.8836 28.4H59.167C59.167 30.3573 57.5742 31.95 55.617 31.95H52.067C48.8045 31.95 46.1503 34.6042 46.1503 37.8667V39.7435L43.4369 37.0301L41.7637 38.7033L46.497 43.4366C46.7278 43.6674 47.0307 43.7834 47.3336 43.7834C47.6366 43.7834 47.9395 43.6674 48.1702 43.4366L52.9036 38.7033L51.2303 37.0301L48.517 39.7435V37.8667C48.517 35.9095 50.1097 34.3167 52.067 34.3167H55.617C58.8794 34.3167 61.5336 31.6625 61.5336 28.4H69.817C70.4714 28.4 71.0003 27.8699 71.0003 27.2167ZM63.9003 4.0399L66.9604 7.1H63.9003V4.0399ZM52.067 26.0333V2.36667H61.5336V8.28334C61.5336 8.93654 62.0626 9.46667 62.717 9.46667H68.6336V26.0333H52.067Z" fill="#FEA96C"/>
<path d="M54.4336 11.833H66.2669V14.1997H54.4336V11.833Z" fill="#FEA96C"/>
<path d="M54.4336 16.5674H66.2669V18.9341H54.4336V16.5674Z" fill="#FEA96C"/>
<path d="M54.4336 21.2998H66.2669V23.6665H54.4336V21.2998Z" fill="#FEA96C"/>
<path d="M54.4336 7.09961H59.1669V9.46628H54.4336V7.09961Z" fill="#FEA96C"/>
<path d="M29.583 21.2998H31.9497V23.6665H29.583V21.2998Z" fill="#FEA96C"/>
<path d="M34.3164 21.2998H36.6831V23.6665H34.3164V21.2998Z" fill="#FEA96C"/>
<path d="M39.05 21.3H41.4167V23.6667H39.05V21.3Z" fill="#FEA96C"/>
</svg>
