<svg width="71" height="71" viewBox="0 0 71 71" fill="none" xmlns="http://www.w3.org/2000/svg">
<path d="M4.37246 45.9074V25.094C1.8728 24.5879 0.00156403 22.605 0.00156403 20.2421C0.00156403 17.4952 2.52474 15.2599 5.62778 15.2599C7.25296 15.2599 8.71828 15.8742 9.74636 16.8532L19.9347 11.6464L30.1198 6.4437C29.9584 5.98057 29.8707 5.48831 29.8707 4.97803C29.8707 2.23249 32.3938 0 35.4969 0C38.6015 0 41.1278 2.23249 41.1278 4.97803C41.1278 5.48831 41.04 5.97918 40.8786 6.4437L51.0638 11.6464L61.2505 16.8518C62.2786 15.8728 63.7455 15.2599 65.3722 15.2599C68.4753 15.2599 70.9984 17.4952 70.9984 20.2421C70.9984 22.605 69.1272 24.5879 66.6275 25.094V45.9074C69.1288 46.4135 71 48.3964 71 50.7592C71 53.5048 68.4768 55.7373 65.3738 55.7373C63.747 55.7373 62.2802 55.123 61.2521 54.1454L51.0653 59.3509L40.8802 64.5535C41.0416 65.0166 41.1293 65.5089 41.1293 66.0178C41.1293 68.7647 38.603 71 35.4984 71C32.3954 71 29.8722 68.7647 29.8722 66.0178C29.8722 65.5075 29.96 65.0167 30.1214 64.5521L19.9347 59.3509L9.74636 54.1454C8.71828 55.1244 7.25139 55.7387 5.62621 55.7387C2.52318 55.7387 0 53.5062 0 50.7606C0 48.3964 1.87122 46.4135 4.37246 45.9074ZM9.74636 47.3745L22.0927 41.0667V35.5367V35.5354V35.534V29.9333L9.74792 23.6283C8.99254 24.348 8.00051 24.8693 6.8831 25.0954V45.9088C8.00051 46.1334 8.99254 46.6548 9.74636 47.3745ZM35.4984 47.0708C41.7374 47.0708 46.3982 44.9451 46.3982 43.044V39.2488C45.8826 39.5802 45.2949 39.888 44.6336 40.1667C42.1731 41.2067 38.929 41.7794 35.4984 41.7794C32.0678 41.7794 28.8253 41.2067 26.3648 40.1667C25.7051 39.888 25.1174 39.5802 24.6033 39.2502V43.044C24.6033 44.9451 29.2626 47.0708 35.4984 47.0708ZM61.2505 47.3731C62.0059 46.6548 62.9995 46.1334 64.1185 45.9074V25.094C62.9995 24.868 62.0075 24.3466 61.2505 23.6283L48.9073 29.932V35.5326V35.534V35.5354V41.0653L61.2505 47.3731ZM35.4984 23.9306C29.2626 23.9306 24.6033 26.0563 24.6033 27.9574C24.6033 29.8571 29.2626 31.98 35.4984 31.98C41.7374 31.98 46.3982 29.8557 46.3982 27.9574C46.3967 26.0563 41.7358 23.9306 35.4984 23.9306ZM46.3967 31.6666C45.8811 31.998 45.2887 32.3059 44.6257 32.586C42.1606 33.6273 38.918 34.2014 35.4969 34.2014C32.0773 34.2014 28.8379 33.6273 26.3727 32.586C25.7098 32.3059 25.1189 31.998 24.6018 31.6666V35.5326C24.6018 37.4337 29.261 39.5594 35.4969 39.5594C41.7359 39.5594 46.3967 37.4337 46.3967 35.5326V31.6666ZM5.62621 17.4813C3.90858 17.4813 2.50907 18.7196 2.50907 20.2421C2.50907 21.7619 3.90701 22.9988 5.62621 22.9988C7.34542 22.9988 8.74335 21.7619 8.74335 20.2421C8.74335 18.7196 7.34542 17.4813 5.62621 17.4813ZM21.19 13.5696L11.0048 18.7751C11.1662 19.2396 11.254 19.7319 11.254 20.2421C11.254 20.751 11.1662 21.2419 11.0064 21.705L22.1444 27.393C22.4265 25.7984 23.9028 24.3702 26.3742 23.326C28.5354 22.4122 31.2921 21.859 34.2447 21.7369V9.83542C33.1273 9.6094 32.1337 9.08663 31.3799 8.36697L21.19 13.5696ZM35.4984 2.22139C33.7808 2.22139 32.3813 3.45827 32.3813 4.97803C32.3813 6.50056 33.7792 7.73882 35.4984 7.73882C37.2192 7.73882 38.6187 6.50056 38.6187 4.97803C38.6187 3.45827 37.2192 2.22139 35.4984 2.22139ZM49.81 13.571L39.6217 8.36697C38.8648 9.08663 37.8727 9.6094 36.7522 9.83542V21.7369C39.7048 21.859 42.4646 22.4136 44.6257 23.326C47.0972 24.3702 48.5735 25.7998 48.8556 27.393L59.9905 21.7064C59.8291 21.2433 59.7413 20.751 59.7413 20.2421C59.7413 19.7305 59.8291 19.2382 59.9921 18.7737L49.81 13.571ZM68.4894 20.2421C68.4894 18.7196 67.0914 17.4813 65.3722 17.4813C63.6514 17.4813 62.2519 18.7196 62.2519 20.2421C62.2519 21.7619 63.6514 22.9988 65.3722 22.9988C67.0914 22.9988 68.4894 21.7619 68.4894 20.2421ZM65.3738 53.5173C67.0914 53.5173 68.4909 52.2804 68.4909 50.7606C68.4909 49.2409 67.093 48.004 65.3738 48.004C63.653 48.004 62.2535 49.2409 62.2535 50.7606C62.2535 52.2804 63.653 53.5173 65.3738 53.5173ZM49.81 57.4276L59.9921 52.2249C59.8306 51.7618 59.7429 51.2695 59.7429 50.7592C59.7429 50.249 59.8306 49.7581 59.9921 49.2936L48.8556 43.6028C48.5766 45.2016 47.105 46.6326 44.6336 47.6781C42.4756 48.5905 39.7142 49.1424 36.7537 49.2645V61.166C37.8727 61.392 38.8648 61.9134 39.6217 62.6316L49.81 57.4276ZM35.4984 68.78C37.2192 68.78 38.6187 67.5417 38.6187 66.0192C38.6187 64.4994 37.2192 63.2626 35.4984 63.2626C33.7808 63.2626 32.3813 64.4994 32.3813 66.0192C32.3813 67.5403 33.7792 68.78 35.4984 68.78ZM21.19 57.4276L31.3799 62.6316C32.1352 61.9134 33.1257 61.392 34.2431 61.166V49.2645C31.2827 49.1424 28.5229 48.5892 26.3648 47.6781C23.895 46.634 22.4249 45.203 22.146 43.6042L11.0064 49.2963C11.1678 49.7595 11.2556 50.2504 11.2556 50.7592C11.2556 51.2681 11.1678 51.759 11.0064 52.2221L21.19 57.4276ZM5.62621 53.5173C7.34386 53.5173 8.74335 52.2804 8.74335 50.7606C8.74335 49.2409 7.34542 48.004 5.62621 48.004C3.90701 48.004 2.50907 49.2409 2.50907 50.7606C2.50907 52.2804 3.90858 53.5173 5.62621 53.5173Z" fill="#FEA96C"/>
</svg>
