<svg xmlns="http://www.w3.org/2000/svg" width="48" height="48" viewBox="0 0 48 48">
  <g id="Group_10811" data-name="Group 10811" transform="translate(-267.569 -524.569)">
    <rect id="Rectangle_5283" data-name="Rectangle 5283" width="48" height="48" rx="8" transform="translate(267.569 524.569)" fill="#0fd17b" opacity="0.2"/>
    <g id="public_black_24dp" transform="translate(271 528)">
      <path id="Path_2668" data-name="Path 2668" d="M0,0H41.138V41.138H0Z" fill="none"/>
      <path id="Path_2669" data-name="Path 2669" d="M14,2A12,12,0,1,0,26,14,12,12,0,0,0,14,2ZM4.4,14a9.634,9.634,0,0,1,.252-2.136L10.388,17.6v1.2a2.407,2.407,0,0,0,2.4,2.4v2.316A9.614,9.614,0,0,1,4.4,14Zm16.668,6.48a2.391,2.391,0,0,0-2.28-1.68h-1.2V15.2a1.2,1.2,0,0,0-1.2-1.2h-7.2V11.6h2.4a1.2,1.2,0,0,0,1.2-1.2V8h2.4a2.407,2.407,0,0,0,2.4-2.4V5.108a9.573,9.573,0,0,1,3.48,15.372Z" transform="translate(6.569 6.569)" fill="#15b26b"/>
    </g>
  </g>
</svg>
