<svg xmlns="http://www.w3.org/2000/svg" width="64" height="64" viewBox="0 0 64 64" fill="none">
  <path d="M49.0666 7.46665H43.7333V6.40004C43.7333 5.22668 42.7733 4.26669 41.5999 4.26669H38.4V3.19996C38.4 1.38661 37.0133 0 35.2 0H28.8C26.9866 0 25.6 1.49336 25.6 3.19996V4.26657H22.4C21.2267 4.26657 20.2667 5.22655 20.2667 6.39991V7.46652H14.9334C11.9467 7.46652 9.6001 9.81324 9.6001 12.7998V58.6664C9.6001 61.6532 11.9468 63.9997 14.9334 63.9997H49.0667C52.0534 63.9997 54.4 61.653 54.4 58.6664V12.7999C54.4 9.81337 52.0533 7.46665 49.0666 7.46665ZM22.3999 6.40004H26.6666C27.3066 6.40004 27.7332 5.97342 27.7332 5.33343V3.19996C27.7332 2.55996 28.1598 2.13335 28.7998 2.13335H35.1999C35.8399 2.13335 36.2665 2.66671 36.2665 3.19996V5.3333C36.2665 5.97329 36.6931 6.39991 37.3331 6.39991H41.5998V8.53326V13.8666H22.3999V8.53339V6.40004ZM52.2666 58.6666C52.2666 60.4799 50.88 61.8665 49.0667 61.8665H14.9334C13.12 61.8665 11.7334 60.4799 11.7334 58.6666V12.7999C11.7334 10.9866 13.12 9.59999 14.9334 9.59999H20.2667V13.8667C20.2667 15.04 21.2267 16 22.4 16H41.6C42.7734 16 43.7334 15.04 43.7334 13.8667V9.59999H49.0667C50.88 9.59999 52.2666 10.9866 52.2666 12.7999V58.6666Z" fill="#0053AD"/>
  <path d="M35.1999 51.2002H18.1333C17.4933 51.2002 17.0667 51.6268 17.0667 52.2668C17.0667 52.9068 17.4933 53.3334 18.1333 53.3334H35.1999C35.8399 53.3334 36.2665 52.9068 36.2665 52.2668C36.2665 51.6268 35.8399 51.2002 35.1999 51.2002Z" fill="#0053AD"/>
  <path d="M35.1999 41.5996H18.1333C17.4933 41.5996 17.0667 42.0262 17.0667 42.6662C17.0667 43.3062 17.4933 43.7328 18.1333 43.7328H35.1999C35.8399 43.7328 36.2665 43.3062 36.2665 42.6662C36.2665 42.0264 35.8399 41.5996 35.1999 41.5996Z" fill="#0053AD"/>
  <path d="M35.1999 31.9999H18.1333C17.4933 31.9999 17.0667 32.4266 17.0667 33.0666C17.0667 33.7065 17.4933 34.1332 18.1333 34.1332H35.1999C35.8399 34.1332 36.2665 33.7065 36.2665 33.0666C36.2665 32.4267 35.8399 31.9999 35.1999 31.9999Z" fill="#0053AD"/>
  <path d="M35.1999 22.4004H18.1333C17.4933 22.4004 17.0667 22.827 17.0667 23.467C17.0667 24.107 17.4933 24.5336 18.1333 24.5336H35.1999C35.8399 24.5336 36.2665 24.107 36.2665 23.467C36.2665 22.827 35.8399 22.4004 35.1999 22.4004Z" fill="#0053AD"/>
  <path d="M47.5734 19.4136C47.1468 19.0936 46.4 19.2002 46.08 19.627L42.5719 24.0121L41.2801 22.7203C40.8535 22.2937 40.2135 22.2937 39.7868 22.7203C39.3601 23.1469 39.3601 23.7869 39.7868 24.2137L41.8637 26.2906C41.9115 26.352 41.9653 26.4076 42.0267 26.4536C42.0384 26.4595 42.0501 26.4652 42.0618 26.471C42.2324 26.6011 42.4169 26.6669 42.6667 26.6669C42.7068 26.6669 42.7451 26.6652 42.782 26.6619C43.0622 26.638 43.3324 26.5218 43.5201 26.2403L47.7868 20.907C48.1066 20.4802 48 19.7336 47.5734 19.4136Z" fill="#0053AD"/>
  <path d="M47.5734 29.0133C47.1468 28.6933 46.4 28.8 46.08 29.2267L42.5719 33.6118L41.2801 32.32C40.8535 31.8934 40.2135 31.8934 39.7868 32.32C39.3601 32.7467 39.3601 33.3867 39.7868 33.8134L41.8637 35.8903C41.9115 35.9518 41.9653 36.0074 42.0267 36.0534C42.0384 36.0592 42.0501 36.0651 42.0618 36.0709C42.2324 36.2009 42.4169 36.2667 42.6667 36.2667C42.7068 36.2667 42.7451 36.2651 42.782 36.2618C43.0622 36.2379 43.3324 36.1216 43.5201 35.8401L47.7868 30.5068C48.1066 30.0799 48 29.3333 47.5734 29.0133Z" fill="#0053AD"/>
  <path d="M47.5734 38.6138C47.1468 38.2938 46.4 38.4004 46.08 38.8272L42.5719 43.2123L41.2801 41.9205C40.8535 41.4939 40.2135 41.4939 39.7868 41.9205C39.3601 42.3471 39.3601 42.9871 39.7868 43.4139L41.8637 45.4908C41.9115 45.5522 41.9653 45.6078 42.0267 45.6538C42.0384 45.6597 42.0501 45.6654 42.0618 45.6712C42.2324 45.8013 42.4169 45.8671 42.6667 45.8671C42.7068 45.8671 42.7451 45.8654 42.782 45.8621C43.0622 45.8382 43.3324 45.722 43.5201 45.4405L47.7868 40.1072C48.1066 39.6804 48 38.9338 47.5734 38.6138Z" fill="#0053AD"/>
  <path d="M47.5734 48.2134C47.1468 47.8934 46.4 48 46.08 48.4267L42.5719 52.8119L41.2801 51.5201C40.8535 51.0934 40.2135 51.0934 39.7868 51.5201C39.3601 51.9467 39.3601 52.5867 39.7868 53.0134L41.8637 55.0903C41.9115 55.1518 41.9653 55.2074 42.0267 55.2534C42.0384 55.2592 42.0501 55.2651 42.0618 55.2709C42.2324 55.4009 42.4169 55.4668 42.6667 55.4668C42.7068 55.4668 42.7451 55.4651 42.782 55.4618C43.0622 55.4379 43.3324 55.3216 43.5201 55.0401L47.7868 49.7068C48.1066 49.28 48 48.5333 47.5734 48.2134Z" fill="#0053AD"/>
</svg>