<svg xmlns="http://www.w3.org/2000/svg" width="64" height="64" viewBox="0 0 64 64" fill="none">
  <g clip-path="url(#clip0_640_490)">
    <path d="M46.9331 19.5977V3.2002C46.9331 1.43262 45.5005 0 43.7334 0H20.2666C18.4995 0 17.0669 1.43262 17.0669 3.2002V19.5977C0.0126953 20.5503 0 22.4404 0 23.4668V32C0 33.0669 0.614258 34.1016 7.18408 34.9868L25.3662 48.6484C26.1855 49.2495 26.6685 50.2056 26.6665 51.2212V61.8667C26.6665 63.0449 27.6216 64 28.7998 64C29.1992 63.9995 29.5903 63.8887 29.9307 63.6802L35.8398 59.981C36.77 59.3931 37.334 58.3696 37.3335 57.2695V51.2212C37.333 50.2007 37.8203 49.2412 38.6455 48.6401L56.8159 34.9868C63.3857 34.1016 64 33.0669 64 32V23.4668C64 22.4404 63.9873 20.5503 46.9331 19.5977ZM61.8667 31.6802C60.1421 32.7466 49.2104 34.1333 32 34.1333C14.7896 34.1333 3.85791 32.7383 2.1333 31.6802V25.4419C4.70996 26.1509 7.35059 26.6025 10.0161 26.7915C15.8936 27.3994 23.6973 27.7334 32 27.7334C40.3027 27.7334 48.1064 27.3994 53.9839 26.7915C56.6494 26.6025 59.29 26.1509 61.8667 25.4419V31.6802ZM44.7998 17.0669H19.2002V10.6665H44.7998V17.0669ZM19.2002 19.2002H44.7998V25.3154C41.0552 25.4932 36.77 25.6001 32 25.6001C27.23 25.6001 22.9448 25.4932 19.2002 25.3154V19.2002ZM61.0806 23.4731C59.0625 24.1035 54.1631 24.7852 46.9331 25.2021V21.7363C55.1689 22.2046 59.3535 22.9331 61.0806 23.4731ZM19.2002 3.2002C19.2002 2.61084 19.6777 2.1333 20.2666 2.1333H43.7334C44.3223 2.1333 44.7998 2.61084 44.7998 3.2002V8.5332H19.2002V3.2002ZM17.0669 21.7363V25.2021C9.83691 24.7852 4.9375 24.1064 2.91943 23.4731C4.64648 22.9331 8.83105 22.2046 17.0669 21.7363ZM37.377 46.9238C36.0088 47.9282 35.2007 49.5239 35.2002 51.2212V57.2695C35.1958 57.6372 35.0068 57.9785 34.6978 58.1782L28.7998 61.8667V51.2212C28.8018 49.5293 27.998 47.937 26.6357 46.9331L11.3491 35.4497C17.0527 35.9756 24.3042 36.2666 32 36.2666C39.6958 36.2666 46.9473 35.9756 52.6509 35.4497L37.377 46.9238Z" fill="#0053AD"/>
    <path d="M23.4668 4.2666H22.3999C21.811 4.2666 21.3335 4.74414 21.3335 5.3335C21.3335 5.92236 21.811 6.3999 22.3999 6.3999H23.4668C24.0557 6.3999 24.5332 5.92236 24.5332 5.3335C24.5332 4.74414 24.0557 4.2666 23.4668 4.2666Z" fill="#0053AD"/>
    <path d="M28.7998 4.2666H27.7334C27.144 4.2666 26.6665 4.74414 26.6665 5.3335C26.6665 5.92236 27.144 6.3999 27.7334 6.3999H28.7998C29.3892 6.3999 29.8667 5.92236 29.8667 5.3335C29.8667 4.74414 29.3892 4.2666 28.7998 4.2666Z" fill="#0053AD"/>
    <path d="M22.3999 14.9331H23.4668C24.0557 14.9331 24.5332 14.4556 24.5332 13.8667C24.5332 13.2773 24.0557 12.7998 23.4668 12.7998H22.3999C21.811 12.7998 21.3335 13.2773 21.3335 13.8667C21.3335 14.4556 21.811 14.9331 22.3999 14.9331Z" fill="#0053AD"/>
    <path d="M27.7334 14.9331H28.7998C29.3892 14.9331 29.8667 14.4556 29.8667 13.8667C29.8667 13.2773 29.3892 12.7998 28.7998 12.7998H27.7334C27.144 12.7998 26.6665 13.2773 26.6665 13.8667C26.6665 14.4556 27.144 14.9331 27.7334 14.9331Z" fill="#0053AD"/>
    <path d="M41.6001 4.2666H38.3999C37.811 4.2666 37.3335 4.74414 37.3335 5.3335C37.3335 5.92236 37.811 6.3999 38.3999 6.3999H41.6001C42.189 6.3999 42.6665 5.92236 42.6665 5.3335C42.6665 4.74414 42.189 4.2666 41.6001 4.2666Z" fill="#0053AD"/>
    <path d="M38.3999 14.9331H41.6001C42.189 14.9331 42.6665 14.4556 42.6665 13.8667C42.6665 13.2773 42.189 12.7998 41.6001 12.7998H38.3999C37.811 12.7998 37.3335 13.2773 37.3335 13.8667C37.3335 14.4556 37.811 14.9331 38.3999 14.9331Z" fill="#0053AD"/>
    <path d="M23.4668 21.333H22.3999C21.811 21.333 21.3335 21.8105 21.3335 22.3994C21.3335 22.9888 21.811 23.4663 22.3999 23.4663H23.4668C24.0557 23.4663 24.5332 22.9888 24.5332 22.3994C24.5332 21.8105 24.0557 21.333 23.4668 21.333Z" fill="#0053AD"/>
    <path d="M28.7998 21.333H27.7334C27.144 21.333 26.6665 21.8105 26.6665 22.3994C26.6665 22.9888 27.144 23.4663 27.7334 23.4663H28.7998C29.3892 23.4663 29.8667 22.9888 29.8667 22.3994C29.8667 21.8105 29.3892 21.333 28.7998 21.333Z" fill="#0053AD"/>
    <path d="M38.3999 23.4663H41.6001C42.189 23.4663 42.6665 22.9888 42.6665 22.3994C42.6665 21.8105 42.189 21.333 41.6001 21.333H38.3999C37.811 21.333 37.3335 21.8105 37.3335 22.3994C37.3335 22.9888 37.811 23.4663 38.3999 23.4663Z" fill="#0053AD"/>
    <path d="M9.60002 0C9.01066 0 8.53312 0.477539 8.53312 1.06689V12.3584L7.15421 10.979C6.73576 10.5752 6.07023 10.5806 5.65861 10.9922C5.24748 11.4038 5.24162 12.0688 5.64591 12.4873L8.84562 15.6875C9.04582 15.8882 9.31779 16.001 9.60099 16.001C9.88419 16.001 10.1562 15.8882 10.3564 15.6875L13.5561 12.4873C13.9604 12.0688 13.9545 11.4038 13.5434 10.9922C13.1318 10.5806 12.4662 10.5752 12.0478 10.979L10.6664 12.3584V1.06689C10.6664 0.477539 10.1889 0 9.60002 0Z" fill="#0053AD"/>
    <path d="M54.4 0C53.8111 0 53.3336 0.477539 53.3336 1.06689V12.3584L51.9542 10.979C51.5357 10.5752 50.8702 10.5806 50.4591 10.9922C50.0475 11.4038 50.0416 12.0688 50.4459 12.4873L53.6461 15.6875C53.8463 15.8882 54.1178 16.001 54.401 16.001C54.6847 16.001 54.9562 15.8882 55.1564 15.6875L58.3565 12.4873C58.7608 12.0688 58.755 11.4038 58.3434 10.9922C57.9317 10.5806 57.2667 10.5752 56.8482 10.979L55.4669 12.3584V1.06689C55.4669 0.477539 54.9894 0 54.4 0Z" fill="#0053AD"/>
  </g>
  <defs>
    <clipPath id="clip0_640_490">
      <rect width="64" height="64" fill="white"/>
    </clipPath>
  </defs>
</svg>