<svg xmlns="http://www.w3.org/2000/svg" width="64" height="64" viewBox="0 0 64 64" fill="none">
  <path d="M47.504 20.8047H57.0001C57.7954 20.8038 58.558 20.4875 59.1204 19.9251C59.6828 19.3626 59.9992 18.6001 60.0001 17.8047V10.2773C59.9992 9.48196 59.6828 8.7194 59.1204 8.15698C58.558 7.59456 57.7954 7.27821 57.0001 7.27734H47.504C46.7086 7.27821 45.946 7.59456 45.3836 8.15698C44.8212 8.7194 44.5048 9.48196 44.504 10.2773V13.04H38.0001C37.2047 13.0409 36.4421 13.3572 35.8797 13.9196C35.3173 14.4821 35.0009 15.2446 35.0001 16.04V32.1963H26.5626V24.6074C26.5616 23.9236 26.4209 23.2472 26.1489 22.6198C25.8769 21.9923 25.4795 21.4272 24.9811 20.959L19.8136 16.1162C18.8879 15.2463 17.6649 14.7629 16.3946 14.7647H7.01813C6.17941 14.8068 5.39139 15.1789 4.82598 15.7999C4.26058 16.4208 3.96368 17.2401 4.00006 18.0791V45.0947C3.96368 45.9337 4.26057 46.7531 4.82598 47.374C5.39138 47.9949 6.17941 48.367 7.01813 48.4092H23.5445C24.3832 48.367 25.1712 47.9949 25.7366 47.374C26.302 46.7531 26.5989 45.9337 26.5626 45.0947V34.1963C27.4063 34.2003 34.3841 34.1934 35 34.1963V49.2002C35.0009 49.9956 35.3173 50.7581 35.8797 51.3206C36.4421 51.883 37.2047 52.1993 38 52.2002H44.504V53.7227C44.5048 54.518 44.8212 55.2806 45.3836 55.843C45.946 56.4054 46.7086 56.7218 47.504 56.7227H57.0001C57.7954 56.7218 58.558 56.4054 59.1204 55.843C59.6828 55.2806 59.9992 54.518 60.0001 53.7227V46.1953C59.9992 45.3999 59.6828 44.6374 59.1204 44.075C58.558 43.5125 57.7954 43.1962 57.0001 43.1953H47.504C46.7086 43.1962 45.946 43.5125 45.3836 44.075C44.8212 44.6374 44.5048 45.3999 44.504 46.1953V50.2002H38.0001C37.7349 50.1999 37.4807 50.0945 37.2932 49.907C37.1058 49.7195 37.0003 49.4653 37.0001 49.2002V34.1963H44.504V35.7637C44.5048 36.5591 44.8212 37.3216 45.3836 37.884C45.946 38.4465 46.7086 38.7628 47.504 38.7637H57.0001C57.7954 38.7628 58.558 38.4465 59.1204 37.884C59.6828 37.3216 59.9992 36.5591 60.0001 35.7637V28.2363C59.9992 27.441 59.6828 26.6784 59.1204 26.116C58.558 25.5536 57.7954 25.2372 57.0001 25.2363H47.504C46.7086 25.2372 45.946 25.5536 45.3836 26.116C44.8212 26.6784 44.5048 27.441 44.504 28.2363V32.1963H37.0001V16.04C37.0003 15.7749 37.1058 15.5207 37.2932 15.3332C37.4807 15.1457 37.7349 15.0403 38.0001 15.04H44.504V17.8047C44.5048 18.6 44.8212 19.3626 45.3836 19.925C45.946 20.4875 46.7086 20.8038 47.504 20.8047ZM23.6138 22.418C23.968 22.7571 24.2335 23.1779 24.387 23.6436H18.3946C18.1295 23.6433 17.8753 23.5379 17.6878 23.3504C17.5003 23.1629 17.3949 22.9087 17.3946 22.6436V16.944C17.7849 17.0794 18.1429 17.2943 18.4459 17.5752L23.6138 22.418ZM23.5445 46.4092H7.01813C6.71115 46.3648 6.43341 46.2029 6.24348 45.9577C6.05355 45.7125 5.96627 45.4031 6.00006 45.0947V18.0791C5.96628 17.7708 6.05356 17.4614 6.24349 17.2162C6.43342 16.9709 6.71115 16.8091 7.01813 16.7647H15.3946V22.6436C15.3955 23.4389 15.7118 24.2015 16.2742 24.7639C16.8366 25.3263 17.5992 25.6427 18.3946 25.6436H24.5626V45.0947C24.5964 45.4031 24.5091 45.7125 24.3191 45.9577C24.1292 46.2029 23.8515 46.3648 23.5445 46.4092ZM46.504 46.1953C46.5042 45.9302 46.6097 45.676 46.7972 45.4885C46.9846 45.301 47.2388 45.1956 47.504 45.1953H57.0001C57.2652 45.1956 57.5194 45.301 57.7069 45.4885C57.8944 45.676 57.9998 45.9302 58.0001 46.1953V53.7227C57.9998 53.9878 57.8944 54.242 57.7069 54.4295C57.5194 54.617 57.2652 54.7224 57.0001 54.7227H47.504C47.2388 54.7224 46.9846 54.617 46.7972 54.4295C46.6097 54.242 46.5042 53.9878 46.504 53.7227V46.1953ZM46.504 28.2363C46.5042 27.9712 46.6097 27.717 46.7972 27.5295C46.9846 27.3421 47.2388 27.2366 47.504 27.2363H57.0001C57.2652 27.2366 57.5194 27.3421 57.7069 27.5295C57.8944 27.717 57.9998 27.9712 58.0001 28.2363V35.7637C57.9998 36.0288 57.8944 36.283 57.7069 36.4705C57.5194 36.658 57.2652 36.7634 57.0001 36.7637H47.504C47.2388 36.7634 46.9846 36.658 46.7972 36.4705C46.6097 36.283 46.5042 36.0288 46.504 35.7637V28.2363ZM46.504 10.2773C46.5042 10.0122 46.6097 9.75801 46.7972 9.57053C46.9846 9.38305 47.2388 9.27761 47.504 9.27734H57.0001C57.2652 9.27761 57.5194 9.38305 57.7069 9.57053C57.8944 9.75801 57.9998 10.0122 58.0001 10.2773V17.8047C57.9998 18.0698 57.8944 18.324 57.7069 18.5115C57.5194 18.699 57.2652 18.8044 57.0001 18.8047H47.504C47.2388 18.8044 46.9846 18.699 46.7972 18.5115C46.6097 18.324 46.5042 18.0698 46.504 17.8047V10.2773Z" fill="#0053AD"/>
  <path d="M48.959 13.3379H55.5449C55.8067 13.3328 56.0561 13.2252 56.2395 13.0382C56.4229 12.8512 56.5256 12.5998 56.5256 12.3379C56.5256 12.076 56.4228 11.8245 56.2395 11.6376C56.0561 11.4506 55.8067 11.343 55.5448 11.3379H48.959C48.6971 11.343 48.4477 11.4506 48.2644 11.6376C48.081 11.8246 47.9783 12.076 47.9783 12.3379C47.9783 12.5998 48.081 12.8512 48.2644 13.0382C48.4477 13.2252 48.6971 13.3328 48.959 13.3379Z" fill="#0053AD"/>
  <path d="M48.959 16.7441H55.5449C55.8067 16.739 56.0561 16.6314 56.2395 16.4444C56.4229 16.2574 56.5256 16.006 56.5256 15.7441C56.5256 15.4822 56.4228 15.2308 56.2395 15.0438C56.0561 14.8568 55.8067 14.7492 55.5448 14.7441H48.959C48.6971 14.7492 48.4477 14.8568 48.2644 15.0438C48.081 15.2308 47.9783 15.4822 47.9783 15.7441C47.9783 16.006 48.081 16.2575 48.2644 16.4445C48.4477 16.6314 48.6971 16.739 48.959 16.7441Z" fill="#0053AD"/>
  <path d="M48.959 31.2969H55.5449C55.8067 31.2918 56.0561 31.1842 56.2395 30.9972C56.4229 30.8102 56.5256 30.5588 56.5256 30.2969C56.5256 30.035 56.4228 29.7835 56.2395 29.5966C56.0561 29.4096 55.8067 29.302 55.5448 29.2969H48.959C48.6971 29.302 48.4477 29.4096 48.2644 29.5966C48.081 29.7836 47.9783 30.035 47.9783 30.2969C47.9783 30.5588 48.081 30.8102 48.2644 30.9972C48.4477 31.1842 48.6971 31.2918 48.959 31.2969Z" fill="#0053AD"/>
  <path d="M48.959 34.7031H55.5449C55.8067 34.698 56.0561 34.5904 56.2395 34.4034C56.4229 34.2164 56.5256 33.965 56.5256 33.7031C56.5256 33.4412 56.4228 33.1898 56.2395 33.0028C56.0561 32.8158 55.8067 32.7082 55.5448 32.7031H48.959C48.6971 32.7082 48.4477 32.8158 48.2644 33.0028C48.081 33.1898 47.9783 33.4412 47.9783 33.7031C47.9783 33.965 48.081 34.2165 48.2644 34.4034C48.4477 34.5904 48.6971 34.698 48.959 34.7031Z" fill="#0053AD"/>
  <path d="M48.959 49.2559H55.5449C55.8067 49.2507 56.0561 49.1431 56.2395 48.9562C56.4229 48.7692 56.5256 48.5177 56.5256 48.2558C56.5256 47.9939 56.4228 47.7425 56.2395 47.5555C56.0561 47.3685 55.8067 47.261 55.5448 47.2559H48.959C48.6971 47.261 48.4477 47.3686 48.2644 47.5555C48.081 47.7425 47.9783 47.994 47.9783 48.2559C47.9783 48.5178 48.081 48.7692 48.2644 48.9562C48.4477 49.1432 48.6971 49.2508 48.959 49.2559Z" fill="#0053AD"/>
  <path d="M48.959 52.6621H55.5449C55.8067 52.657 56.0561 52.5494 56.2395 52.3624C56.4229 52.1754 56.5256 51.924 56.5256 51.6621C56.5256 51.4002 56.4228 51.1487 56.2395 50.9618C56.0561 50.7748 55.8067 50.6672 55.5448 50.6621H48.959C48.6971 50.6672 48.4477 50.7748 48.2644 50.9618C48.081 51.1488 47.9783 51.4002 47.9783 51.6621C47.9783 51.924 48.081 52.1754 48.2644 52.3624C48.4477 52.5494 48.6971 52.657 48.959 52.6621Z" fill="#0053AD"/>
  <path d="M21.54 30.1064H9.02583C8.76399 30.1116 8.5146 30.2192 8.33123 30.4062C8.14787 30.5931 8.04516 30.8446 8.04517 31.1065C8.04517 31.3684 8.1479 31.6198 8.33128 31.8068C8.51465 31.9938 8.76405 32.1013 9.02589 32.1064H21.54C21.8018 32.1013 22.0512 31.9937 22.2346 31.8068C22.4179 31.6198 22.5206 31.3683 22.5206 31.1064C22.5206 30.8446 22.4179 30.5931 22.2346 30.4061C22.0512 30.2192 21.8018 30.1115 21.54 30.1064Z" fill="#0053AD"/>
  <path d="M21.54 35.4365H9.02583C8.76399 35.4416 8.5146 35.5492 8.33123 35.7362C8.14787 35.9232 8.04516 36.1747 8.04517 36.4366C8.04517 36.6984 8.1479 36.9499 8.33128 37.1369C8.51465 37.3238 8.76405 37.4314 9.02589 37.4365H21.54C21.8018 37.4314 22.0512 37.3238 22.2346 37.1368C22.4179 36.9499 22.5206 36.6984 22.5206 36.4365C22.5206 36.1746 22.4179 35.9232 22.2346 35.7362C22.0512 35.5492 21.8018 35.4416 21.54 35.4365Z" fill="#0053AD"/>
  <path d="M21.54 40.6543H9.02583C8.76399 40.6594 8.5146 40.767 8.33123 40.954C8.14787 41.141 8.04516 41.3924 8.04517 41.6543C8.04517 41.9162 8.1479 42.1677 8.33128 42.3546C8.51465 42.5416 8.76405 42.6492 9.02589 42.6543H21.54C21.8018 42.6492 22.0512 42.5416 22.2346 42.3546C22.4179 42.1676 22.5206 41.9162 22.5206 41.6543C22.5206 41.3924 22.4179 41.141 22.2346 40.954C22.0512 40.767 21.8018 40.6594 21.54 40.6543Z" fill="#0053AD"/>
</svg>