<svg xmlns="http://www.w3.org/2000/svg" width="64" height="64" viewBox="0 0 64 64" fill="none">
  <g clip-path="url(#clip0_640_480)">
    <path d="M9.01166 43.9714C8.35946 43.7479 7.64801 44.0965 7.42478 44.7499L6.63321 47.0649C3.92415 42.5196 2.50212 37.3611 2.50212 32.0015C2.50212 15.7363 15.7348 2.50357 32 2.50357C38.2079 2.50357 44.1467 4.40969 49.1743 8.01606C49.7354 8.41866 50.5161 8.28979 50.9185 7.72896C51.3208 7.16799 51.1922 6.38718 50.6312 5.9847C38.2344 -2.90742 20.7296 -1.97999 9.37414 9.37559C-1.16312 19.913 -2.63452 35.6385 4.04239 47.5778L2.63774 47.0976C1.98478 46.874 1.27396 47.2227 1.05072 47.8759C0.827365 48.5292 1.17584 49.2397 1.82904 49.4629L6.57921 51.0869C7.29854 51.3326 8.08735 50.8972 8.22772 50.1288L9.79024 45.5584C10.0135 44.9052 9.66499 44.1946 9.01166 43.9714Z" fill="#0053AD"/>
    <path d="M59.9578 16.4251L61.3625 16.9053C62.0158 17.1287 62.7263 16.7802 62.9495 16.1269C63.1729 15.4737 62.8244 14.7631 62.1712 14.5399C57.1254 12.8329 57.4034 12.8701 57.089 12.8518C56.465 12.8072 55.8892 13.2357 55.7725 13.8738L54.21 18.4445C53.9866 19.0977 54.3351 19.8082 54.9884 20.0315C55.6401 20.2542 56.3516 19.9077 56.5753 19.253L57.3668 16.9379C60.0759 21.4834 61.4978 26.6418 61.4978 32.0014C61.4978 48.2666 48.2651 61.4993 31.9999 61.4993C25.7921 61.4993 19.8533 59.5932 14.8256 55.9868C14.2648 55.5845 13.4838 55.7132 13.0815 56.274C12.6792 56.8349 12.8078 57.6158 13.3687 58.0182C18.8237 61.9309 25.2663 63.9991 32 63.9991C40.5469 63.9991 48.5824 60.6707 54.626 54.6272C65.1635 44.0899 66.6346 28.3644 59.9578 16.4251Z" fill="#0053AD"/>
    <path d="M12.9088 44.8499L19.1514 51.0924C19.6396 51.5804 20.4308 51.5804 20.9191 51.0924L24.3436 47.6679C24.9909 47.9849 25.6568 48.2613 26.3361 48.4949V53.3363C26.3361 54.0265 26.8958 54.5862 27.586 54.5862H36.4145C37.1047 54.5862 37.6644 54.0265 37.6644 53.3363V48.4949C38.3438 48.2613 39.0097 47.9849 39.6569 47.6679L43.0814 51.0924C43.5696 51.5804 44.3608 51.5804 44.849 51.0924L51.0916 44.8499C51.5797 44.3618 51.5797 43.5703 51.0916 43.0821L47.6671 39.6577C47.9841 39.0104 48.2604 38.3446 48.494 37.6652H53.3354C54.0257 37.6652 54.5854 37.1055 54.5854 36.4153V27.587C54.5854 26.8966 54.0257 26.337 53.3354 26.337H48.494C48.2604 25.6576 47.9841 24.9918 47.6672 24.3446L51.0916 20.9201C51.5797 20.432 51.5797 19.6405 51.0916 19.1524L44.849 12.9099C44.3611 12.422 43.5695 12.4218 43.0814 12.9099L39.6569 16.3344C39.0096 16.0174 38.3438 15.741 37.6644 15.5074V10.6658C37.6644 9.97545 37.1047 9.41586 36.4145 9.41586H27.586C26.8958 9.41586 26.3361 9.97545 26.3361 10.6658V15.5072C25.6566 15.7408 24.9908 16.0171 24.3436 16.3341L20.9191 12.9096C20.4311 12.4218 19.6394 12.4214 19.1514 12.9096L12.9088 19.1522C12.4207 19.6403 12.4207 20.4316 12.9088 20.9198L16.3333 24.3443C16.0164 24.9915 15.7401 25.6575 15.5065 26.3368H10.665C9.97475 26.3368 9.41504 26.8964 9.41504 27.5867V36.4151C9.41504 37.1053 9.97475 37.665 10.665 37.665H15.5064C15.74 38.3443 16.0163 39.0103 16.3333 39.6575L12.9088 43.0819C12.4207 43.5702 12.4207 44.3617 12.9088 44.8499ZM18.7505 40.7758C19.1461 40.3802 19.2306 39.7699 18.9574 39.2816C18.3892 38.266 17.9414 37.187 17.6268 36.0751C17.4746 35.5369 16.9835 35.1654 16.4242 35.1654H11.9149V28.8369H16.4243C16.9836 28.8369 17.4747 28.4653 17.627 27.9272C17.9416 26.8151 18.3893 25.7363 18.9575 24.7207C19.2307 24.2324 19.1462 23.6221 18.7506 23.2265L15.5605 20.0362L20.0354 15.5613L23.2256 18.7516C23.6213 19.1474 24.2319 19.2315 24.7197 18.9586C25.7354 18.3902 26.8143 17.9426 27.9262 17.628C28.4645 17.4758 28.8359 16.9846 28.8359 16.4254V11.9157H35.1646V16.4251C35.1646 16.9845 35.5362 17.4757 36.0743 17.6278C37.1863 17.9423 38.2651 18.39 39.2808 18.9583C39.7693 19.2315 40.3794 19.1471 40.775 18.7513L43.9651 15.5611L48.44 20.036L45.2499 23.2263C44.8543 23.6219 44.7698 24.2321 45.043 24.7204C45.6112 25.7361 46.059 26.8149 46.3736 27.9269C46.5258 28.4651 47.0169 28.8366 47.5762 28.8366H52.0857V35.1652H47.5762C47.0169 35.1652 46.5258 35.5368 46.3736 36.0749C46.059 37.1869 45.6112 38.2657 45.043 39.2814C44.7698 39.7696 44.8543 40.3799 45.2499 40.7755L48.44 43.9657L43.9651 48.4406L40.775 45.2505C40.3794 44.8549 39.7689 44.7704 39.2808 45.0436C38.2651 45.6118 37.1862 46.0595 36.0743 46.3741C35.5361 46.5264 35.1646 47.0175 35.1646 47.5768V52.0862H28.8359V47.5768C28.8359 47.0175 28.4643 46.5264 27.9262 46.3741C26.8142 46.0595 25.7354 45.6118 24.7197 45.0436C24.2316 44.7705 23.6213 44.8549 23.2256 45.2505L20.0354 48.4406L15.5605 43.9657L18.7505 40.7758Z" fill="#0053AD"/>
    <path d="M32.0001 44.0449C38.6406 44.0449 44.0431 38.6424 44.0431 32.0019C44.0431 25.3613 38.6406 19.9588 32.0001 19.9588C25.3595 19.9588 19.957 25.3613 19.957 32.0019C19.9572 38.6425 25.3595 44.0449 32.0001 44.0449ZM32.0001 22.4588C37.2622 22.4588 41.5433 26.7399 41.5433 32.002C41.5433 37.2641 37.2622 41.5452 32.0001 41.5452C26.7379 41.5452 22.4569 37.2641 22.4569 32.002C22.457 26.7399 26.7381 22.4588 32.0001 22.4588Z" fill="#0053AD"/>
    <path d="M31.9999 33.2518H36.3925C37.0827 33.2518 37.6424 32.6921 37.6424 32.0019C37.6424 31.3117 37.0827 30.7519 36.3925 30.7519H33.2498V26.3543C33.2498 25.6639 32.6901 25.1043 31.9999 25.1043C31.3096 25.1043 30.75 25.6639 30.75 26.3543V32.0019C30.75 32.6921 31.3097 33.2518 31.9999 33.2518Z" fill="#0053AD"/>
  </g>
  <defs>
    <clipPath id="clip0_640_480">
      <rect width="64" height="64" fill="white"/>
    </clipPath>
  </defs>
</svg>