<svg xmlns="http://www.w3.org/2000/svg" width="64" height="64" viewBox="0 0 64 64" fill="none">
  <path d="M32 2C30.6155 2 29.2622 2.41054 28.111 3.17971C26.9599 3.94888 26.0627 5.04213 25.5328 6.32122C25.003 7.6003 24.8644 9.00776 25.1345 10.3656C25.4046 11.7235 26.0713 12.9708 27.0503 13.9497C28.0292 14.9287 29.2765 15.5954 30.6344 15.8655C31.9922 16.1356 33.3997 15.997 34.6788 15.4672C35.9579 14.9373 37.0511 14.0401 37.8203 12.889C38.5895 11.7378 39 10.3845 39 9C39 7.14348 38.2625 5.36301 36.9498 4.05025C35.637 2.7375 33.8565 2 32 2ZM32 14C31.0111 14 30.0444 13.7068 29.2222 13.1573C28.3999 12.6079 27.759 11.827 27.3806 10.9134C27.0022 9.99979 26.9032 8.99445 27.0961 8.02455C27.289 7.05464 27.7652 6.16373 28.4645 5.46447C29.1637 4.7652 30.0546 4.289 31.0246 4.09607C31.9945 3.90315 32.9998 4.00216 33.9134 4.3806C34.8271 4.75904 35.6079 5.3999 36.1574 6.22215C36.7068 7.04439 37 8.01109 37 9C37 9.65661 36.8707 10.3068 36.6194 10.9134C36.3681 11.52 35.9998 12.0712 35.5355 12.5355C35.0712 12.9998 34.5201 13.3681 33.9134 13.6194C33.3068 13.8707 32.6566 14 32 14Z" fill="#0053AD"/>
  <path d="M42.18 39.8C43.0666 39.7756 43.9219 39.4671 44.62 38.92C45.0598 38.5728 45.4132 38.1285 45.6526 37.6219C45.8921 37.1153 46.011 36.5602 46 36V30H51V41.1C49.786 41.3478 48.7072 42.0376 47.9728 43.0356C47.2384 44.0336 46.9008 45.2687 47.0253 46.5015C47.1499 47.7343 47.7277 48.877 48.6469 49.7079C49.566 50.5389 50.7609 50.999 52 50.999C53.2391 50.999 54.434 50.5389 55.3532 49.7079C56.2723 48.877 56.8502 47.7343 56.9747 46.5015C57.0992 45.2687 56.7616 44.0336 56.0272 43.0356C55.2928 42.0376 54.2141 41.3478 53 41.1V29C53 28.7348 52.8947 28.4804 52.7071 28.2929C52.5196 28.1054 52.2652 28 52 28H46V24.66C46.0013 23.6537 45.8041 22.657 45.4196 21.7271C45.0351 20.7971 44.4709 19.9522 43.7594 19.2406C43.0478 18.5291 42.2029 17.9649 41.2729 17.5804C40.343 17.1959 39.3463 16.9987 38.34 17H25.66C24.6537 16.9987 23.657 17.1959 22.7271 17.5804C21.7972 17.9649 20.9522 18.5291 20.2406 19.2406C19.5291 19.9522 18.9649 20.7971 18.5804 21.7271C18.1959 22.657 17.9987 23.6537 18 24.66V28H12C11.7348 28 11.4804 28.1054 11.2929 28.2929C11.1054 28.4804 11 28.7348 11 29V41.1C9.78597 41.3478 8.70719 42.0376 7.97281 43.0356C7.23844 44.0336 6.90079 45.2687 7.02533 46.5015C7.14987 47.7343 7.72772 48.877 8.64686 49.7079C9.56599 50.5389 10.7609 50.999 12 50.999C13.2391 50.999 14.434 50.5389 15.3532 49.7079C16.2723 48.877 16.8502 47.7343 16.9747 46.5015C17.0992 45.2687 16.7616 44.0336 16.0272 43.0356C15.2928 42.0376 14.2141 41.3478 13 41.1V30H18V36C18 37.0609 18.4214 38.0783 19.1716 38.8284C19.9217 39.5786 20.9391 40 22 40H22.15C22.8075 39.9678 23.4452 39.7644 24 39.41V57.55C24.0026 58.1379 24.1212 58.7194 24.3489 59.2614C24.5766 59.8034 24.9089 60.2951 25.3269 60.7085C25.7449 61.1218 26.2403 61.4487 26.7848 61.6703C27.3293 61.8919 27.9122 62.004 28.5 62C29.1726 61.9978 29.8362 61.8448 30.4419 61.5524C31.0476 61.2599 31.58 60.8354 32 60.31C32.42 60.8354 32.9524 61.2599 33.5581 61.5524C34.1638 61.8448 34.8274 61.9978 35.5 62C36.0879 62.004 36.6707 61.8919 37.2152 61.6703C37.7597 61.4487 38.2551 61.1218 38.6731 60.7085C39.0911 60.2951 39.4235 59.8034 39.6512 59.2614C39.8788 58.7194 39.9974 58.1379 40 57.55V39.26C40.6582 39.6493 41.4162 39.8371 42.18 39.8ZM55 46C55 46.5933 54.8241 47.1734 54.4944 47.6667C54.1648 48.1601 53.6962 48.5446 53.1481 48.7716C52.5999 48.9987 51.9967 49.0581 51.4147 48.9424C50.8328 48.8266 50.2982 48.5409 49.8787 48.1213C49.4591 47.7018 49.1734 47.1672 49.0577 46.5853C48.9419 46.0033 49.0013 45.4001 49.2284 44.852C49.4554 44.3038 49.84 43.8352 50.3333 43.5056C50.8266 43.176 51.4067 43 52 43C52.7957 43 53.5587 43.3161 54.1213 43.8787C54.6839 44.4413 55 45.2044 55 46ZM15 46C15 46.5933 14.8241 47.1734 14.4944 47.6667C14.1648 48.1601 13.6962 48.5446 13.1481 48.7716C12.5999 48.9987 11.9967 49.0581 11.4147 48.9424C10.8328 48.8266 10.2982 48.5409 9.87869 48.1213C9.45913 47.7018 9.17341 47.1672 9.05766 46.5853C8.9419 46.0033 9.00131 45.4001 9.22837 44.852C9.45544 44.3038 9.83995 43.8352 10.3333 43.5056C10.8266 43.176 11.4067 43 12 43C12.7957 43 13.5587 43.3161 14.1213 43.8787C14.6839 44.4413 15 45.2044 15 46ZM30.11 30.29L31.46 22.94C31.6387 22.9704 31.819 22.9905 32 23C32.181 22.9905 32.3613 22.9704 32.54 22.94L33.88 30.28C33.9309 30.548 33.9066 30.8249 33.81 31.08L32 34.74L30.21 31.12C30.1008 30.8579 30.0662 30.5706 30.11 30.29ZM32.88 20.79C32.5756 20.9392 32.2382 21.0085 31.8995 20.9915C31.5609 20.9745 31.2322 20.8716 30.9443 20.6927C30.6563 20.5137 30.4186 20.2644 30.2534 19.9684C30.0882 19.6723 30.001 19.339 30 19H34C33.9989 19.3731 33.8934 19.7385 33.6955 20.0549C33.4976 20.3712 33.2151 20.6258 32.88 20.79ZM38 57.55C38.0013 57.8736 37.9363 58.1941 37.8091 58.4916C37.6818 58.7891 37.4949 59.0574 37.26 59.28C37.0298 59.5117 36.7554 59.6948 36.453 59.8185C36.1507 59.9422 35.8266 60.0039 35.5 60C34.844 60.0053 34.2126 59.7505 33.744 59.2913C33.2754 58.8321 33.0079 58.206 33 57.55V41C33 40.7348 32.8947 40.4804 32.7071 40.2929C32.5196 40.1054 32.2652 40 32 40C31.7348 40 31.4804 40.1054 31.2929 40.2929C31.1054 40.4804 31 40.7348 31 41V57.55C30.9921 58.206 30.7246 58.8321 30.256 59.2913C29.7875 59.7505 29.156 60.0053 28.5 60C28.1711 60.0034 27.8448 59.9405 27.5407 59.8151C27.2367 59.6896 26.9609 59.5043 26.73 59.27C26.4977 59.0481 26.3131 58.7811 26.1875 58.4853C26.062 58.1896 25.9982 57.8713 26 57.55V29C26 28.7348 25.8947 28.4804 25.7071 28.2929C25.5196 28.1054 25.2652 28 25 28C24.7348 28 24.4804 28.1054 24.2929 28.2929C24.1054 28.4804 24 28.7348 24 29V35.81C24.0181 36.349 23.831 36.8748 23.4765 37.2813C23.122 37.6878 22.6265 37.9446 22.09 38C21.5635 38.0219 21.0495 37.835 20.66 37.48C20.4528 37.293 20.2871 37.0647 20.1734 36.8098C20.0597 36.555 20.0007 36.2791 20 36V24.66C19.9978 23.5522 20.322 22.4683 20.932 21.5435C21.542 20.6187 22.4108 19.8941 23.43 19.46C24.1322 19.1499 24.8924 18.9931 25.66 19H28C28.0011 19.6134 28.1433 20.2183 28.4155 20.768C28.6878 21.3177 29.0828 21.7974 29.57 22.17L28.14 30C28.0295 30.6768 28.1163 31.3712 28.39 32L31.1 37.48C31.1819 37.6491 31.3097 37.7917 31.4689 37.8914C31.6281 37.9912 31.8122 38.0441 32 38.0441C32.1879 38.0441 32.3719 37.9912 32.5311 37.8914C32.6903 37.7917 32.8181 37.6491 32.9 37.48L35.63 31.96C35.8964 31.3289 35.9728 30.6339 35.85 29.96L34.43 22.2C34.9213 21.8243 35.3187 21.3398 35.5911 20.7845C35.8636 20.2293 36.0035 19.6185 36 19H38.34C39.1076 18.9931 39.8678 19.1499 40.57 19.46C41.5892 19.8941 42.4581 20.6187 43.0681 21.5435C43.678 22.4683 44.0022 23.5522 44 24.66V36C44.0106 36.2619 43.959 36.5225 43.8495 36.7607C43.74 36.9988 43.5757 37.2076 43.37 37.37C42.9968 37.6399 42.5504 37.7898 42.09 37.8C41.8199 37.8122 41.5501 37.7694 41.297 37.6744C41.0438 37.5793 40.8126 37.434 40.6173 37.247C40.4219 37.0601 40.2665 36.8355 40.1604 36.5867C40.0543 36.338 39.9997 36.0704 40 35.8V29C40 28.7348 39.8947 28.4804 39.7071 28.2929C39.5196 28.1054 39.2652 28 39 28C38.7348 28 38.4804 28.1054 38.2929 28.2929C38.1054 28.4804 38 28.7348 38 29V57.55Z" fill="#0053AD"/>
  <path d="M15.9999 52H7.99991C7.18558 52.0258 6.38433 52.2119 5.64197 52.5476C4.8996 52.8833 4.23068 53.3621 3.67345 53.9564C3.11622 54.5508 2.6816 55.2492 2.39444 56.0117C2.10728 56.7741 1.97322 57.5857 1.99991 58.4V61C1.99915 61.1316 2.02437 61.2621 2.07414 61.3839C2.1239 61.5057 2.19723 61.6166 2.28991 61.71C2.48154 61.8927 2.73514 61.9963 2.99991 62H20.9999C21.2651 62 21.5195 61.8946 21.707 61.7071C21.8946 61.5196 21.9999 61.2652 21.9999 61V58.4C22.0266 57.5857 21.8925 56.7741 21.6054 56.0117C21.3182 55.2492 20.8836 54.5508 20.3264 53.9564C19.7691 53.3621 19.1002 52.8833 18.3579 52.5476C17.6155 52.2119 16.8142 52.0258 15.9999 52ZM19.9999 60H3.99991V58.4C3.97301 57.8483 4.0552 57.2967 4.24177 56.7768C4.42834 56.2569 4.71563 55.779 5.08718 55.3702C5.45873 54.9615 5.90725 54.6301 6.40706 54.395C6.90687 54.1599 7.44815 54.0256 7.99991 54H15.9999C16.5517 54.0256 17.0929 54.1599 17.5928 54.395C18.0926 54.6301 18.5411 54.9615 18.9126 55.3702C19.2842 55.779 19.5715 56.2569 19.7581 56.7768C19.9446 57.2967 20.0268 57.8483 19.9999 58.4V60Z" fill="#0053AD"/>
  <path d="M55.9999 52H47.9999C47.1856 52.0258 46.3843 52.2119 45.642 52.5476C44.8996 52.8833 44.2307 53.3621 43.6735 53.9564C43.1162 54.5508 42.6816 55.2492 42.3944 56.0117C42.1073 56.7741 41.9732 57.5857 41.9999 58.4V61C41.9991 61.1316 42.0244 61.2621 42.0741 61.3839C42.1239 61.5057 42.1972 61.6166 42.2899 61.71C42.4815 61.8927 42.7351 61.9963 42.9999 62H60.9999C61.2651 62 61.5195 61.8946 61.707 61.7071C61.8946 61.5196 61.9999 61.2652 61.9999 61V58.4C62.0266 57.5857 61.8925 56.7741 61.6054 56.0117C61.3182 55.2492 60.8836 54.5508 60.3264 53.9564C59.7691 53.3621 59.1002 52.8833 58.3579 52.5476C57.6155 52.2119 56.8142 52.0258 55.9999 52ZM59.9999 60H43.9999V58.4C43.973 57.8483 44.0552 57.2967 44.2418 56.7768C44.4283 56.2569 44.7156 55.779 45.0872 55.3702C45.4587 54.9615 45.9073 54.6301 46.4071 54.395C46.9069 54.1599 47.4482 54.0256 47.9999 54H55.9999C56.5517 54.0256 57.0929 54.1599 57.5928 54.395C58.0926 54.6301 58.5411 54.9615 58.9126 55.3702C59.2842 55.779 59.5715 56.2569 59.7581 56.7768C59.9446 57.2967 60.0268 57.8483 59.9999 58.4V60Z" fill="#0053AD"/>
</svg>