<svg xmlns="http://www.w3.org/2000/svg" width="50" height="45" viewBox="0 0 50 45" fill="none">
  <path d="M35.18 22.8C36.0666 22.7756 36.9219 22.4671 37.62 21.92C38.0598 21.5728 38.4132 21.1285 38.6526 20.6219C38.8921 20.1153 39.011 19.5602 39 19V13H44V24.1C42.786 24.3478 41.7072 25.0376 40.9728 26.0356C40.2384 27.0336 39.9008 28.2687 40.0253 29.5015C40.1499 30.7343 40.7277 31.877 41.6469 32.7079C42.566 33.5389 43.7609 33.999 45 33.999C46.2391 33.999 47.434 33.5389 48.3532 32.7079C49.2723 31.877 49.8502 30.7343 49.9747 29.5015C50.0992 28.2687 49.7616 27.0336 49.0272 26.0356C48.2928 25.0376 47.2141 24.3478 46 24.1V12C46 11.7348 45.8947 11.4804 45.7071 11.2929C45.5196 11.1054 45.2652 11 45 11H39V7.66001C39.0013 6.65371 38.8041 5.65704 38.4196 4.7271C38.0351 3.79715 37.4709 2.95219 36.7594 2.24063C36.0478 1.52907 35.2029 0.964894 34.2729 0.580409C33.343 0.195924 32.3463 -0.00130974 31.34 6.54509e-06H18.66C17.6537 -0.00130974 16.657 0.195924 15.7271 0.580409C14.7972 0.964894 13.9522 1.52907 13.2406 2.24063C12.5291 2.95219 11.9649 3.79715 11.5804 4.7271C11.1959 5.65704 10.9987 6.65371 11 7.66001V11H5.00001C4.7348 11 4.48044 11.1054 4.2929 11.2929C4.10537 11.4804 4.00001 11.7348 4.00001 12V24.1C2.78597 24.3478 1.70719 25.0376 0.972814 26.0356C0.23844 27.0336 -0.0992078 28.2687 0.0253305 29.5015C0.149869 30.7343 0.727722 31.877 1.64686 32.7079C2.56599 33.5389 3.76093 33.999 5.00001 33.999C6.23909 33.999 7.43403 33.5389 8.35316 32.7079C9.2723 31.877 9.85015 30.7343 9.97469 29.5015C10.0992 28.2687 9.76158 27.0336 9.02721 26.0356C8.29283 25.0376 7.21405 24.3478 6.00001 24.1V13H11V19C11 20.0609 11.4214 21.0783 12.1716 21.8284C12.9217 22.5786 13.9391 23 15 23H15.15C15.8075 22.9678 16.4452 22.7644 17 22.41V40.55C17.0026 41.1379 17.1212 41.7194 17.3489 42.2614C17.5766 42.8034 17.9089 43.2951 18.3269 43.7085C18.7449 44.1218 19.2403 44.4487 19.7848 44.6703C20.3293 44.8919 20.9122 45.004 21.5 45C22.1726 44.9978 22.8362 44.8448 23.4419 44.5524C24.0476 44.2599 24.58 43.8354 25 43.31C25.42 43.8354 25.9524 44.2599 26.5581 44.5524C27.1638 44.8448 27.8274 44.9978 28.5 45C29.0879 45.004 29.6707 44.8919 30.2152 44.6703C30.7597 44.4487 31.2551 44.1218 31.6731 43.7085C32.0911 43.2951 32.4235 42.8034 32.6512 42.2614C32.8788 41.7194 32.9974 41.1379 33 40.55V22.26C33.6582 22.6493 34.4162 22.8371 35.18 22.8ZM48 29C48 29.5933 47.8241 30.1734 47.4944 30.6667C47.1648 31.1601 46.6962 31.5446 46.1481 31.7716C45.5999 31.9987 44.9967 32.0581 44.4147 31.9424C43.8328 31.8266 43.2982 31.5409 42.8787 31.1213C42.4591 30.7018 42.1734 30.1672 42.0577 29.5853C41.9419 29.0033 42.0013 28.4001 42.2284 27.852C42.4554 27.3038 42.84 26.8352 43.3333 26.5056C43.8266 26.176 44.4067 26 45 26C45.7957 26 46.5587 26.3161 47.1213 26.8787C47.6839 27.4413 48 28.2044 48 29ZM8.00001 29C8.00001 29.5933 7.82406 30.1734 7.49442 30.6667C7.16478 31.1601 6.69624 31.5446 6.14806 31.7716C5.59988 31.9987 4.99668 32.0581 4.41474 31.9424C3.8328 31.8266 3.29825 31.5409 2.87869 31.1213C2.45913 30.7018 2.17341 30.1672 2.05766 29.5853C1.9419 29.0033 2.00131 28.4001 2.22837 27.852C2.45544 27.3038 2.83995 26.8352 3.3333 26.5056C3.82665 26.176 4.40667 26 5.00001 26C5.79566 26 6.55872 26.3161 7.12133 26.8787C7.68394 27.4413 8.00001 28.2044 8.00001 29ZM23.11 13.29L24.46 5.94001C24.6387 5.97043 24.819 5.99046 25 6.00001C25.181 5.99046 25.3613 5.97043 25.54 5.94001L26.88 13.28C26.9309 13.548 26.9066 13.8249 26.81 14.08L25 17.74L23.21 14.12C23.1008 13.8579 23.0662 13.5706 23.11 13.29ZM25.88 3.79001C25.5756 3.93919 25.2382 4.00852 24.8995 3.99149C24.5609 3.97446 24.2322 3.87163 23.9443 3.69266C23.6563 3.51368 23.4186 3.26444 23.2534 2.96836C23.0882 2.67227 23.001 2.33905 23 2.00001H27C26.9989 2.37315 26.8934 2.73853 26.6955 3.05486C26.4976 3.37118 26.2151 3.62583 25.88 3.79001ZM31 40.55C31.0013 40.8736 30.9363 41.1941 30.8091 41.4916C30.6818 41.7891 30.4949 42.0574 30.26 42.28C30.0298 42.5117 29.7554 42.6948 29.453 42.8185C29.1507 42.9422 28.8266 43.0039 28.5 43C27.844 43.0053 27.2126 42.7505 26.744 42.2913C26.2754 41.8321 26.0079 41.206 26 40.55V24C26 23.7348 25.8947 23.4804 25.7071 23.2929C25.5196 23.1054 25.2652 23 25 23C24.7348 23 24.4804 23.1054 24.2929 23.2929C24.1054 23.4804 24 23.7348 24 24V40.55C23.9921 41.206 23.7246 41.8321 23.256 42.2913C22.7875 42.7505 22.156 43.0053 21.5 43C21.1711 43.0034 20.8448 42.9405 20.5407 42.8151C20.2367 42.6896 19.9609 42.5043 19.73 42.27C19.4977 42.0481 19.3131 41.7811 19.1875 41.4853C19.062 41.1896 18.9982 40.8713 19 40.55V12C19 11.7348 18.8947 11.4804 18.7071 11.2929C18.5196 11.1054 18.2652 11 18 11C17.7348 11 17.4804 11.1054 17.2929 11.2929C17.1054 11.4804 17 11.7348 17 12V18.81C17.0181 19.349 16.831 19.8748 16.4765 20.2813C16.122 20.6878 15.6265 20.9446 15.09 21C14.5635 21.0219 14.0495 20.835 13.66 20.48C13.4528 20.293 13.2871 20.0647 13.1734 19.8098C13.0597 19.555 13.0007 19.2791 13 19V7.66001C12.9978 6.55219 13.322 5.46826 13.932 4.5435C14.542 3.61874 15.4108 2.8941 16.43 2.46001C17.1322 2.14992 17.8924 1.9931 18.66 2.00001H21C21.0011 2.6134 21.1433 3.21832 21.4155 3.76799C21.6878 4.31767 22.0828 4.79737 22.57 5.17001L21.14 13C21.0295 13.6768 21.1163 14.3712 21.39 15L24.1 20.48C24.1819 20.6491 24.3097 20.7917 24.4689 20.8914C24.6281 20.9912 24.8122 21.0441 25 21.0441C25.1879 21.0441 25.3719 20.9912 25.5311 20.8914C25.6903 20.7917 25.8181 20.6491 25.9 20.48L28.63 14.96C28.8964 14.3289 28.9728 13.6339 28.85 12.96L27.43 5.20001C27.9213 4.8243 28.3187 4.33979 28.5911 3.78455C28.8636 3.22931 29.0035 2.61846 29 2.00001H31.34C32.1076 1.9931 32.8678 2.14992 33.57 2.46001C34.5892 2.8941 35.4581 3.61874 36.0681 4.5435C36.678 5.46826 37.0022 6.55219 37 7.66001V19C37.0106 19.2619 36.959 19.5225 36.8495 19.7607C36.74 19.9988 36.5757 20.2076 36.37 20.37C35.9968 20.6399 35.5504 20.7898 35.09 20.8C34.8199 20.8122 34.5501 20.7694 34.297 20.6744C34.0438 20.5793 33.8126 20.434 33.6173 20.247C33.4219 20.0601 33.2665 19.8355 33.1604 19.5867C33.0543 19.338 32.9997 19.0704 33 18.8V12C33 11.7348 32.8947 11.4804 32.7071 11.2929C32.5196 11.1054 32.2652 11 32 11C31.7348 11 31.4804 11.1054 31.2929 11.2929C31.1054 11.4804 31 11.7348 31 12V40.55Z" fill="#0053AD"/>
</svg>