<svg xmlns="http://www.w3.org/2000/svg" width="64" height="64" viewBox="0 0 64 64" fill="none">
  <path d="M4 19.77H12V24H4V39.79H12V44.23H4V60H37.56V58H6V46.23H27.62V44.23H14V39.79H26.91V37.79H6V26H36.38V24H14V19.77H50V25H52V19.77H60V4H4V19.77ZM6 6H58V17.77H6V6Z" fill="#0053AD"/>
  <path d="M52.52 26.0195H58V28.7895H60V24.0195H52.52V26.0195Z" fill="#0053AD"/>
  <path d="M8.5 15.2403H16V8.53027H8.5V15.2403ZM10.5 10.5303H14V13.2403H10.5V10.5303Z" fill="#0053AD"/>
  <path d="M16 35.26V28.55H8.5V35.26H16ZM10.5 30.55H14V33.26H10.5V30.55Z" fill="#0053AD"/>
  <path d="M18.0898 15.2403H25.5498V8.53027H18.0898V15.2403ZM20.0898 10.5303H23.5498V13.2403H20.0898V10.5303Z" fill="#0053AD"/>
  <path d="M25.5501 35.26V28.55H18.0901V35.26H25.5501ZM20.0901 30.55H23.5501V33.26H20.0901V30.55Z" fill="#0053AD"/>
  <path d="M29.0698 8.53027H36.0698V10.5303H29.0698V8.53027Z" fill="#0053AD"/>
  <path d="M37.5601 8.53027H39.8501V10.5303H37.5601V8.53027Z" fill="#0053AD"/>
  <path d="M58.0001 57.9997H51.3501V59.9997H60.0001V50.9697H58.0001V57.9997Z" fill="#0053AD"/>
  <path d="M16 55.47V48.76H8.5V55.47H16ZM10.5 50.76H14V53.47H10.5V50.76Z" fill="#0053AD"/>
  <path d="M25.5501 55.47V48.76H18.0901V55.47H25.5501ZM20.0901 50.76H23.5501V53.47H20.0901V50.76Z" fill="#0053AD"/>
  <path d="M28.9102 31.6904V39.5604C28.9102 43.1104 30.0002 55.1004 44.1302 60.0004L44.4502 60.1104L44.7802 60.0004C58.9002 55.1004 60.0002 43.1104 60.0002 39.5604V31.6904L44.4502 22.6904L28.9102 31.6904ZM58.0002 39.5604C58.0002 42.7504 57.0002 53.4504 44.4502 57.9404C31.8902 53.4504 30.9102 42.7504 30.9102 39.5604V32.8404L44.4502 25.0004L58.0002 32.8404V39.5604Z" fill="#0053AD"/>
  <path d="M37.0401 40.17L35.6201 41.58L42.5201 48.48L53.2801 37.72L51.8601 36.3L42.5201 45.65L37.0401 40.17Z" fill="#0053AD"/>
</svg>