<svg width="64" height="64" viewBox="0 0 64 64" fill="none" xmlns="http://www.w3.org/2000/svg">
<g id="standard 1">
<path id="Vector" d="M41.6091 58.6244H13.6411C12.6558 58.6232 11.7111 58.2311 11.0145 57.5343C10.3179 56.8374 9.92614 55.8926 9.92529 54.9072V15.6432C9.92631 14.658 10.3181 13.7134 11.0147 13.0166C11.7113 12.3199 12.6559 11.9279 13.6411 11.9268H17.9983C18.2698 11.9268 18.5303 12.0346 18.7223 12.2267C18.9144 12.4187 19.0223 12.6792 19.0223 12.9508C19.0223 13.2223 18.9144 13.4828 18.7223 13.6748C18.5303 13.8669 18.2698 13.9748 17.9983 13.9748H13.6437C13.2014 13.9753 12.7774 14.1512 12.4647 14.464C12.152 14.7769 11.9762 15.2009 11.9759 15.6432V54.9072C11.9762 55.3496 12.152 55.7737 12.4646 56.0867C12.7773 56.3996 13.2013 56.5757 13.6437 56.5764H41.6117C42.0541 56.5757 42.4782 56.3996 42.791 56.0867C43.1037 55.7738 43.2797 55.3496 43.2802 54.9072V52.3383C43.2802 52.0667 43.3881 51.8062 43.5801 51.6142C43.7721 51.4222 44.0326 51.3143 44.3042 51.3143C44.5758 51.3143 44.8362 51.4222 45.0283 51.6142C45.2203 51.8062 45.3282 52.0667 45.3282 52.3383V54.9072C45.3272 55.8931 44.9349 56.8383 44.2377 57.5352C43.5404 58.2321 42.595 58.6239 41.6091 58.6244Z" fill="#0053AD"/>
<path id="Vector_2" d="M44.3016 35.8672C44.03 35.8672 43.7696 35.7594 43.5776 35.5673C43.3855 35.3753 43.2776 35.1148 43.2776 34.8432V15.6432C43.2771 15.2009 43.1012 14.7768 42.7884 14.464C42.4756 14.1512 42.0515 13.9753 41.6091 13.9748H37.252C36.9804 13.9748 36.72 13.8669 36.5279 13.6748C36.3359 13.4828 36.228 13.2223 36.228 12.9508C36.228 12.6792 36.3359 12.4187 36.5279 12.2267C36.72 12.0346 36.9804 11.9268 37.252 11.9268H41.6091C42.5945 11.9279 43.5391 12.3199 44.2358 13.0166C44.9325 13.7133 45.3244 14.6579 45.3256 15.6432V34.8432C45.3256 35.1148 45.2177 35.3753 45.0257 35.5673C44.8337 35.7594 44.5732 35.8672 44.3016 35.8672Z" fill="#0053AD"/>
<path id="Vector_3" d="M36.0653 17.2064H19.1872C18.7545 17.2063 18.3283 17.1016 17.9448 16.9012C17.5613 16.7008 17.232 16.4107 16.9849 16.0555C16.7377 15.7003 16.5802 15.2906 16.5256 14.8614C16.471 14.4322 16.521 13.9961 16.6714 13.5904L17.8381 10.4448C18.0297 9.93222 18.3729 9.49016 18.822 9.17747C19.2711 8.86477 19.8048 8.69627 20.352 8.69439H21.7882C21.9566 8.69422 22.118 8.6273 22.2371 8.50829C22.3563 8.38928 22.4234 8.2279 22.4237 8.05951C22.4249 7.34794 22.7082 6.66587 23.2114 6.16283C23.7147 5.6598 24.3969 5.37684 25.1085 5.37599H30.144C30.8554 5.37718 31.5372 5.66028 32.0402 6.16329C32.5432 6.66629 32.8263 7.34816 32.8275 8.05951C32.8277 8.22784 32.8946 8.38923 33.0137 8.50825C33.1327 8.62728 33.2941 8.69422 33.4624 8.69439H34.8992C35.4467 8.69597 35.9808 8.86433 36.4303 9.17704C36.8797 9.48974 37.2232 9.93196 37.4151 10.4448L38.5811 13.5904C38.7316 13.9961 38.7818 14.4322 38.7273 14.8615C38.6727 15.2908 38.5152 15.7005 38.268 16.0558C38.0209 16.411 37.6915 16.7011 37.3079 16.9015C36.9244 17.1019 36.498 17.2065 36.0653 17.2064ZM20.352 10.7424C20.2225 10.743 20.0961 10.7829 19.9897 10.8568C19.8834 10.9308 19.8019 11.0353 19.7562 11.1565L18.592 14.3021C18.5563 14.3981 18.5443 14.5014 18.5571 14.603C18.57 14.7047 18.6072 14.8017 18.6657 14.8859C18.7242 14.97 18.8022 15.0387 18.893 15.0862C18.9838 15.1337 19.0847 15.1584 19.1872 15.1584H36.0653C36.1678 15.1584 36.2687 15.1336 36.3595 15.0861C36.4503 15.0387 36.5283 14.97 36.5869 14.8859C36.6454 14.8017 36.6827 14.7047 36.6956 14.6031C36.7086 14.5014 36.6967 14.3982 36.6611 14.3021L35.4944 11.1565C35.4487 11.0354 35.3674 10.9309 35.2611 10.857C35.1548 10.7831 35.0287 10.7431 34.8992 10.7424H33.4624C32.7513 10.741 32.0697 10.4579 31.5668 9.9551C31.064 9.45225 30.7809 8.77064 30.7795 8.05951C30.7794 7.89101 30.7124 7.72947 30.5932 7.61032C30.4741 7.49117 30.3125 7.42416 30.144 7.42399H25.1085C24.9401 7.42416 24.7786 7.49119 24.6595 7.61036C24.5405 7.72952 24.4736 7.89107 24.4736 8.05951C24.4723 8.77075 24.1891 9.45246 23.6861 9.95533C23.1831 10.4582 22.5013 10.7412 21.7901 10.7424H20.352Z" fill="#0053AD"/>
<path id="Vector_4" d="M33.1518 13.9767H22.0977C21.8261 13.9767 21.5657 13.8688 21.3737 13.6768C21.1816 13.4848 21.0737 13.2243 21.0737 12.9527C21.0737 12.6811 21.1816 12.4207 21.3737 12.2286C21.5657 12.0366 21.8261 11.9287 22.0977 11.9287H33.1518C33.4234 11.9287 33.6839 12.0366 33.8759 12.2286C34.0679 12.4207 34.1758 12.6811 34.1758 12.9527C34.1758 13.2243 34.0679 13.4848 33.8759 13.6768C33.6839 13.8688 33.4234 13.9767 33.1518 13.9767Z" fill="#0053AD"/>
<path id="Vector_5" d="M29.0023 10.6534H26.2503C25.9787 10.6534 25.7183 10.5456 25.5262 10.3535C25.3342 10.1615 25.2263 9.90102 25.2263 9.62944C25.2263 9.35786 25.3342 9.0974 25.5262 8.90536C25.7183 8.71332 25.9787 8.60544 26.2503 8.60544H29.0023C29.2739 8.60544 29.5344 8.71332 29.7264 8.90536C29.9184 9.0974 30.0263 9.35786 30.0263 9.62944C30.0263 9.90102 29.9184 10.1615 29.7264 10.3535C29.5344 10.5456 29.2739 10.6534 29.0023 10.6534Z" fill="#0053AD"/>
<path id="Vector_6" d="M39.6928 24.5148H23.9488C23.6772 24.5148 23.4168 24.4069 23.2247 24.2149C23.0327 24.0228 22.9248 23.7624 22.9248 23.4908C22.9248 23.2192 23.0327 22.9588 23.2247 22.7667C23.4168 22.5747 23.6772 22.4668 23.9488 22.4668H39.6928C39.9644 22.4668 40.2248 22.5747 40.4169 22.7667C40.6089 22.9588 40.7168 23.2192 40.7168 23.4908C40.7168 23.7624 40.6089 24.0228 40.4169 24.2149C40.2248 24.4069 39.9644 24.5148 39.6928 24.5148Z" fill="#0053AD"/>
<path id="Vector_7" d="M39.6928 31.215H23.9488C23.6772 31.215 23.4168 31.1071 23.2247 30.9151C23.0327 30.723 22.9248 30.4626 22.9248 30.191C22.9248 29.9194 23.0327 29.659 23.2247 29.4669C23.4168 29.2749 23.6772 29.167 23.9488 29.167H39.6928C39.9644 29.167 40.2248 29.2749 40.4169 29.4669C40.6089 29.659 40.7168 29.9194 40.7168 30.191C40.7168 30.4626 40.6089 30.723 40.4169 30.9151C40.2248 31.1071 39.9644 31.215 39.6928 31.215Z" fill="#0053AD"/>
<path id="Vector_8" d="M38.6765 37.9152H23.9488C23.6772 37.9152 23.4168 37.8073 23.2247 37.6153C23.0327 37.4232 22.9248 37.1628 22.9248 36.8912C22.9248 36.6196 23.0327 36.3591 23.2247 36.1671C23.4168 35.9751 23.6772 35.8672 23.9488 35.8672H38.6765C38.9481 35.8672 39.2085 35.9751 39.4006 36.1671C39.5926 36.3591 39.7005 36.6196 39.7005 36.8912C39.7005 37.1628 39.5926 37.4232 39.4006 37.6153C39.2085 37.8073 38.9481 37.9152 38.6765 37.9152Z" fill="#0053AD"/>
<path id="Vector_9" d="M35.5539 44.6154H23.9488C23.6772 44.6154 23.4168 44.5075 23.2247 44.3155C23.0327 44.1234 22.9248 43.863 22.9248 43.5914C22.9248 43.3198 23.0327 43.0593 23.2247 42.8673C23.4168 42.6753 23.6772 42.5674 23.9488 42.5674H35.5539C35.8255 42.5674 36.086 42.6753 36.278 42.8673C36.47 43.0593 36.5779 43.3198 36.5779 43.5914C36.5779 43.863 36.47 44.1234 36.278 44.3155C36.086 44.5075 35.8255 44.6154 35.5539 44.6154Z" fill="#0053AD"/>
<path id="Vector_10" d="M38.6771 51.3156H23.9488C23.6772 51.3156 23.4168 51.2077 23.2247 51.0157C23.0327 50.8236 22.9248 50.5632 22.9248 50.2916C22.9248 50.02 23.0327 49.7595 23.2247 49.5675C23.4168 49.3755 23.6772 49.2676 23.9488 49.2676H38.6771C38.9487 49.2676 39.2092 49.3755 39.4012 49.5675C39.5932 49.7595 39.7011 50.02 39.7011 50.2916C39.7011 50.5632 39.5932 50.8236 39.4012 51.0157C39.2092 51.2077 38.9487 51.3156 38.6771 51.3156Z" fill="#0053AD"/>
<path id="Vector_11" d="M17.127 26.0371C16.8555 26.037 16.5951 25.929 16.4032 25.737L14.8358 24.1696C14.6436 23.9775 14.5355 23.717 14.5354 23.4453C14.5353 23.1735 14.6431 22.9129 14.8352 22.7206C15.0272 22.5284 15.2878 22.4204 15.5595 22.4202C15.8313 22.4201 16.0919 22.5279 16.2841 22.72L17.127 23.5635L19.4464 21.248C19.6384 21.0559 19.8989 20.948 20.1705 20.948C20.4421 20.948 20.7026 21.0559 20.8947 21.248C21.0868 21.4401 21.1946 21.7005 21.1946 21.9722C21.1946 22.2438 21.0868 22.5043 20.8947 22.6963L17.8515 25.7395C17.659 25.9308 17.3984 26.0378 17.127 26.0371Z" fill="#0053AD"/>
<path id="Vector_12" d="M17.127 32.7366C16.8556 32.7367 16.5953 32.6289 16.4032 32.4371L14.8358 30.8698C14.6438 30.6777 14.5359 30.4172 14.5359 30.1456C14.5359 29.874 14.6438 29.6135 14.8358 29.4214C15.0279 29.2294 15.2884 29.1215 15.56 29.1215C15.8316 29.1215 16.0921 29.2294 16.2842 29.4214L17.127 30.265L19.4464 27.9456C19.6393 27.7581 19.8983 27.6541 20.1672 27.656C20.4362 27.658 20.6937 27.7656 20.8839 27.9558C21.0742 28.1459 21.1819 28.4033 21.184 28.6723C21.186 28.9413 21.0821 29.2003 20.8947 29.3933L17.8515 32.4371C17.7564 32.5322 17.6434 32.6076 17.5191 32.659C17.3948 32.7103 17.2616 32.7367 17.127 32.7366Z" fill="#0053AD"/>
<path id="Vector_13" d="M17.127 39.4368C16.8555 39.4367 16.5951 39.3287 16.4032 39.1366L14.8358 37.568C14.7407 37.4729 14.6653 37.36 14.6138 37.2358C14.5624 37.1115 14.5359 36.9783 14.5359 36.8438C14.5359 36.7094 14.5624 36.5762 14.6138 36.4519C14.6653 36.3277 14.7407 36.2148 14.8358 36.1197C14.9309 36.0246 15.0438 35.9492 15.1681 35.8977C15.2923 35.8462 15.4255 35.8197 15.56 35.8197C15.6945 35.8197 15.8277 35.8462 15.9519 35.8977C16.0762 35.9492 16.1891 36.0246 16.2842 36.1197L17.127 36.9626L19.4464 34.6432C19.6391 34.4511 19.9001 34.3435 20.1722 34.3439C20.4442 34.3443 20.7049 34.4528 20.897 34.6454C21.089 34.8381 21.1967 35.0992 21.1963 35.3712C21.1958 35.6432 21.0874 35.9039 20.8947 36.096L17.8515 39.1398C17.6589 39.3309 17.3983 39.4377 17.127 39.4368Z" fill="#0053AD"/>
<path id="Vector_14" d="M17.1271 46.137C16.8556 46.1368 16.5952 46.0289 16.4033 45.8368L14.8359 44.2694C14.6485 44.0764 14.5446 43.8175 14.5467 43.5485C14.5487 43.2795 14.6565 43.0221 14.8467 42.8319C15.037 42.6418 15.2944 42.5341 15.5634 42.5322C15.8324 42.5303 16.0913 42.6343 16.2842 42.8218L17.1271 43.6646L19.4465 41.344C19.6385 41.1519 19.899 41.044 20.1706 41.044C20.4422 41.044 20.7027 41.1519 20.8948 41.344C21.0868 41.5361 21.1947 41.7965 21.1947 42.0682C21.1947 42.3398 21.0868 42.6003 20.8948 42.7923L17.8516 45.8368C17.7565 45.932 17.6435 46.0075 17.5192 46.059C17.3949 46.1105 17.2616 46.137 17.1271 46.137Z" fill="#0053AD"/>
<path id="Vector_15" d="M17.1268 52.8375C16.8553 52.8373 16.5949 52.7294 16.403 52.5373L14.8356 50.9699C14.6435 50.7779 14.5356 50.5174 14.5356 50.2458C14.5356 49.9742 14.6435 49.7137 14.8356 49.5216C15.0277 49.3296 15.2881 49.2217 15.5598 49.2217C15.8314 49.2217 16.0919 49.3296 16.2839 49.5216L17.1268 50.3683L19.4462 48.049C19.5413 47.9539 19.6542 47.8784 19.7784 47.827C19.9027 47.7755 20.0358 47.749 20.1703 47.749C20.3048 47.749 20.438 47.7755 20.5622 47.827C20.6865 47.8784 20.7994 47.9539 20.8945 48.049C20.9896 48.1441 21.065 48.257 21.1165 48.3812C21.1679 48.5055 21.1944 48.6387 21.1944 48.7731C21.1944 48.9076 21.1679 49.0408 21.1165 49.1651C21.065 49.2893 20.9896 49.4022 20.8945 49.4973L17.8513 52.5405C17.6587 52.7316 17.3981 52.8384 17.1268 52.8375Z" fill="#0053AD"/>
<path id="Vector_16" d="M44.3015 53.3626C38.9134 53.3626 34.53 48.9792 34.53 43.591C34.53 38.2029 38.9121 33.8202 44.3015 33.8202C49.691 33.8202 54.0724 38.2035 54.0724 43.591C54.0724 48.9786 49.6891 53.3626 44.3015 53.3626ZM44.3015 35.8682C42.7739 35.868 41.2806 36.3209 40.0103 37.1695C38.7401 38.0182 37.7501 39.2244 37.1654 40.6357C36.5808 42.047 36.4278 43.6 36.7258 45.0983C37.0238 46.5966 37.7594 47.9728 38.8396 49.053C39.9197 50.1332 41.296 50.8688 42.7943 51.1668C44.2926 51.4648 45.8456 51.3118 47.2569 50.7272C48.6682 50.1425 49.8744 49.1525 50.723 47.8822C51.5717 46.612 52.0246 45.1187 52.0244 43.591C52.0221 41.5435 51.2076 39.5806 49.7598 38.1328C48.312 36.685 46.3491 35.8705 44.3015 35.8682Z" fill="#0053AD"/>
<path id="Vector_17" d="M43.2199 47.0496C42.9484 47.0495 42.688 46.9415 42.4961 46.7494L39.7902 44.0435C39.5981 43.8515 39.4902 43.591 39.4902 43.3194C39.4902 43.0477 39.5981 42.7873 39.7902 42.5952C39.9822 42.4031 40.2427 42.2952 40.5143 42.2952C40.786 42.2952 41.0464 42.4031 41.2385 42.5952L43.2225 44.5792L47.3671 40.4346C47.5592 40.2425 47.8197 40.1346 48.0913 40.1346C48.3629 40.1346 48.6234 40.2425 48.8155 40.4346C49.0075 40.6266 49.1154 40.8871 49.1154 41.1587C49.1154 41.4303 49.0075 41.6908 48.8155 41.8829L43.947 46.7514C43.8514 46.8465 43.738 46.9218 43.6132 46.973C43.4885 47.0242 43.3548 47.0502 43.2199 47.0496Z" fill="#0053AD"/>
</g>
</svg>
