<svg xmlns="http://www.w3.org/2000/svg" width="64" height="64" viewBox="0 0 64 64" fill="none">
  <g clip-path="url(#clip0_640_430)">
    <path d="M40.5533 63.9996C40.5079 63.9996 40.4626 63.9966 40.4172 63.9905L39.8421 63.9139H23.4464C23.1702 63.9139 22.9056 63.8035 22.7116 63.6065C22.5175 63.4094 22.4101 63.1428 22.4142 62.866L22.4999 57.1508C22.4999 52.2773 26.9293 50.0137 29.6112 49.427C30.6324 49.0712 33.4091 49.0238 34.4918 49.4306C37.1748 50.0218 41.5866 52.2884 41.5866 57.1659V62.9673C41.5866 63.2647 41.4585 63.5485 41.2337 63.7436C41.0447 63.9099 40.8023 63.9996 40.5533 63.9996ZM24.4943 61.8494H39.522V57.1659C39.522 52.6407 34.1984 51.4774 33.9716 51.43C33.8744 51.4094 33.7816 51.3761 33.6949 51.3297C33.2347 51.1574 30.8502 51.1695 30.3224 51.3625C30.2761 51.3791 30.1637 51.4195 30.1153 51.4285C29.888 51.4764 24.5644 52.6397 24.5644 57.1649L24.4943 61.8494Z" fill="#0053AD"/>
    <path d="M31.9999 47.5272C29.0725 47.5272 26.6909 45.1376 26.6909 42.1986C26.6909 39.2601 29.0725 36.869 31.9999 36.869C34.9273 36.869 37.3089 39.2601 37.3089 42.1986C37.3089 45.1376 34.9273 47.5272 31.9999 47.5272ZM31.9999 38.9335C30.2121 38.9335 28.7554 40.3987 28.7554 42.1986C28.7554 43.998 30.2111 45.4627 31.9999 45.4627C33.7887 45.4627 35.2443 43.998 35.2443 42.1986C35.2443 40.3987 33.7877 38.9335 31.9999 38.9335Z" fill="#0053AD"/>
    <path d="M61.9356 64C61.8902 64 61.8448 63.997 61.7985 63.9909L61.2254 63.9143H44.8302C44.5535 63.9143 44.2894 63.8039 44.0953 63.6069C43.9013 63.4098 43.7939 63.1432 43.798 62.8664L43.8836 57.1512C43.8836 52.2777 48.3131 50.0141 50.9945 49.4274C52.0157 49.0706 54.7924 49.0232 55.8741 49.432C58.556 50.0222 62.9678 52.2878 62.9678 57.1663V62.9678C62.9678 63.2651 62.8398 63.5489 62.615 63.745C62.427 63.9103 62.1846 64 61.9356 64ZM45.8766 61.8498H60.9033V57.1663C60.9033 52.6411 55.5802 51.4778 55.3529 51.4305C55.2561 51.4098 55.1619 51.3765 55.0752 51.3291C54.617 51.1588 52.2324 51.1709 51.7047 51.3619C51.6583 51.3795 51.5459 51.4199 51.4976 51.4289C51.2702 51.4768 45.9472 52.6391 45.9472 57.1653L45.8766 61.8498Z" fill="#0053AD"/>
    <path d="M53.382 47.5272C50.4545 47.5272 48.0735 45.1376 48.0735 42.1986C48.0735 39.2601 50.4545 36.869 53.382 36.869C56.3099 36.869 58.6919 39.2601 58.6919 42.1986C58.6919 45.1376 56.3099 47.5272 53.382 47.5272ZM53.382 38.9335C51.5942 38.9335 50.138 40.3987 50.138 42.1986C50.138 43.998 51.5931 45.4627 53.382 45.4627C55.1713 45.4627 56.6274 43.998 56.6274 42.1986C56.6264 40.3987 55.1713 38.9335 53.382 38.9335Z" fill="#0053AD"/>
    <path d="M19.1704 64C19.1251 64 19.0792 63.997 19.0328 63.9909L18.4603 63.9143H2.06459C1.78788 63.9143 1.52377 63.8039 1.32972 63.6069C1.13566 63.4098 1.0283 63.1432 1.03234 62.8664L1.11802 57.1512C1.11802 52.2777 5.54746 50.0141 8.22941 49.4274C9.24907 49.0706 12.0268 49.0232 13.109 49.432C15.7919 50.0222 20.2037 52.2888 20.2037 57.1663V62.9678C20.2037 63.2651 20.0757 63.5489 19.8504 63.745C19.6614 63.9103 19.4189 64 19.1704 64ZM3.11248 61.8498H18.1392V57.1663C18.1392 52.6401 12.8156 51.4778 12.5888 51.4305C12.4915 51.4098 12.3978 51.3765 12.3111 51.3291C11.8524 51.1588 9.46782 51.1709 8.9406 51.3619C8.89423 51.3795 8.78183 51.4199 8.73294 51.4289C8.50613 51.4768 3.18254 52.6391 3.18254 57.1653L3.11248 61.8498Z" fill="#0053AD"/>
    <path d="M10.6178 47.5272C7.69042 47.5272 5.30786 45.1376 5.30786 42.1986C5.30786 39.2601 7.69042 36.869 10.6178 36.869C13.5453 36.869 15.9268 39.2601 15.9268 42.1986C15.9268 45.1376 13.5453 47.5272 10.6178 47.5272ZM10.6178 38.9335C8.82903 38.9335 7.37238 40.3987 7.37238 42.1986C7.37238 43.998 8.82802 45.4627 10.6178 45.4627C12.4056 45.4627 13.8623 43.998 13.8623 42.1986C13.8623 40.3987 12.4067 38.9335 10.6178 38.9335Z" fill="#0053AD"/>
    <path d="M38.8408 12.7072H40.9053V23.2248H38.8408V12.7072Z" fill="#0053AD"/>
    <path d="M43.0061 16.4844H45.0706V23.2248H43.0061V16.4844Z" fill="#0053AD"/>
    <path d="M47.0198 13.371H49.0843V23.2248H47.0198V13.371Z" fill="#0053AD"/>
    <path d="M52.5557 5.40332H54.6202V23.2244H52.5557V5.40332Z" fill="#0053AD"/>
    <path d="M58.9213 27.8493H28.9268C28.3562 27.8493 27.8945 27.3881 27.8945 26.817C27.8945 26.246 28.3562 25.7848 28.9268 25.7848H57.889V2.06452H23.2166V20.7908C23.2166 21.3614 22.7549 21.8231 22.1844 21.8231C21.6133 21.8231 21.1521 21.3614 21.1521 20.7908V1.03226C21.1521 0.46119 21.6133 0 22.1844 0H58.9213C59.4923 0 59.9535 0.46119 59.9535 1.03226V26.817C59.9535 27.3866 59.4923 27.8493 58.9213 27.8493Z" fill="#0053AD"/>
    <path d="M13.1199 13.309C9.92736 13.309 7.33008 10.7016 7.33008 7.49547C7.33008 4.29134 9.92836 1.68246 13.1199 1.68246C16.3119 1.68246 18.9102 4.28982 18.9102 7.49547C18.9102 10.7006 16.3129 13.309 13.1199 13.309ZM13.1199 3.74698C11.066 3.74698 9.39459 5.42843 9.39459 7.49547C9.39459 9.56301 11.066 11.2445 13.1199 11.2445C15.1743 11.2445 16.8457 9.56301 16.8457 7.49547C16.8457 5.42843 15.1743 3.74698 13.1199 3.74698Z" fill="#0053AD"/>
    <path d="M18.8425 35.2119H7.73162C7.16055 35.2119 6.69936 34.7507 6.69936 34.1796V32.6075C6.22355 32.7583 5.70944 32.7885 5.20037 32.6832C3.83999 32.4085 2.85107 31.1645 2.85107 29.7285V24.7285C2.85107 21.8762 3.70138 19.1262 5.31176 16.7769C5.87325 15.9573 6.61771 15.3359 7.46196 14.981C8.33041 14.6156 9.24674 14.4316 10.1903 14.4316H16.3591C16.5119 14.4316 16.6646 14.4377 16.8163 14.4503C18.53 14.5884 20.1394 15.601 21.1207 17.159L23.4403 20.847L28.0245 23.3455C29.6011 24.2053 30.3481 26.0209 29.8012 27.662C29.4851 28.6075 28.8163 29.357 27.9161 29.7719C27.0345 30.1806 26.0078 30.2048 25.1046 29.8394C25.0673 29.8248 25.031 29.8071 24.9972 29.7875L19.8974 26.9982L19.8758 34.1842C19.8727 34.7517 19.4116 35.2119 18.8425 35.2119ZM8.76388 33.1474H17.8138L17.8365 25.2547L17.8415 23.6443C17.8435 23.0748 18.3047 22.6156 18.8738 22.6156H18.8768C19.4463 22.6176 19.906 23.0788 19.906 23.6479V23.6509L19.903 24.6469L25.9262 27.9417C26.2966 28.0783 26.6928 28.0607 27.0502 27.8943C27.4282 27.721 27.7099 27.4049 27.843 27.0067C28.0698 26.3263 27.7231 25.5304 27.0366 25.1559L22.216 22.5289C22.0613 22.4442 21.9312 22.3223 21.8365 22.1716L19.3722 18.2562C18.7362 17.2457 17.7175 16.5924 16.649 16.5067C16.5522 16.4982 16.4549 16.4941 16.3581 16.4941H10.1893C9.52245 16.4941 8.87527 16.6252 8.26186 16.8822C7.78303 17.0823 7.35158 17.4498 7.01488 17.9412C5.6414 19.9473 4.91559 22.2935 4.91559 24.7265V29.7285C4.91559 30.1796 5.21499 30.5803 5.61116 30.66C5.98515 30.7351 6.24724 30.5803 6.36771 30.481C6.57839 30.3087 6.69936 30.0526 6.69936 29.7794V22.9125C6.69936 22.3419 7.16055 21.8802 7.73162 21.8802C8.30218 21.8802 8.76388 22.3419 8.76388 22.9125V33.1474Z" fill="#0053AD"/>
    <path d="M26.3687 24.1328L33.3384 13.7891L35.0496 14.9423L28.0798 25.286L26.3687 24.1328Z" fill="#0053AD"/>
  </g>
  <defs>
    <clipPath id="clip0_640_430">
      <rect width="64" height="64" fill="white"/>
    </clipPath>
  </defs>
</svg>