<svg xmlns="http://www.w3.org/2000/svg" xmlns:xlink="http://www.w3.org/1999/xlink" width="24" height="24" viewBox="0 0 24 24"><defs><style>.a{fill:#fff;}.b{clip-path:url(#a);}</style><clipPath id="a"><rect class="a" width="24" height="24" rx="2"/></clipPath></defs><g class="b"><path class="a" d="M25.285,4.5H5.715A1.215,1.215,0,0,0,4.5,5.715V25.285A1.215,1.215,0,0,0,5.715,26.5H15.5V17.792H12.87V14.583H15.5V12.211a4.18,4.18,0,0,1,4.509-4.389c1.215,0,2.521.092,2.824.132v2.968H20.811c-1.381,0-1.644.653-1.644,1.616v2.045h3.289l-.43,3.208H19.167V26.5h6.119A1.215,1.215,0,0,0,26.5,25.285V5.715A1.215,1.215,0,0,0,25.285,4.5Z" transform="translate(-3.5 -3.5)"/></g></svg>