<svg width="48" height="48" viewBox="0 0 48 48" fill="none" xmlns="http://www.w3.org/2000/svg">
<circle cx="24" cy="24" r="24" fill="#FF7F11"/>
<path d="M20.1208 17.2441L20.4866 16.8374L21.3804 15.7811L22.7625 15.0086L23.0059 14.6019L23.2497 13.911V13.3421L23.6563 12.8946L23.9002 12.3257H24.3879L25.2818 12.7727L25.8492 13.7483L25.9308 14.8867L27.2716 15.6184L28.0455 16.1873L28.7363 17.0813L29.549 18.9917L29.8745 20.2112L30.0775 21.6746L30.2806 23.0564L30.9714 23.6676L31.3372 24.7239L31.703 25.7398L31.8249 26.8364L31.3372 27.812L30.6464 28.4621L29.7525 28.6249L29.5898 29.3566L29.1832 30.3725L28.3301 31.389L27.395 32.2018L26.1373 32.6896L24.7149 33.0555H22.3967L20.6896 32.8519L18.7387 32.2018L17.601 31.6329L16.7882 31.0615L16.2194 30.6164L15.65 29.9255L15.2439 29.3566L15.4066 28.5029L16.0974 28.0963V27.487L16.3816 26.5114L16.951 25.373L17.479 24.4382L18.0071 23.6662L18.5351 23.1784L18.9417 22.8937V22.2028L19.0637 21.3899L19.1856 20.0893L19.4295 18.9917L19.7545 17.9758L20.1208 17.2441Z" fill="white" stroke="#FFA2A2"/>
<path d="M31.9809 26.0347V26.0102C31.8972 25.1917 31.6407 24.4002 31.2282 23.6883C31.1134 23.4918 30.9819 23.3057 30.835 23.1319C30.7822 23.0698 30.7172 23.0192 30.644 22.9833C30.5709 22.9474 30.4911 22.9268 30.4097 22.923C30.4054 22.875 30.4006 22.8236 30.3958 22.7742C30.3665 22.4659 30.3338 22.1644 30.2998 21.8715C30.2906 21.7986 30.2825 21.7275 30.2738 21.654L30.2542 21.4975C30.255 21.4812 30.2527 21.4649 30.2474 21.4495C30.2436 21.4145 30.2388 21.3799 30.234 21.3448C30.2327 21.3251 30.23 21.3056 30.2258 21.2863C30.2215 21.2546 30.2167 21.2234 30.2129 21.1902C30.209 21.1571 30.2071 21.1504 30.2038 21.1302C30.2004 21.1101 30.1946 21.0693 30.1898 21.0385C30.185 21.0078 30.1841 20.9996 30.1812 20.9799C30.1759 20.9483 30.1711 20.9166 30.1654 20.8839C30.1643 20.8663 30.1615 20.8487 30.1572 20.8316C30.1509 20.7937 30.1452 20.7562 30.1389 20.7197C30.1378 20.7087 30.1359 20.6978 30.1332 20.6871C30.125 20.6391 30.1169 20.591 30.1077 20.543L30.1005 20.5037C30.0938 20.4696 30.0885 20.4355 30.0818 20.4024L30.0737 20.3543C30.0679 20.3251 30.0621 20.2958 30.0554 20.2674C30.0487 20.2391 30.0482 20.231 30.0449 20.2122L30.0281 20.1311C30.0237 20.1128 30.0199 20.0951 30.0165 20.0773C30.0132 20.0596 30.0045 20.0211 29.9978 19.9962C29.9911 19.9712 29.9906 19.9626 29.9873 19.9458L29.9661 19.8536C29.9645 19.8401 29.9616 19.8267 29.9575 19.8137C29.9474 19.771 29.9368 19.7278 29.9263 19.6855L29.9215 19.6649C29.9124 19.6294 29.9047 19.5934 29.8956 19.5588L29.8831 19.5141C29.8768 19.4872 29.8696 19.4604 29.8629 19.4325L29.85 19.3845C29.8428 19.3591 29.836 19.3365 29.8298 19.3096C29.8236 19.2827 29.8207 19.277 29.8159 19.2616C29.8111 19.2462 29.8019 19.2136 29.7957 19.1881C29.7895 19.1627 29.7856 19.1564 29.7818 19.1401L29.7587 19.0633L29.7467 19.021C29.7371 18.9889 29.7266 18.9562 29.7165 18.925C29.7173 18.918 29.7154 18.911 29.7112 18.9053C29.6987 18.8674 29.6872 18.83 29.6752 18.7925L29.6632 18.7551C29.6541 18.7301 29.6459 18.7046 29.6378 18.6797L29.6234 18.6355C29.6152 18.6134 29.608 18.5909 29.5998 18.5683L29.584 18.5236C29.5792 18.5078 29.5686 18.4804 29.5605 18.4583L29.5451 18.4147L29.5206 18.3484C29.5158 18.3354 29.5101 18.322 29.5053 18.3081C29.5005 18.2941 29.4866 18.2601 29.477 18.2341C29.4751 18.2234 29.4712 18.2131 29.4654 18.2039C29.4525 18.1698 29.4386 18.1367 29.4256 18.1031L29.4136 18.0738L29.3843 18.0022L29.368 17.9643L29.3421 17.9033C29.3363 17.8894 29.3296 17.8764 29.3243 17.8625L29.2989 17.8054C29.2931 17.7919 29.2869 17.779 29.2811 17.765L29.2552 17.7089C29.2494 17.6959 29.2436 17.6829 29.2369 17.67C29.2302 17.657 29.2182 17.6306 29.2096 17.6104C29.2009 17.5903 29.199 17.5884 29.1932 17.5773L29.152 17.4957C29.1491 17.489 29.1462 17.4827 29.1428 17.4765L29.1044 17.4006L29.0876 17.3685L29.0593 17.3137L29.0396 17.2772L29.0118 17.2292L28.9926 17.1932C28.9835 17.1774 28.9748 17.1611 28.9647 17.1452L28.9455 17.1092C28.9355 17.0929 28.9259 17.077 28.9167 17.0612L28.8975 17.0276L28.8639 16.9666C28.8639 16.9584 28.8553 16.9512 28.851 16.944C28.8346 16.9181 28.8193 16.8922 28.803 16.8629L28.7862 16.836L28.7545 16.788L28.7338 16.7568L28.7045 16.7121L28.6834 16.6804L28.6551 16.6382L28.633 16.6065L28.6037 16.5652L28.5826 16.535C28.5721 16.5196 28.561 16.5052 28.5505 16.4903C28.5399 16.4754 28.538 16.4735 28.5317 16.4644L28.4837 16.3977L28.4693 16.378L28.4328 16.33L28.4108 16.3026L28.3805 16.2642L28.357 16.2359L28.3277 16.1998L28.3042 16.1715L28.2749 16.1365L28.2514 16.1096L28.2159 16.0741L28.1947 16.0496L28.1549 16.0059L28.1376 15.9872L28.0896 15.9343L28.0675 15.9123L28.0349 15.8782L28.0114 15.8546L27.9806 15.823L27.9561 15.7985L27.9254 15.7692L27.9009 15.7457L27.8697 15.7154L27.8462 15.6933L27.8107 15.6611L27.791 15.6434L27.7368 15.5954L27.7171 15.579L27.658 15.5277L27.6254 15.5008L27.5999 15.4806L27.5692 15.4552L27.5443 15.436L27.5121 15.4115L27.4871 15.3918L27.4531 15.3668L27.43 15.3495L27.382 15.3145L27.3618 15.2991L27.3196 15.2698L27.2956 15.254L27.2625 15.2319L27.2375 15.2146L27.2049 15.1935L27.1794 15.1772L27.1473 15.157L27.1218 15.1417L27.0887 15.1215L27.0642 15.1066L27.0253 15.0831L27.0071 15.0725L26.9514 15.0408L26.9293 15.0293L26.8933 15.0101L26.8693 14.9967L26.8357 14.9789L26.8098 14.9659L26.7781 14.9496L26.7536 14.9357L26.7205 14.9198L26.6557 14.8809L26.6346 14.8713L26.5784 14.8464L26.5606 14.8382L26.5208 14.8209L26.4973 14.8113L26.4627 14.7964L26.4377 14.7868L26.4051 14.7739L26.3801 14.7643L26.3465 14.7508L26.3225 14.7422L26.2875 14.7292L26.2644 14.7211L26.2035 14.7004L26.1507 14.6827L26.1367 14.6788C26.1973 14.3514 26.1884 14.0149 26.1108 13.6911C26.0332 13.3674 25.8884 13.0635 25.686 12.7991C25.3183 12.3133 24.7984 12.0002 24.361 12.0002C24.2543 11.9977 24.1482 12.0181 24.05 12.0602C23.9519 12.1023 23.8639 12.165 23.7922 12.2441C23.662 12.3865 23.5865 12.5704 23.579 12.7631C23.4356 12.7822 23.301 12.8435 23.1924 12.9391C23.0838 13.0348 23.006 13.1605 22.9689 13.3004C22.9395 13.4077 22.9339 13.5201 22.9526 13.6297C22.9712 13.7394 23.0137 13.8436 23.0769 13.9351C22.9012 14.0979 22.7437 14.3504 22.7265 14.7609C22.4702 14.8501 22.2213 14.9589 21.9819 15.0864C21.9267 15.1157 21.8724 15.1465 21.8196 15.1781L21.6819 15.2593C21.6487 15.2799 21.6156 15.3015 21.582 15.3236C21.4822 15.3889 21.3833 15.459 21.2844 15.5349C21.251 15.5604 21.2189 15.5877 21.1884 15.6165C21.1272 15.6651 21.0667 15.7164 21.0069 15.7701C20.9469 15.8234 20.8706 15.8935 20.8029 15.9593C20.7069 16.0553 20.6152 16.1514 20.524 16.256C20.4803 16.304 20.4371 16.3583 20.3939 16.4111C20.3507 16.4639 20.3271 16.4927 20.295 16.5374L20.2393 16.6094C20.1865 16.6808 20.1345 16.7542 20.0833 16.8298C20.0319 16.9056 19.9729 16.9997 19.9205 17.0881C19.8817 17.1534 19.8442 17.2191 19.8063 17.2868C19.7784 17.3349 19.7506 17.3881 19.7247 17.4405C19.6767 17.5365 19.6248 17.6378 19.5768 17.742C19.4856 17.9379 19.4005 18.1459 19.3214 18.3662C19.2734 18.5001 19.2254 18.6389 19.1837 18.7834C19.1544 18.8794 19.1256 18.9783 19.0982 19.0791C19.0708 19.18 19.0478 19.2736 19.0243 19.3735C19.0171 19.4042 19.0094 19.4354 19.0032 19.4695C18.9787 19.5756 18.9552 19.6855 18.934 19.7945C18.9155 19.8905 18.8979 19.988 18.8812 20.0869C18.8492 20.285 18.8199 20.4905 18.7934 20.7034C18.7652 20.9476 18.7425 21.2014 18.7252 21.4649C18.7151 21.6127 18.707 21.7577 18.6998 21.897C18.6926 22.0362 18.6858 22.1783 18.6806 22.3152C18.6753 22.452 18.6705 22.5855 18.6666 22.7166V22.803C18.5399 22.803 18.1544 22.803 17.1223 24.4906C16.5266 25.4672 16.0273 26.5119 15.8219 27.2172C15.7402 27.4847 15.6658 27.8279 15.746 28.0776H15.7378L15.6975 28.0858L15.6793 28.0896L15.6423 28.0978L15.625 28.1026L15.5852 28.1131L15.5722 28.1175C15.5549 28.1223 15.5381 28.128 15.5218 28.1343H15.5137L15.4729 28.1506L15.4575 28.1573L15.4253 28.1717L15.4095 28.1799L15.3778 28.1972L15.3644 28.2044L15.3236 28.2303C15.3096 28.2399 15.2957 28.25 15.2828 28.2605L15.2717 28.2692L15.2448 28.2927L15.2319 28.3052L15.1949 28.3417C15.1867 28.3513 15.1781 28.3614 15.1699 28.3719L15.1627 28.3815C15.1522 28.3954 15.1416 28.4094 15.1315 28.4238L15.1253 28.4343C15.1181 28.4459 15.1104 28.4579 15.1042 28.4703C15.1015 28.4758 15.0984 28.4811 15.0951 28.4862C15.0888 28.4973 15.0833 28.5089 15.0787 28.5208C15.0763 28.5269 15.0734 28.5328 15.0701 28.5385L15.0456 28.5865L15.0389 28.6038C15.0326 28.6225 15.0259 28.6417 15.0202 28.6624C15.0139 28.6859 15.0091 28.7098 15.0058 28.7339C15.0021 28.7602 15.0002 28.7866 15 28.8131C15.0087 29.0623 15.0719 29.3065 15.1853 29.5285C15.2558 29.6821 15.3373 29.8303 15.4292 29.9722C15.47 30.0341 15.5103 30.097 15.5583 30.1604C15.8548 30.5612 16.2016 30.9223 16.5899 31.2349C16.7087 31.3328 16.8343 31.4289 16.9668 31.523C17.2004 31.6899 17.443 31.8437 17.6936 31.9839C18.5673 32.4717 19.6719 32.8865 21.0261 33.1069C21.2431 33.1424 21.4686 33.1727 21.7025 33.1976C22.2199 33.2527 22.7399 33.2799 23.2603 33.2793C23.8699 33.2822 24.4786 33.234 25.0801 33.1352C25.2943 33.0987 25.4997 33.0541 25.698 33.0065C26.9831 32.6887 27.9422 32.1058 28.6527 31.3482C28.6834 31.316 28.7137 31.2824 28.743 31.2493C28.791 31.1955 28.8378 31.1413 28.8836 31.0865L28.9551 30.9982C29.0257 30.9079 29.0929 30.8167 29.1582 30.7226C29.1937 30.6712 29.2288 30.6194 29.2624 30.5666C29.4073 30.342 29.5375 30.1084 29.6522 29.867C29.6815 29.806 29.7103 29.7451 29.7338 29.6827C29.7515 29.6428 29.7683 29.6015 29.7856 29.5631C29.8212 29.4772 29.8562 29.3907 29.8888 29.3029C29.9124 29.2409 29.9368 29.1776 29.957 29.1108C29.9776 29.0532 29.9969 28.9956 30.0156 28.937L30.0669 28.7743C30.0938 28.7783 30.1209 28.7803 30.1481 28.78C30.2135 28.7801 30.2784 28.7691 30.3401 28.7474C30.6735 28.6377 30.981 28.4613 31.244 28.2288C31.5379 27.9652 31.7548 27.6266 31.8715 27.2494C31.9896 26.856 32.0269 26.4428 31.9809 26.0347ZM24.073 14.0931C24.0767 14.0932 24.0802 14.092 24.0831 14.0897C24.0847 14.0886 24.086 14.0872 24.087 14.0855C24.088 14.0839 24.0886 14.082 24.0888 14.0801C24.0902 14.0767 24.0902 14.0729 24.0888 14.0695C24.0881 14.0679 24.0869 14.0664 24.0855 14.0653C24.0841 14.0641 24.0824 14.0633 24.0807 14.0628C23.7139 13.8919 23.34 13.7267 23.4216 13.4281C23.4605 13.2841 23.5838 13.2264 23.7408 13.2264C23.982 13.2446 24.2164 13.3143 24.4282 13.431C24.4307 13.4319 24.4334 13.4319 24.4359 13.431C24.439 13.4312 24.442 13.4303 24.4446 13.4286C24.447 13.4266 24.449 13.4242 24.4503 13.4214C24.4513 13.4184 24.4513 13.4152 24.4503 13.4123C24.4499 13.4093 24.4483 13.4065 24.446 13.4046C24.1801 13.1319 23.8925 12.8443 24.1426 12.5581C24.1709 12.5295 24.2051 12.5074 24.2428 12.4934C24.2806 12.4793 24.3209 12.4738 24.361 12.477C24.8694 12.477 25.8708 13.3263 25.6773 14.5612L25.6538 14.5564L25.6216 14.5497L25.5981 14.5449L25.5645 14.5381L25.5055 14.5276H25.4868L25.433 14.5189H25.4224L25.3778 14.5122H25.3581L25.3231 14.5074H25.2467L25.2136 14.5036H25.1387L25.0955 14.4993H24.3889L24.2847 14.5041H24.2775L24.1815 14.5108H24.1709L24.0816 14.518H24.0672L23.9803 14.5271H23.9703L23.8834 14.5377H23.8771L23.7883 14.5487L23.6664 14.5669L23.5421 14.5886L23.5089 14.5953C23.4273 14.6097 23.3534 14.626 23.2732 14.6433L23.2334 14.6534L23.2161 14.6572C23.3102 14.1564 23.7197 14.1128 24.073 14.0931ZM16.5035 26.7011C16.8371 25.9238 17.2347 25.1756 17.6921 24.4642C18.226 23.6341 18.5375 23.3513 18.6446 23.2927C18.6507 23.2884 18.6575 23.2851 18.6647 23.2831C18.7958 23.2893 18.9657 23.4382 19.1136 23.6749C19.1184 23.6835 19.1241 23.6917 19.1289 23.6998C19.5663 24.4267 19.7338 25.7164 19.2566 26.6156C19.1671 26.7866 19.058 26.9466 18.9316 27.0924C18.6225 27.4383 18.231 27.7006 17.7934 27.8548C17.6945 27.8913 17.6014 27.9192 17.5232 27.9403C16.8904 28.1069 16.371 28.0363 16.1881 27.9345C16.1728 27.8923 16.119 27.6239 16.5035 26.7011ZM29.9839 26.6411C29.9297 27.273 29.8187 27.8987 29.6522 28.5107C29.6042 28.6773 29.5562 28.8396 29.501 28.9985C29.2619 29.709 28.8869 30.3661 28.3968 30.9334C27.8559 31.5339 27.1802 31.9975 26.4253 32.2859C25.5439 32.6316 24.482 32.8068 23.2665 32.8068C22.684 32.8086 22.102 32.7733 21.5239 32.7012C21.2949 32.6719 21.0688 32.6373 20.8475 32.5965C20.0299 32.4504 19.2342 32.201 18.4794 31.8542C17.4512 31.3741 16.5755 30.7058 16.0134 29.9683C15.4949 29.289 15.4609 28.8578 15.4801 28.7872C15.5233 28.6345 15.6135 28.5164 16.3302 28.5164H16.7171C17.2495 28.5164 17.6542 28.4439 17.985 28.2889C18.7097 28.0317 19.3133 27.5149 19.6791 26.8384C20.2551 25.75 20.0372 24.2837 19.5394 23.4555C19.4339 23.2722 19.2944 23.1107 19.1285 22.9797C19.14 22.5187 19.1587 22.0237 19.1928 21.4951C19.3368 19.2275 19.9609 17.5101 21.0453 16.3852C21.5636 15.8487 22.2023 15.4435 22.9084 15.2031C23.2162 15.0976 23.5333 15.0219 23.8555 14.977C24.1059 14.9419 24.3583 14.9241 24.6111 14.9237C25.0754 14.9203 25.5374 14.9889 25.9807 15.1268C26.5732 15.3168 27.1143 15.6401 27.5625 16.0717C28.7329 17.1827 29.4856 19.0791 29.801 21.7093C29.8524 22.1385 29.9042 22.6076 29.945 23.1016C30.0425 24.2155 30.0919 25.4557 29.9839 26.6411ZM31.5244 26.4841C31.5231 26.5717 31.516 26.6591 31.5033 26.7457C31.4916 26.8278 31.4756 26.9093 31.4553 26.9896C31.4089 27.1798 31.3317 27.3612 31.2267 27.5264C31.1855 27.5909 31.1399 27.6525 31.0904 27.7108C31.0664 27.7394 31.0406 27.7665 31.0131 27.7919C30.9862 27.8164 30.9579 27.8467 30.932 27.8735C30.9061 27.9004 30.8768 27.9216 30.8504 27.9451C30.7652 28.0124 30.6749 28.0727 30.5801 28.1256C30.5191 28.1597 30.4563 28.1904 30.3939 28.2183C30.3314 28.2461 30.2671 28.2711 30.2018 28.2927C30.2206 28.2164 30.2374 28.1391 30.2546 28.0622C30.2959 27.8683 30.3319 27.6721 30.3627 27.4736C30.3694 27.429 30.3766 27.3843 30.3823 27.3392C30.3991 27.2254 30.414 27.1102 30.4279 26.9944C30.4366 26.9133 30.4447 26.8322 30.4529 26.751C30.4611 26.6699 30.4683 26.5883 30.474 26.5071C30.4836 26.3852 30.4918 26.2632 30.4995 26.1413C30.5033 26.0596 30.5076 25.9785 30.5105 25.8974C30.5134 25.8162 30.5163 25.7346 30.5182 25.6535V24.7988C30.5182 24.7177 30.5182 24.6366 30.5115 24.5549C30.5047 24.4733 30.5057 24.3927 30.5023 24.311C30.499 24.2294 30.4961 24.1488 30.4918 24.0671C30.4807 23.8463 30.4659 23.6269 30.4495 23.4098H30.4577C30.4644 23.4147 30.4706 23.4203 30.4759 23.4267C30.5364 23.4977 30.5956 23.5742 30.6536 23.6562C30.6972 23.7176 30.7395 23.7819 30.7817 23.8482L30.823 23.9164C30.9161 24.0739 30.9998 24.2368 31.0736 24.4042C31.1111 24.4853 31.1466 24.5746 31.1802 24.6625C31.2304 24.7947 31.2759 24.9302 31.3165 25.0692C31.3564 25.2055 31.3924 25.3447 31.4216 25.4845C31.4615 25.6724 31.4913 25.8623 31.5109 26.0534C31.5167 26.1014 31.5205 26.1494 31.5229 26.1974C31.5249 26.3007 31.5268 26.3938 31.5244 26.4841Z" fill="#383838"/>
<path d="M22.6631 34.8441C22.558 34.8423 22.4559 34.8088 22.3703 34.748C22.2846 34.6872 22.2193 34.6018 22.183 34.5032L21.703 33.2026C21.4706 33.177 21.2451 33.1467 21.0266 33.1118C21.2488 33.7293 21.5225 34.4888 21.5997 34.6919C21.6257 34.7596 21.5997 34.8441 21.4744 34.8441H20.7352C20.7352 34.8441 20.5115 35.3372 21.1192 35.3194C22.7994 35.269 22.6165 36.6158 23.1455 36.3598C23.6544 36.1159 22.6856 35.318 22.7005 35.3194C24.6346 35.5633 24.0168 34.8422 24.0168 34.8422C24.0168 34.8422 23.0322 34.8441 22.6631 34.8441Z" fill="#383838"/>
<path d="M26.2922 34.1822C26.2448 34.1829 26.1983 34.1688 26.1593 34.1419C26.1199 34.1155 26.0894 34.0779 26.0719 34.0339C25.9831 33.8111 25.816 33.3372 25.6979 33.0103C25.4997 33.0583 25.2918 33.102 25.0801 33.1384C25.2078 33.4913 25.3849 33.9801 25.3998 34.0272C25.4349 34.1352 25.4094 34.176 25.2184 34.176H24.4983C24.4983 34.176 24.2909 34.6393 25.0854 34.6393C26.706 34.6393 26.3686 36.0019 26.9921 35.6528C27.3901 35.4301 26.6508 34.8021 26.5913 34.7272C26.5572 34.6849 26.5846 34.6254 26.6724 34.6384C28.3281 34.8914 27.9206 34.176 27.9206 34.176C27.9206 34.176 26.778 34.1822 26.2922 34.1822Z" fill="#383838"/>
<path d="M23.7707 20.3066C23.8405 20.2902 23.9038 20.2534 23.9527 20.2009C24.0016 20.1484 24.0338 20.0827 24.0453 20.0119C24.0568 19.9411 24.047 19.8685 24.0172 19.8033C23.9875 19.738 23.939 19.6831 23.878 19.6454C23.817 19.6077 23.7462 19.589 23.6746 19.5915C23.6029 19.5941 23.5336 19.6179 23.4755 19.6598C23.4173 19.7017 23.3729 19.76 23.3479 19.8272C23.3229 19.8944 23.3183 19.9675 23.3348 20.0373C23.3457 20.0836 23.3656 20.1273 23.3934 20.166C23.4213 20.2046 23.4564 20.2373 23.4969 20.2624C23.5374 20.2874 23.5824 20.3042 23.6294 20.3118C23.6764 20.3193 23.7244 20.3176 23.7707 20.3066Z" fill="#383838"/>
<path d="M27.7061 20.2585C27.767 20.2208 27.8153 20.1658 27.845 20.1006C27.8747 20.0353 27.8844 19.9628 27.8729 19.892C27.8613 19.8213 27.8291 19.7556 27.7802 19.7031C27.7313 19.6507 27.668 19.614 27.5983 19.5975C27.5285 19.5811 27.4554 19.5857 27.3883 19.6108C27.3212 19.6359 27.263 19.6803 27.2211 19.7385C27.1792 19.7966 27.1555 19.8659 27.1529 19.9375C27.1504 20.0091 27.1691 20.0799 27.2068 20.1409C27.2318 20.1814 27.2646 20.2166 27.3033 20.2445C27.3419 20.2723 27.3857 20.2923 27.432 20.3032C27.4784 20.3141 27.5265 20.3158 27.5735 20.3081C27.6205 20.3005 27.6656 20.2836 27.7061 20.2585Z" fill="#383838"/>
<path d="M26.6615 21.2188L25.7436 20.8386C25.7129 20.8272 25.6804 20.8214 25.6476 20.8213C25.6148 20.8215 25.5823 20.8273 25.5516 20.8386L24.6318 21.2188C24.6029 21.2274 24.5771 21.2441 24.5574 21.2668C24.5378 21.2901 24.5256 21.3187 24.5223 21.3489C24.5187 21.3793 24.5241 21.41 24.5377 21.4373C24.5516 21.4643 24.5729 21.4868 24.5992 21.5021L25.5305 22.1061C25.5641 22.1301 25.6049 22.1421 25.6462 22.1402C25.6871 22.1421 25.7276 22.13 25.7609 22.1061L26.6936 21.5021C26.7134 21.4908 26.7304 21.4753 26.7435 21.4566C26.7567 21.438 26.7656 21.4167 26.7696 21.3943C26.7736 21.3719 26.7727 21.3489 26.7669 21.3268C26.761 21.3048 26.7505 21.2843 26.7359 21.2668C26.716 21.2443 26.6902 21.2276 26.6615 21.2188Z" fill="#383838"/>
</svg>
