<svg width="70" height="70" viewBox="0 0 70 70" fill="none" xmlns="http://www.w3.org/2000/svg">
<g clip-path="url(#clip0_437_686)">
<path d="M50.6673 23.1471C50.3453 22.2745 49.8315 21.4846 49.1639 20.8363C48.5156 20.1687 47.7262 19.6549 46.8531 19.3329C46.1449 19.0579 45.0811 18.7305 43.1216 18.6413C41.0019 18.5446 40.3664 18.5238 35.0002 18.5238C29.6334 18.5238 28.9979 18.5441 26.8788 18.6408C24.9193 18.7305 23.8549 19.0579 23.1473 19.3329C22.2741 19.6549 21.4843 20.1687 20.8364 20.8363C20.1689 21.4846 19.6551 22.274 19.3325 23.1471C19.0575 23.8553 18.7301 24.9197 18.6409 26.8791C18.5443 28.9983 18.5234 29.6338 18.5234 35.0005C18.5234 40.3668 18.5443 41.0023 18.6409 43.122C18.7301 45.0814 19.0575 46.1453 19.3325 46.8534C19.6551 47.7266 20.1683 48.5159 20.8359 49.1643C21.4843 49.8319 22.2736 50.3456 23.1468 50.6677C23.8549 50.9432 24.9193 51.2706 26.8788 51.3598C28.9979 51.4565 29.6329 51.4768 34.9996 51.4768C40.3669 51.4768 41.0025 51.4565 43.1211 51.3598C45.0805 51.2706 46.1449 50.9432 46.8531 50.6677C48.6058 49.9915 49.9912 48.6062 50.6673 46.8534C50.9423 46.1453 51.2697 45.0814 51.3594 43.122C51.4561 41.0023 51.4764 40.3668 51.4764 35.0005C51.4764 29.6338 51.4561 28.9983 51.3594 26.8791C51.2702 24.9197 50.9429 23.8553 50.6673 23.1471ZM35.0002 45.3201C29.3002 45.3201 24.6795 40.7 24.6795 35C24.6795 29.3 29.3002 24.6799 35.0002 24.6799C40.6996 24.6799 45.3203 29.3 45.3203 35C45.3203 40.7 40.6996 45.3201 35.0002 45.3201ZM45.7283 26.6837C44.3964 26.6837 43.3165 25.6038 43.3165 24.2719C43.3165 22.9399 44.3964 21.8601 45.7283 21.8601C47.0603 21.8601 48.1401 22.9399 48.1401 24.2719C48.1396 25.6038 47.0603 26.6837 45.7283 26.6837Z" fill="#212121"/>
<path d="M41.6992 35C41.6992 38.7 38.7 41.6992 35 41.6992C31.3 41.6992 28.3008 38.7 28.3008 35C28.3008 31.3 31.3 28.3008 35 28.3008C38.7 28.3008 41.6992 31.3 41.6992 35Z" fill="#212121"/>
<path d="M64.9516 0H5.04845C2.26013 0 0 2.26013 0 5.04845V64.9516C0 67.7399 2.26013 70 5.04845 70H64.9516C67.7399 70 70 67.7399 70 64.9516V5.04845C70 2.26013 67.7399 0 64.9516 0ZM54.9764 43.2859C54.8792 45.4253 54.539 46.886 54.0424 48.1645C52.9983 50.8642 50.8642 52.9983 48.1645 54.0424C46.8865 54.539 45.4253 54.8787 43.2864 54.9764C41.1433 55.0742 40.4586 55.0977 35.0005 55.0977C29.5419 55.0977 28.8578 55.0742 26.7141 54.9764C24.5752 54.8787 23.114 54.539 21.836 54.0424C20.4945 53.5377 19.28 52.7467 18.276 51.724C17.2538 50.7205 16.4629 49.5055 15.9582 48.1645C15.4615 46.8865 15.1213 45.4253 15.0241 43.2864C14.9253 41.1427 14.9023 40.4581 14.9023 35C14.9023 29.5419 14.9253 28.8573 15.0236 26.7141C15.1208 24.5747 15.4604 23.114 15.9571 21.8355C16.4618 20.4945 17.2533 19.2795 18.276 18.276C19.2795 17.2533 20.4945 16.4623 21.8355 15.9576C23.114 15.461 24.5747 15.1213 26.7141 15.0236C28.8573 14.9258 29.5419 14.9023 35 14.9023C40.4581 14.9023 41.1427 14.9258 43.2859 15.0241C45.4253 15.1213 46.886 15.461 48.1645 15.9571C49.5055 16.4618 50.7205 17.2533 51.7245 18.276C52.7467 19.28 53.5382 20.4945 54.0424 21.8355C54.5396 23.114 54.8792 24.5747 54.977 26.7141C55.0747 28.8573 55.0977 29.5419 55.0977 35C55.0977 40.4581 55.0747 41.1427 54.9764 43.2859Z" fill="#212121"/>
</g>
<defs>
<clipPath id="clip0_437_686">
<rect width="70" height="70" fill="white"/>
</clipPath>
</defs>
</svg>
