<svg width="70" height="70" viewBox="0 0 70 70" fill="none" xmlns="http://www.w3.org/2000/svg">
<g clip-path="url(#clip0_437_692)">
<path d="M60.4545 0H9.54545C7.01384 0 4.58592 1.00568 2.7958 2.7958C1.00568 4.58592 0 7.01384 0 9.54545L0 60.4545C0 62.9862 1.00568 65.4141 2.7958 67.2042C4.58592 68.9943 7.01384 70 9.54545 70H60.4545C62.9862 70 65.4141 68.9943 67.2042 67.2042C68.9943 65.4141 70 62.9862 70 60.4545V9.54545C70 7.01384 68.9943 4.58592 67.2042 2.7958C65.4141 1.00568 62.9862 0 60.4545 0ZM23.8636 55.3955C23.8642 55.5896 23.8264 55.7819 23.7525 55.9613C23.6785 56.1408 23.5699 56.304 23.4329 56.4414C23.2958 56.5789 23.1329 56.6879 22.9537 56.7623C22.7744 56.8367 22.5822 56.875 22.3881 56.875H16.1C15.9056 56.8755 15.7129 56.8376 15.5332 56.7634C15.3534 56.6893 15.1901 56.5803 15.0526 56.4428C14.9151 56.3053 14.8062 56.142 14.732 55.9623C14.6578 55.7825 14.6199 55.5899 14.6205 55.3955V29.0341C14.6205 28.6417 14.7763 28.2654 15.0538 27.9879C15.3313 27.7104 15.7076 27.5545 16.1 27.5545H22.3881C22.7798 27.5556 23.1551 27.7119 23.4317 27.9893C23.7083 28.2667 23.8636 28.6424 23.8636 29.0341V55.3955ZM19.242 25.0568C18.0621 25.0568 16.9087 24.7069 15.9276 24.0514C14.9465 23.3958 14.1818 22.4641 13.7303 21.374C13.2787 20.2838 13.1606 19.0843 13.3908 17.927C13.621 16.7697 14.1892 15.7067 15.0235 14.8724C15.8579 14.038 16.9209 13.4698 18.0782 13.2396C19.2354 13.0094 20.435 13.1276 21.5251 13.5791C22.6152 14.0307 23.547 14.7953 24.2025 15.7764C24.8581 16.7575 25.208 17.911 25.208 19.0909C25.208 20.6732 24.5794 22.1906 23.4606 23.3094C22.3418 24.4283 20.8243 25.0568 19.242 25.0568ZM56.7318 55.4989C56.7323 55.6776 56.6975 55.8548 56.6293 56.02C56.5612 56.1853 56.461 56.3354 56.3346 56.4619C56.2082 56.5883 56.058 56.6884 55.8927 56.7566C55.7275 56.8248 55.5504 56.8596 55.3716 56.8591H48.6102C48.4315 56.8596 48.2543 56.8248 48.0891 56.7566C47.9238 56.6884 47.7736 56.5883 47.6472 56.4619C47.5208 56.3354 47.4206 56.1853 47.3525 56.02C47.2843 55.8548 47.2495 55.6776 47.25 55.4989V43.1494C47.25 41.304 47.7909 35.0676 42.4256 35.0676C38.2693 35.0676 37.4222 39.3352 37.2551 41.2523V55.5148C37.2552 55.8721 37.1146 56.2151 36.8638 56.4696C36.613 56.7242 36.2721 56.8698 35.9148 56.875H29.3841C29.2057 56.875 29.029 56.8398 28.8642 56.7714C28.6994 56.703 28.5497 56.6027 28.4237 56.4764C28.2977 56.35 28.1979 56.2 28.1299 56.035C28.062 55.87 28.0273 55.6932 28.0278 55.5148V28.9188C28.0273 28.7403 28.062 28.5635 28.1299 28.3985C28.1979 28.2335 28.2977 28.0835 28.4237 27.9572C28.5497 27.8308 28.6994 27.7305 28.8642 27.6621C29.029 27.5937 29.2057 27.5585 29.3841 27.5585H35.9148C36.2755 27.5585 36.6215 27.7018 36.8766 27.9569C37.1317 28.212 37.275 28.558 37.275 28.9188V31.2176C38.8182 28.8989 41.1051 27.117 45.9852 27.117C56.7955 27.117 56.7239 37.2114 56.7239 42.7557L56.7318 55.4989Z" fill="#212121"/>
</g>
<defs>
<clipPath id="clip0_437_692">
<rect width="70" height="70" fill="white"/>
</clipPath>
</defs>
</svg>
