<svg width="70" height="70" viewBox="0 0 70 70" fill="none" xmlns="http://www.w3.org/2000/svg">
<path d="M37.3411 33.8048L53.0937 56.3366H46.6288L33.7744 37.9506V37.9495L31.8871 35.2505L16.8711 13.7712H23.336L35.4539 31.1058L37.3411 33.8048Z" fill="#212121"/>
<path d="M62.4364 0H7.56365C3.38647 0 0 3.38647 0 7.56365V62.4364C0 66.6135 3.38647 70 7.56365 70H62.4364C66.6135 70 70 66.6135 70 62.4364V7.56365C70 3.38647 66.6135 0 62.4364 0ZM44.6482 59.3614L31.6403 40.43L15.3544 59.3614H11.1452L29.7714 37.711L11.1452 10.6027H25.3518L37.6694 28.5294L53.091 10.6027H57.3002L39.5389 31.249H39.5377L58.8548 59.3614H44.6482Z" fill="#212121"/>
</svg>
