<svg xmlns="http://www.w3.org/2000/svg" xmlns:xlink="http://www.w3.org/1999/xlink" width="24" height="24" viewBox="0 0 24 24"><defs><style>.a{fill:#fff;}.b{clip-path:url(#a);}</style><clipPath id="a"><rect class="a" width="24" height="24" rx="2"/></clipPath></defs><g class="b"><path class="a" d="M24.741,4.5H6.38A1.8,1.8,0,0,0,4.5,6.213v18.4A1.936,1.936,0,0,0,6.38,26.5H24.735A1.838,1.838,0,0,0,26.5,24.615V6.213A1.687,1.687,0,0,0,24.741,4.5ZM11.319,22.838H8.168v-9.8h3.152ZM9.852,11.549H9.83A1.618,1.618,0,0,1,8.168,9.858a1.628,1.628,0,0,1,1.7-1.691,1.623,1.623,0,0,1,1.685,1.691A1.627,1.627,0,0,1,9.852,11.549ZM22.838,22.838H19.686V17.48c0-1.284-.458-2.16-1.6-2.16a1.724,1.724,0,0,0-1.616,1.163,2.122,2.122,0,0,0-.109.774v5.582H13.211v-9.8h3.152V14.4A3.19,3.19,0,0,1,19.2,12.809c2.069,0,3.633,1.364,3.633,4.3v5.725Z" transform="translate(-3.5 -3.5)"/></g></svg>