<svg width="24" height="25" viewBox="0 0 24 25" fill="none" xmlns="http://www.w3.org/2000/svg">
<path d="M22 6.40692C21.2504 6.7343 20.4565 6.94896 19.644 7.04392C20.4968 6.54315 21.138 5.74903 21.448 4.80992C20.64 5.28025 19.7587 5.61152 18.841 5.78992C18.4545 5.38513 17.9897 5.06331 17.4748 4.8441C16.9598 4.62489 16.4056 4.51289 15.846 4.51492C13.58 4.51492 11.743 6.32492 11.743 8.55492C11.743 8.87092 11.779 9.17992 11.849 9.47492C10.2236 9.39761 8.63212 8.98233 7.17617 8.25556C5.72022 7.52879 4.43176 6.5065 3.393 5.25392C3.02883 5.86832 2.83742 6.5697 2.839 7.28392C2.8397 7.95189 3.00683 8.60915 3.32529 9.19631C3.64375 9.78348 4.1035 10.282 4.663 10.6469C4.01248 10.6259 3.37602 10.4522 2.805 10.1399V10.1899C2.805 12.1479 4.22 13.7809 6.095 14.1529C5.74261 14.2464 5.37958 14.2938 5.015 14.2939C4.75 14.2939 4.493 14.2689 4.242 14.2189C4.51008 15.0268 5.02311 15.7312 5.70982 16.2343C6.39653 16.7373 7.22284 17.014 8.074 17.0259C6.61407 18.1505 4.82182 18.758 2.979 18.7529C2.647 18.7529 2.321 18.7329 2 18.6969C3.88125 19.8876 6.06259 20.5182 8.289 20.5149C15.836 20.5149 19.962 14.3579 19.962 9.01892L19.948 8.49592C20.7529 7.92959 21.4481 7.22177 22 6.40692Z" fill="white"/>
</svg>
