<svg width="24" height="25" viewBox="0 0 24 25" fill="none" xmlns="http://www.w3.org/2000/svg">
<mask id="mask0_1_4149" style="mask-type:alpha" maskUnits="userSpaceOnUse" x="0" y="0" width="24" height="25">
<rect y="0.113647" width="24" height="24" fill="#D9D9D9"/>
</mask>
<g mask="url(#mask0_1_4149)">
<path d="M5.3077 20.6136C4.80257 20.6136 4.375 20.4386 4.025 20.0886C3.675 19.7386 3.5 19.311 3.5 18.8059V5.42135C3.5 4.91622 3.675 4.48865 4.025 4.13865C4.375 3.78865 4.80257 3.61365 5.3077 3.61365H12.0096V5.11362H5.3077C5.23077 5.11362 5.16024 5.14567 5.09612 5.20977C5.03202 5.27389 4.99997 5.34442 4.99997 5.42135V18.8059C4.99997 18.8828 5.03202 18.9534 5.09612 19.0175C5.16024 19.0816 5.23077 19.1136 5.3077 19.1136H12.0096V20.6136H5.3077ZM16.2308 16.3828L15.1923 15.2982L17.6269 12.8636H9.09613V11.3636H17.6269L15.1923 8.92902L16.2308 7.84445L20.5 12.1136L16.2308 16.3828Z" fill="#232323"/>
</g>
</svg>
