<svg xmlns="http://www.w3.org/2000/svg" width="104.168" height="104.168" viewBox="0 0 104.168 104.168"><defs><style>.a{fill:#fd7f23;}.b,.c{fill:#fff;}.b{opacity:0;}</style></defs><g transform="translate(-781.5 -141)"><circle class="a" cx="52.084" cy="52.084" r="52.084" transform="translate(781.5 141)"/><g transform="translate(812.5 172)"><rect class="b" width="42" height="42"/><path class="c" d="M25.787,0a3.6,3.6,0,0,0-2.711,1.961c-.75,1.5-6.288,12.634-7.384,13.73a5.7,5.7,0,0,1-4.154,1.615V40.386H31.729A2.987,2.987,0,0,0,34.441,38.6s5.942-16.788,5.942-18.4A2.856,2.856,0,0,0,37.5,17.31H28.845a2.97,2.97,0,0,1-2.884-2.884c0-1.442,2.25-9.115,2.711-10.615A2.905,2.905,0,0,0,26.883.176,2.432,2.432,0,0,0,25.787,0ZM0,17.31V40.386H5.769V17.31Z" transform="translate(0.5 0.512)"/></g></g></svg>