<svg width="24" height="25" viewBox="0 0 24 25" fill="none" xmlns="http://www.w3.org/2000/svg">
<mask id="mask0_1_4143" style="mask-type:alpha" maskUnits="userSpaceOnUse" x="0" y="0" width="24" height="25">
<rect y="0.345947" width="24" height="24" fill="#D9D9D9"/>
</mask>
<g mask="url(#mask0_1_4143)">
<path d="M11.999 12.0387C11.0365 12.0387 10.2126 11.696 9.52715 11.0106C8.84173 10.3252 8.49902 9.50122 8.49902 8.53873C8.49902 7.57623 8.84173 6.75228 9.52715 6.06688C10.2126 5.38147 11.0365 5.03876 11.999 5.03876C12.9615 5.03876 13.7854 5.38147 14.4708 6.06688C15.1563 6.75228 15.499 7.57623 15.499 8.53873C15.499 9.50122 15.1563 10.3252 14.4708 11.0106C13.7854 11.696 12.9615 12.0387 11.999 12.0387ZM4.49902 19.6541V17.431C4.49902 16.9413 4.63204 16.4878 4.89807 16.0705C5.16409 15.6532 5.51953 15.3323 5.9644 15.108C6.95286 14.6233 7.94998 14.2599 8.95575 14.0176C9.96151 13.7753 10.9759 13.6541 11.999 13.6541C13.0221 13.6541 14.0365 13.7753 15.0422 14.0176C16.048 14.2599 17.0451 14.6233 18.0336 15.108C18.4785 15.3323 18.8339 15.6532 19.0999 16.0705C19.366 16.4878 19.499 16.9413 19.499 17.431V19.6541H4.49902ZM5.999 18.1541H17.999V17.431C17.999 17.2284 17.9403 17.0409 17.823 16.8685C17.7057 16.6961 17.5464 16.5554 17.3451 16.4464C16.4836 16.022 15.6051 15.7006 14.7097 15.482C13.8143 15.2634 12.9107 15.1541 11.999 15.1541C11.0873 15.1541 10.1837 15.2634 9.2883 15.482C8.39286 15.7006 7.51438 16.022 6.65285 16.4464C6.45156 16.5554 6.29227 16.6961 6.17497 16.8685C6.05766 17.0409 5.999 17.2284 5.999 17.431V18.1541ZM11.999 10.5387C12.549 10.5387 13.0198 10.3429 13.4115 9.95123C13.8032 9.55957 13.999 9.08873 13.999 8.53873C13.999 7.98873 13.8032 7.5179 13.4115 7.12623C13.0198 6.73457 12.549 6.53873 11.999 6.53873C11.449 6.53873 10.9782 6.73457 10.5865 7.12623C10.1948 7.5179 9.999 7.98873 9.999 8.53873C9.999 9.08873 10.1948 9.55957 10.5865 9.95123C10.9782 10.3429 11.449 10.5387 11.999 10.5387Z" fill="#232323"/>
</g>
</svg>
