<svg xmlns="http://www.w3.org/2000/svg" width="48" height="48" viewBox="0 0 48 48">
  <g id="Group_10822" data-name="Group 10822" transform="translate(-534.001 -700)">
    <g id="Group_10817" data-name="Group 10817" transform="translate(266.432 175.431)">
      <rect id="Rectangle_5283" data-name="Rectangle 5283" width="48" height="48" rx="8" transform="translate(267.569 524.569)" fill="#443fb1" opacity="0.1"/>
      <g id="public_black_24dp" transform="translate(271 528)">
        <path id="Path_2668" data-name="Path 2668" d="M0,0H41.138V41.138H0Z" fill="none"/>
      </g>
    </g>
    <g id="event_black_24dp" transform="translate(546 712)">
      <path id="Path_2678" data-name="Path 2678" d="M0,0H24V24H0Z" fill="none"/>
      <path id="Path_2679" data-name="Path 2679" d="M19,4H18V2H16V4H8V2H6V4H5A1.991,1.991,0,0,0,3.01,6L3,20a2,2,0,0,0,2,2H19a2.006,2.006,0,0,0,2-2V6A2.006,2.006,0,0,0,19,4Zm0,16H5V10H19ZM19,8H5V6H19Zm-7,5h5v5H12Z" fill="#2c2799"/>
    </g>
  </g>
</svg>
