<svg width="44" height="44" viewBox="0 0 44 44" fill="none" xmlns="http://www.w3.org/2000/svg">
<rect width="44" height="44" rx="22" fill="#E3F0FF"/>
<path d="M15.2215 22.4321C14.9214 22.4646 14.6811 22.7842 14.7116 23.1038C15.1312 26.8742 17.982 29.7194 21.4636 30.0067V32.7871H17.8016C17.471 32.7871 17.2319 33.0742 17.2319 33.3938C17.2319 33.7134 17.5015 34.0006 17.8016 34.0006H26.2638C26.5944 34.0006 26.8335 33.7134 26.8335 33.3938C26.8335 33.0742 26.5639 32.7871 26.2638 32.7871H22.603V30.0067C26.0847 29.7196 28.9355 26.8431 29.355 23.1025C29.3855 22.7829 29.1745 22.4633 28.8451 22.4308C28.545 22.3984 28.245 22.6231 28.2145 22.9739C27.8546 26.2985 25.2147 28.8244 22.0332 28.8244C18.8823 28.8244 16.2121 26.3 15.8508 22.9752C15.8215 22.6556 15.5216 22.3996 15.2215 22.4321Z" fill="#545454"/>
<path d="M22.0299 27.2915C24.671 27.2915 26.8314 24.9906 26.8314 22.1778V15.1138C26.8314 12.3009 24.671 10 22.0299 10C19.3889 10 17.2285 12.3009 17.2285 15.1138V22.1778C17.2285 25.0218 19.3889 27.2915 22.0299 27.2915ZM18.3692 15.1138C18.3692 12.9726 20.0196 11.2148 22.0299 11.2148C24.0402 11.2148 25.6907 12.9727 25.6907 15.1138V15.1774L22.0299 15.1787C21.6994 15.1787 21.4603 15.4658 21.4603 15.7854C21.4603 16.1375 21.7299 16.3922 22.0299 16.3922H25.6907V18.0227H22.0299C21.6994 18.0227 21.4603 18.3098 21.4603 18.6294C21.4603 18.9815 21.7299 19.2362 22.0299 19.2362H25.6907V20.8667H22.0299C21.6994 20.8667 21.4603 21.1538 21.4603 21.4734C21.4603 21.8255 21.7299 22.0802 22.0299 22.0802H25.6907V22.1439C25.6907 24.285 24.0402 26.0428 22.0299 26.0428C20.0196 26.0428 18.3692 24.2849 18.3692 22.1439V15.1138Z" fill="#545454"/>
<path d="M12.2507 23.5508C12.4007 23.5508 12.5508 23.4871 12.641 23.3585C12.8509 23.1351 12.8509 22.7518 12.641 22.4958C11.681 21.4734 11.1406 20.0988 11.1406 18.6605C11.1406 17.1898 11.681 15.8477 12.641 14.8252C12.8509 14.6017 12.8509 14.2185 12.641 13.9625C12.4312 13.7391 12.0713 13.7391 11.831 13.9625C10.6612 15.2085 10 16.9027 10 18.6605C10 20.4183 10.66 22.1126 11.831 23.3584C11.9811 23.487 12.1311 23.5508 12.2507 23.5508Z" fill="#545454"/>
<path d="M13.3339 21.7957C13.4535 21.9231 13.6035 21.988 13.7243 21.988C13.8743 21.988 14.0244 21.9243 14.1146 21.7957C14.3245 21.5723 14.3245 21.189 14.1146 20.9331C13.5449 20.3263 13.2449 19.5273 13.2449 18.6633C13.2449 17.8006 13.5449 17.0016 14.1146 16.3936C14.3245 16.1701 14.3245 15.7868 14.1146 15.5309C13.9048 15.3074 13.5449 15.3074 13.3046 15.5309C11.7139 17.2575 11.7139 20.0689 13.3339 21.7957Z" fill="#545454"/>
<path d="M14.8258 20.2265C14.9453 20.3538 15.0954 20.4188 15.2161 20.4188C15.3357 20.4188 15.5162 20.3551 15.6065 20.2265C15.8163 20.003 15.8163 19.6197 15.6065 19.3638C15.2466 18.9805 15.2466 18.3413 15.6065 17.958C15.8163 17.7346 15.8163 17.3513 15.6065 17.0953C15.3966 16.8719 15.0368 16.8719 14.7965 17.0953C14.4061 17.5111 14.1963 18.0542 14.1963 18.6609C14.1951 19.2365 14.4354 19.812 14.8258 20.2265Z" fill="#545454"/>
<path d="M31.3956 22.499C31.1858 22.7225 31.1858 23.1058 31.3956 23.3617C31.5152 23.4891 31.6653 23.554 31.786 23.554C31.9056 23.554 32.0861 23.4903 32.1764 23.3617C34.6076 20.7724 34.6076 16.5227 32.1764 13.9332C31.9665 13.7098 31.6067 13.7098 31.3664 13.9332C31.1565 14.1567 31.1565 14.54 31.3664 14.7959C33.406 16.9383 33.406 20.389 31.3956 22.499Z" fill="#545454"/>
<path d="M30.7967 18.6634C30.7967 19.5261 30.4966 20.3252 29.9269 20.9332C29.7171 21.1567 29.7171 21.5399 29.9269 21.7959C30.0465 21.9232 30.1965 21.9881 30.3173 21.9881C30.4368 21.9881 30.6173 21.9245 30.7076 21.7959C32.3276 20.0705 32.3276 17.2577 30.7076 15.5309C30.4978 15.3074 30.1379 15.3074 29.8976 15.5309C29.6878 15.7544 29.6878 16.1376 29.8976 16.3936C30.4966 17.0016 30.7967 17.8007 30.7967 18.6634Z" fill="#545454"/>
<path d="M28.4269 20.2265C28.5465 20.3538 28.6965 20.4188 28.8173 20.4188C28.9673 20.4188 29.1173 20.3551 29.2076 20.2265C29.598 19.8107 29.8078 19.2677 29.8078 18.6609C29.8078 18.0854 29.598 17.5098 29.2076 17.0953C28.9978 16.8719 28.6379 16.8719 28.3976 17.0953C28.1878 17.3188 28.1878 17.7021 28.3976 17.958C28.7575 18.3413 28.7575 18.9805 28.3976 19.3638C28.2171 19.5873 28.2171 19.9718 28.4269 20.2265Z" fill="#545454"/>
</svg>
