<svg width="42" height="42" viewBox="0 0 42 42" fill="none" xmlns="http://www.w3.org/2000/svg">
<rect width="42" height="42" rx="21" fill="#F5F5F5"/>
<path d="M12.5264 21.5406C12.1513 21.5812 11.8509 21.9807 11.889 22.3802C12.4136 27.0932 15.9769 30.6496 20.3289 31.0087V34.4841H15.7515C15.3382 34.4841 15.0394 34.843 15.0394 35.2425C15.0394 35.642 15.3764 36.0009 15.7515 36.0009H26.329C26.7422 36.0009 27.0411 35.642 27.0411 35.2425C27.0411 34.843 26.7041 34.4841 26.329 34.4841H21.7531V31.0087C26.1051 30.6498 29.6686 27.0543 30.193 22.3786C30.2311 21.9791 29.9673 21.5796 29.5556 21.539C29.1805 21.4985 28.8054 21.7794 28.7673 22.2179C28.3175 26.3735 25.0177 29.5308 21.0409 29.5308C17.1023 29.5308 13.7646 26.3754 13.313 22.2195C13.2763 21.82 12.9015 21.5 12.5264 21.5406Z" fill="#696D72"/>
<path d="M21.0388 27.614C24.34 27.614 27.0404 24.7379 27.0404 21.2219V12.3921C27.0404 8.87611 24.34 6 21.0388 6C17.7376 6 15.0371 8.87611 15.0371 12.3921V21.2219C15.0371 24.7769 17.7376 27.614 21.0388 27.614ZM16.4629 12.3921C16.4629 9.71571 18.526 7.51852 21.0388 7.51852C23.5516 7.51852 25.6147 9.71579 25.6147 12.3921V12.4717L21.0388 12.4732C20.6256 12.4732 20.3267 12.8321 20.3267 13.2316C20.3267 13.6717 20.6637 13.9901 21.0388 13.9901H25.6147V16.0282H21.0388C20.6256 16.0282 20.3267 16.3871 20.3267 16.7866C20.3267 17.2267 20.6637 17.545 21.0388 17.545H25.6147V19.5831H21.0388C20.6256 19.5831 20.3267 19.942 20.3267 20.3415C20.3267 20.7816 20.6637 21.1 21.0388 21.1H25.6147V21.1795C25.6147 23.8559 23.5516 26.0531 21.0388 26.0531C18.526 26.0531 16.4629 23.8558 16.4629 21.1795V12.3921Z" fill="#696D72"/>
<path d="M8.81328 22.9368C9.00084 22.9368 9.18839 22.8572 9.30122 22.6965C9.5635 22.4171 9.5635 21.9381 9.30122 21.6181C8.10118 20.34 7.4257 18.6219 7.4257 16.8241C7.4257 14.9857 8.10118 13.3081 9.30122 12.03C9.5635 11.7507 9.5635 11.2716 9.30122 10.9517C9.03894 10.6724 8.58912 10.6724 8.28874 10.9517C6.82643 12.5091 6 14.6268 6 16.824C6 19.0212 6.82493 21.1391 8.28874 22.6963C8.47629 22.8571 8.66384 22.9368 8.81328 22.9368Z" fill="#696D72"/>
<path d="M10.1669 20.7436C10.3163 20.9027 10.5039 20.9839 10.6548 20.9839C10.8424 20.9839 11.0299 20.9043 11.1428 20.7436C11.405 20.4642 11.405 19.9851 11.1428 19.6652C10.4307 18.9068 10.0556 17.908 10.0556 16.8281C10.0556 15.7497 10.4307 14.751 11.1428 13.991C11.405 13.7116 11.405 13.2326 11.1428 12.9126C10.8805 12.6333 10.4307 12.6333 10.1303 12.9126C8.14192 15.0709 8.1419 18.585 10.1669 20.7436Z" fill="#696D72"/>
<path d="M12.0349 18.7835C12.1843 18.9427 12.3719 19.0239 12.5228 19.0239C12.6723 19.0239 12.8979 18.9443 13.0107 18.7835C13.273 18.5042 13.273 18.0251 13.0107 17.7052C12.5609 17.2261 12.5609 16.4271 13.0107 15.948C13.273 15.6687 13.273 15.1896 13.0107 14.8697C12.7485 14.5903 12.2986 14.5903 11.9983 14.8697C11.5103 15.3893 11.2481 16.0682 11.2481 16.8266C11.2466 17.546 11.5469 18.2654 12.0349 18.7835Z" fill="#696D72"/>
<path d="M32.745 21.6236C32.4828 21.9029 32.4828 22.382 32.745 22.7019C32.8945 22.8611 33.082 22.9422 33.233 22.9422C33.3824 22.9422 33.6081 22.8626 33.7209 22.7019C36.7599 19.4653 36.7599 14.1533 33.7209 10.9165C33.4586 10.6372 33.0088 10.6372 32.7084 10.9165C32.4461 11.1959 32.4461 11.675 32.7084 11.9949C35.258 14.6728 35.258 18.986 32.745 21.6236Z" fill="#696D72"/>
<path d="M31.9963 16.8283C31.9963 17.9066 31.6212 18.9054 30.9091 19.6654C30.6468 19.9447 30.6468 20.4238 30.9091 20.7437C31.0586 20.9029 31.2461 20.984 31.397 20.984C31.5465 20.984 31.7721 20.9045 31.885 20.7437C33.9099 18.587 33.9099 15.0712 31.885 12.9126C31.6227 12.6333 31.1729 12.6333 30.8725 12.9126C30.6102 13.192 30.6102 13.671 30.8725 13.991C31.6212 14.7509 31.9963 15.7499 31.9963 16.8283Z" fill="#696D72"/>
<path d="M29.0341 18.7835C29.1836 18.9427 29.3711 19.0239 29.522 19.0239C29.7096 19.0239 29.8971 18.9443 30.01 18.7835C30.4979 18.2639 30.7602 17.585 30.7602 16.8266C30.7602 16.1072 30.4979 15.3877 30.01 14.8697C29.7477 14.5903 29.2979 14.5903 28.9975 14.8697C28.7352 15.149 28.7352 15.6281 28.9975 15.948C29.4473 16.4271 29.4473 17.2261 28.9975 17.7052C28.7718 17.9845 28.7718 18.4652 29.0341 18.7835Z" fill="#696D72"/>
</svg>
