<svg xmlns="http://www.w3.org/2000/svg" xmlns:xlink="http://www.w3.org/1999/xlink" width="169" height="166" viewBox="0 0 169 166"><defs><style>.a{fill:none;}.b,.i{fill:#1db5d8;}.b{opacity:0.1;}.c,.h{fill:#fff;}.d{opacity:0.05;}.e{fill:#f2f2f2;opacity:0.51;}.f,.g{fill:#2c2799;}.f{opacity:0.18;}.h{opacity:0.61;}.j{filter:url(#c);}.k{filter:url(#a);}</style><filter id="a" x="68.375" y="72.524" width="56.307" height="50.622" filterUnits="userSpaceOnUse"><feOffset input="SourceAlpha"/><feGaussianBlur stdDeviation="3" result="b"/><feFlood flood-opacity="0.161"/><feComposite operator="in" in2="b"/><feComposite in="SourceGraphic"/></filter><filter id="c" x="12.879" y="9.999" width="101.668" height="102.095" filterUnits="userSpaceOnUse"><feOffset input="SourceAlpha"/><feGaussianBlur stdDeviation="3" result="d"/><feFlood flood-opacity="0.161"/><feComposite operator="in" in2="d"/><feComposite in="SourceGraphic"/></filter></defs><g transform="translate(-1173 -390)"><rect class="a" width="169" height="166" transform="translate(1173 390)"/><g transform="translate(-0.078 -82.869)"><circle class="b" cx="59" cy="59" r="59" transform="translate(1208.303 501)"/><g transform="matrix(0.966, 0.259, -0.259, 0.966, 913.041, 228.512)"><g transform="translate(357.669 176.81)"><g transform="translate(58.824 48.969)"><g class="k" transform="matrix(0.97, -0.26, 0.26, 0.97, -102.07, -57.05)"><path class="c" d="M681.39,436.786l-4.3,6.993-28.677-17.944,4.3-6.993Z" transform="matrix(0.97, 0.26, -0.26, 0.97, -434.09, -490.87)"/></g><path class="d" d="M650.534,427.162l16.835.852-12.536-7.844A43.535,43.535,0,0,1,650.534,427.162Z" transform="translate(-650.105 -419.9)"/></g><ellipse class="e" cx="31.807" cy="32.089" rx="31.807" ry="32.089" transform="translate(2.286 2.307)"/><path class="f" d="M430.693,433.878a42.488,42.488,0,0,1-17.544,1.26c-5.652-.746-11.7-2.461-16.429-5.783a24.358,24.358,0,0,1-5.249-4.881,31.661,31.661,0,0,0,52.627,2.84A41.035,41.035,0,0,1,430.693,433.878Z" transform="translate(-384.631 -374.366)"/><path class="g" d="M791.367,508.285l-1.853,3.014a4.185,4.185,0,0,1-5.791,1.369l-29.4-18.4a.7.7,0,0,1-.223-.961l5.558-9.04a.688.688,0,0,1,.953-.225l29.4,18.4A4.265,4.265,0,0,1,791.367,508.285Z" transform="translate(-673.811 -421.802)"/><path class="c" d="M782.82,496.033l-6.287,10.226-1.219-.763,6.287-10.226Z" transform="translate(-690.815 -430.839)"/><path class="c" d="M797.078,505.388l-6.287,10.226-1.219-.763,6.287-10.226Z" transform="translate(-702.188 -438.3)"/><g class="j" transform="matrix(0.97, -0.26, 0.26, 0.97, -43.25, -8.08)"><path class="c" d="M420.742,229.339a33.967,33.967,0,0,1-46.955,11.1,34.621,34.621,0,0,1-11.005-47.371,33.967,33.967,0,0,1,46.955-11.1A34.62,34.62,0,0,1,420.742,229.339Zm-55.319-34.615a31.466,31.466,0,0,0,10,43.054A30.871,30.871,0,0,0,418.1,227.686a31.466,31.466,0,0,0-10-43.054A30.872,30.872,0,0,0,365.423,194.724Z" transform="matrix(0.97, 0.26, -0.26, 0.97, -260.04, -244.36)"/></g><path class="h" d="M456.032,208.461a21.552,21.552,0,0,0-13.8,1.356c-3.688,1.625-7.276,4.714-8.324,8.769-.159.615.581,1.315,1.113.763a25.916,25.916,0,0,1,8.452-6.263c3.8-1.614,7.822-1.445,11.842-1.23C457.208,211.957,458,208.964,456.032,208.461Z" transform="translate(-418.463 -201.592)"/></g><g transform="translate(360.139 179.43)"><path class="i" d="M401.329,253.22a31.73,31.73,0,1,1,31.45-31.729A31.626,31.626,0,0,1,401.329,253.22Zm0-62.854a31.127,31.127,0,1,0,30.852,31.125A31.025,31.025,0,0,0,401.329,190.366Z" transform="translate(-369.878 -189.763)"/></g></g></g></g></svg>