<svg xmlns="http://www.w3.org/2000/svg" xmlns:xlink="http://www.w3.org/1999/xlink" width="107.521" height="126.814" viewBox="0 0 107.521 126.814"><defs><style>.a{fill:#263238;}.a,.d,.h{opacity:0.1;}.b,.h{fill:#443fb1;}.c{fill:#2c2799;}.e{clip-path:url(#a);}.f{fill:#1db5d8;}.g{clip-path:url(#b);}.h{mix-blend-mode:multiply;isolation:isolate;}.i{fill:#fff;}</style><clipPath id="a"><path class="a" d="M53.865,37.8,0,9.746,101.4,0Z" transform="matrix(0.995, 0.105, -0.105, 0.995, 3.951, 0)"/></clipPath><clipPath id="b"><path class="b" d="M56.169,2.225,101.4,31.248,0,40.994,38.877,3.888A14.053,14.053,0,0,1,56.169,2.225Z" transform="matrix(0.995, 0.105, -0.105, 0.995, 4.285, 0)"/></clipPath></defs><g transform="translate(-3.381)"><g transform="matrix(0.995, 0.105, -0.105, 0.995, 7.329, 45.88)"><rect class="c" width="101.868" height="60.645" rx="4" transform="translate(107.203 60.366) rotate(174.51)"/><rect class="d" width="101.868" height="60.645" rx="4" transform="translate(107.203 60.366) rotate(174.51)"/></g><g class="e" transform="translate(3.381 45.88)"><rect class="d" width="101.868" height="60.645" rx="4" transform="translate(104.255 71.242) rotate(-179.49)"/></g><path class="c" d="M36.811,2.54,0,38.8,92.092,30,49.484,1.321A11.688,11.688,0,0,0,36.811,2.54Z" transform="matrix(0.995, 0.105, -0.105, 0.995, 14.792, 17.03)"/><path class="f" d="M0,0H74.876V32.607L38.042,56.761,0,32.607Z" transform="translate(19.72 32.864)"/><g class="g" transform="translate(5.771 75.446)"><g transform="matrix(0.995, 0.105, -0.105, 0.995, 1.558, -29.566)"><rect class="b" width="101.868" height="60.645" rx="4" transform="translate(107.203 60.366) rotate(174.51)"/><rect class="h" width="101.868" height="60.645" rx="4" transform="translate(107.203 60.366) rotate(174.51)"/></g></g><g transform="translate(27.708 0)"><rect class="f" width="2.415" height="13.284" rx="1.208" transform="translate(28.312)"/><g transform="translate(37.311 2.4)"><rect class="f" width="2.415" height="13.284" rx="1.208" transform="translate(6.642 0) rotate(30)"/><rect class="f" width="2.415" height="13.284" rx="1.208" transform="matrix(0.105, 0.995, -0.995, 0.105, 20.967, 12.093)"/></g><g transform="translate(0 2.4)"><rect class="f" width="2.415" height="13.284" rx="1.208" transform="translate(21.219 11.505) rotate(150)"/><rect class="f" width="2.415" height="13.284" rx="1.208" transform="matrix(-0.105, 0.995, -0.995, -0.105, 13.464, 13.481)"/></g></g><path class="i" d="M8.366,15.682,2.091,9.609,0,12.231,8.366,22.719,26.292,3.829,25.661,3Z" transform="translate(44.133 45.827)"/></g></svg>