<svg xmlns="http://www.w3.org/2000/svg" width="120" height="120" viewBox="0 0 120 120"><defs><style>.a{fill:#fff;stroke:#0c0f0f;stroke-width:3px;opacity:0.1;}.b{fill:#1db5d8;}.c{stroke:none;}.d{fill:none;}</style></defs><g transform="translate(0.339 -0.03)"><g class="a" transform="translate(-0.339 0.03)"><circle class="c" cx="60" cy="60" r="60"/><circle class="d" cx="60" cy="60" r="58.5"/></g><path class="b" d="M29.84.006A4.165,4.165,0,0,0,26.7,2.275c-.868,1.736-7.276,14.619-8.545,15.888a6.594,6.594,0,0,1-4.806,1.869v26.7H36.715a3.457,3.457,0,0,0,3.138-2.069s6.876-19.426,6.876-21.295a3.305,3.305,0,0,0-3.338-3.338H33.378a3.437,3.437,0,0,1-3.338-3.338c0-1.669,2.6-10.547,3.138-12.283A3.362,3.362,0,0,0,31.108.206a2.815,2.815,0,0,0-1.268-.2ZM0,20.032v26.7H6.676v-26.7Z" transform="translate(36.726 36.759)"/></g></svg>