<svg xmlns="http://www.w3.org/2000/svg" width="161.082" height="93.716" viewBox="0 0 161.082 93.716"><defs><style>.a{fill:#1db5d8;}.b{fill:#0e96b5;}.c{fill:#2ac5e8;}.d{fill:#dbe2f5;}.e{fill:#f0f2fb;}</style></defs><g transform="translate(-398.979 -357.86)"><path class="a" d="M-6347.882,5337.354l16.719,15.715,53.642-71.466-1.81-2.244-7.228,4.154-45.6,31.425Z" transform="translate(6794 -4916)"/><path class="b" d="M-6330.406,5352.188v-15.321h18.045Z" transform="translate(6793.238 -4915.112)"/><path class="c" d="M-6286.145,5337.755l13.957-63.9-108.126,63.9h32.89l66.98-56.608-50.763,56.608Z" transform="translate(6794 -4916)"/><path class="d" d="M8.493,15.933A5.893,5.893,0,0,1,7.962,13.5c0-3.727,3.566-6.75,7.962-6.75a8.96,8.96,0,0,1,4.421,1.139,13.831,13.831,0,0,1,11.5-5.639c7.332,0,13.27,5.034,13.27,11.25,0,.19-.008.38-.017.57,4.645,1.385,7.979,5.14,7.979,9.555,0,5.59-5.35,10.125-11.943,10.125H10.616C4.752,33.75,0,29.721,0,24.75,0,20.4,3.649,16.763,8.493,15.933Z" transform="translate(499.979 417.826)"/><path class="e" d="M37.8,12.492a3.981,3.981,0,0,0,.45-1.821c0-2.789-3.023-5.053-6.75-5.053a8.4,8.4,0,0,0-3.748.853C25.8,3.945,22.17,2.25,18,2.25c-6.216,0-11.25,3.768-11.25,8.421,0,.142.007.284.014.426C2.827,12.134,0,14.945,0,18.25c0,4.184,4.535,7.579,10.125,7.579H36c4.971,0,9-3.016,9-6.737C45,15.834,41.906,13.113,37.8,12.492Z" transform="translate(493.979 425.748)"/><g transform="translate(7 -58.795)"><path class="d" d="M8.493,15.933A5.893,5.893,0,0,1,7.962,13.5c0-3.727,3.566-6.75,7.962-6.75a8.96,8.96,0,0,1,4.421,1.139,13.831,13.831,0,0,1,11.5-5.639c7.332,0,13.27,5.034,13.27,11.25,0,.19-.008.38-.017.57,4.645,1.385,7.979,5.14,7.979,9.555,0,5.59-5.35,10.125-11.943,10.125H10.616C4.752,33.75,0,29.721,0,24.75,0,20.4,3.649,16.763,8.493,15.933Z" transform="translate(499.979 417.826)"/><path class="e" d="M37.8,12.492a3.981,3.981,0,0,0,.45-1.821c0-2.789-3.023-5.053-6.75-5.053a8.4,8.4,0,0,0-3.748.853C25.8,3.945,22.17,2.25,18,2.25c-6.216,0-11.25,3.768-11.25,8.421,0,.142.007.284.014.426C2.827,12.134,0,14.945,0,18.25c0,4.184,4.535,7.579,10.125,7.579H36c4.971,0,9-3.016,9-6.737C45,15.834,41.906,13.113,37.8,12.492Z" transform="translate(493.979 425.748)"/></g><g transform="translate(-95 -61.769)"><path class="d" d="M8.493,15.933A5.893,5.893,0,0,1,7.962,13.5c0-3.727,3.566-6.75,7.962-6.75a8.96,8.96,0,0,1,4.421,1.139,13.831,13.831,0,0,1,11.5-5.639c7.332,0,13.27,5.034,13.27,11.25,0,.19-.008.38-.017.57,4.645,1.385,7.979,5.14,7.979,9.555,0,5.59-5.35,10.125-11.943,10.125H10.616C4.752,33.75,0,29.721,0,24.75,0,20.4,3.649,16.763,8.493,15.933Z" transform="translate(499.979 417.826)"/><path class="e" d="M37.8,12.492a3.981,3.981,0,0,0,.45-1.821c0-2.789-3.023-5.053-6.75-5.053a8.4,8.4,0,0,0-3.748.853C25.8,3.945,22.17,2.25,18,2.25c-6.216,0-11.25,3.768-11.25,8.421,0,.142.007.284.014.426C2.827,12.134,0,14.945,0,18.25c0,4.184,4.535,7.579,10.125,7.579H36c4.971,0,9-3.016,9-6.737C45,15.834,41.906,13.113,37.8,12.492Z" transform="translate(493.979 425.748)"/></g></g></svg>