<svg width="55" height="55" viewBox="0 0 55 55" fill="none" xmlns="http://www.w3.org/2000/svg">
<g clip-path="url(#clip0_1242_3140)">
<path d="M48.125 46.4062V49.8438C48.125 51.743 46.5867 53.2812 44.6875 53.2812H5.15625C3.25703 53.2812 1.71875 51.743 1.71875 49.8438V46.4062H18.0469C18.0469 48.3055 19.5852 49.8438 21.4844 49.8438H28.3594C30.2586 49.8438 31.7969 48.3055 31.7969 46.4062H46.4062H48.125Z" fill="#3870CF"/>
<path d="M18.0469 46.4062H31.7969C31.7969 48.3055 30.2586 49.8438 28.3594 49.8438H21.4844C19.5852 49.8438 18.0469 48.3055 18.0469 46.4062Z" fill="#ADBDEB"/>
<path d="M6.875 13.75C4.97578 13.75 3.4375 15.2883 3.4375 17.1875V46.4062H46.4062V13.75H6.875Z" fill="#CCD1D9"/>
<path d="M7.73438 17.1875C7.26172 17.1875 6.875 17.5742 6.875 18.0469V42.1094C6.875 42.582 7.26172 42.9688 7.73438 42.9688H42.1094C42.582 42.9688 42.9688 42.582 42.9688 42.1094V17.1875H7.73438Z" fill="#ADBDEB"/>
<path d="M20.625 20.625V24.0625H17.1875V30.9375H13.75V27.5H10.3125V39.5312H24.0625V20.625H20.625Z" fill="#FF826E"/>
<path d="M53.2812 21.4844V28.3594C53.2812 30.0094 50.4969 31.4359 46.4062 32.1578V32.1664C45.3406 32.3469 44.1891 32.4844 42.9688 32.5703C42.1352 32.6305 41.2758 32.6562 40.3906 32.6562C33.275 32.6562 27.5 30.7313 27.5 28.3594V21.4844C27.5 23.8563 33.275 25.7812 40.3906 25.7812C47.5063 25.7812 53.2812 23.8563 53.2812 21.4844ZM53.2812 6.875V14.6094C53.2812 16.9812 47.5063 18.9062 40.3906 18.9062C33.275 18.9062 27.5 16.9812 27.5 14.6094V6.875C27.5 9.71953 33.275 12.0312 40.3906 12.0312C47.5063 12.0312 53.2812 9.71953 53.2812 6.875Z" fill="#ADBDEB"/>
<path d="M27.5 14.6094C27.5 16.9812 33.275 18.9062 40.3906 18.9062C47.5063 18.9062 53.2812 16.9812 53.2812 14.6094V21.4844C53.2812 23.8563 47.5063 25.7812 40.3906 25.7812C33.275 25.7812 27.5 23.8563 27.5 21.4844V17.1875V14.6094ZM27.5 6.875C27.5 4.03047 33.275 1.71875 40.3906 1.71875C47.5063 1.71875 53.2812 4.03047 53.2812 6.875C53.2812 9.71953 47.5063 12.0312 40.3906 12.0312C44.6617 12.0312 48.125 10.493 48.125 8.59375C48.125 6.69453 44.6617 5.15625 40.3906 5.15625C36.1195 5.15625 32.6562 6.69453 32.6562 8.59375C32.6562 10.493 36.1195 12.0312 40.3906 12.0312C33.275 12.0312 27.5 9.71953 27.5 6.875Z" fill="#3870CF"/>
<path d="M40.3906 12.0312C44.6622 12.0312 48.125 10.4922 48.125 8.59375C48.125 6.69527 44.6622 5.15625 40.3906 5.15625C36.119 5.15625 32.6562 6.69527 32.6562 8.59375C32.6562 10.4922 36.119 12.0312 40.3906 12.0312Z" fill="#ADBDEB"/>
<path d="M7.73438 48.9844H9.45312V50.7031H7.73438V48.9844ZM11.1719 48.9844H12.8906V50.7031H11.1719V48.9844Z" fill="black"/>
<path d="M40.3906 0.859375C32.5523 0.859375 26.6406 3.44523 26.6406 6.875V12.8906H6.875C4.5057 12.8906 2.57812 14.8182 2.57812 17.1875V45.5469H0.859375V49.8438C0.859375 52.213 2.78695 54.1406 5.15625 54.1406H44.6875C47.0568 54.1406 48.9844 52.213 48.9844 49.8438V45.5469H47.2656V32.8711C51.1998 32.0788 54.1406 30.5637 54.1406 28.3594V6.875C54.1406 3.44523 48.229 0.859375 40.3906 0.859375ZM40.3906 2.57812C47.4805 2.57812 52.4219 4.84258 52.4219 6.875C52.4219 7.96641 50.9867 9.12226 48.5684 9.96102C48.8366 9.53391 48.9844 9.07672 48.9844 8.59375C48.9844 6.14367 45.2899 4.29688 40.3906 4.29688C35.4913 4.29688 31.7969 6.14367 31.7969 8.59375C31.7969 9.07672 31.9447 9.53391 32.2128 9.96102C29.7945 9.12226 28.3594 7.96641 28.3594 6.875C28.3594 4.84258 33.3008 2.57812 40.3906 2.57812ZM33.5156 8.59375C33.5156 7.54273 36.1934 6.01562 40.3906 6.01562C44.5878 6.01562 47.2656 7.54273 47.2656 8.59375C47.2656 9.64477 44.5878 11.1719 40.3906 11.1719C36.1934 11.1719 33.5156 9.64477 33.5156 8.59375ZM40.3906 33.5156C40.9647 33.5156 41.5379 33.4984 42.1094 33.4735V42.1094H7.73438V18.0469H26.6406V28.3594C26.6406 31.7445 33.5577 33.5156 40.3906 33.5156ZM47.2656 49.8438C47.2656 51.2652 46.1089 52.4219 44.6875 52.4219H5.15625C3.73484 52.4219 2.57812 51.2652 2.57812 49.8438V47.2656H17.2743C17.4737 48.2354 18.0013 49.1067 18.7682 49.7329C19.5351 50.359 20.4943 50.7017 21.4844 50.7031H28.3594C29.3494 50.7015 30.3085 50.3588 31.0754 49.7327C31.8422 49.1065 32.3699 48.2353 32.5695 47.2656H47.2656V49.8438ZM19.0644 47.2656H30.7785C30.6018 47.7668 30.2744 48.2011 29.8411 48.5088C29.4078 48.8166 28.89 48.9827 28.3585 48.9844H21.4835C20.9522 48.9825 20.4345 48.8163 20.0014 48.5086C19.5683 48.2009 19.241 47.7667 19.0644 47.2656ZM45.5469 45.5469H4.29688V17.1875C4.29688 15.7661 5.45359 14.6094 6.875 14.6094H26.6406V16.3281H7.73438C6.78648 16.3281 6.01562 17.099 6.01562 18.0469V42.1094C6.01562 43.0573 6.78648 43.8281 7.73438 43.8281H42.1094C43.0573 43.8281 43.8281 43.0573 43.8281 42.1094V33.3601C44.4025 33.3096 44.9756 33.2451 45.5469 33.1667V45.5469ZM40.3906 31.7969C33.0464 31.7969 28.3594 29.761 28.3594 28.3594V24.1106C30.8335 25.7778 35.6288 26.6406 40.3906 26.6406C45.1524 26.6406 49.9477 25.7778 52.4219 24.1106V28.3594C52.4219 29.761 47.7348 31.7969 40.3906 31.7969ZM40.3906 24.9219C33.0464 24.9219 28.3594 22.886 28.3594 21.4844V17.2356C30.8335 18.9028 35.6288 19.7656 40.3906 19.7656C45.1524 19.7656 49.9477 18.9028 52.4219 17.2356V21.4844C52.4219 22.886 47.7348 24.9219 40.3906 24.9219ZM40.3906 18.0469C33.0464 18.0469 28.3594 16.011 28.3594 14.6094V9.86992C30.6616 11.7013 35.0805 12.8906 40.3906 12.8906C45.7007 12.8906 50.1196 11.7013 52.4219 9.86992V14.6094C52.4219 16.011 47.7348 18.0469 40.3906 18.0469Z" fill="black"/>
<path d="M31.7969 13.75H33.5156V15.4688H31.7969V13.75ZM35.2344 14.6094H36.9531V16.3281H35.2344V14.6094ZM31.7969 27.5H33.5156V29.2188H31.7969V27.5ZM35.2344 28.3594H36.9531V30.0781H35.2344V28.3594ZM47.2656 20.625H48.9844V22.3438H47.2656V20.625ZM43.8281 21.4844H45.5469V23.2031H43.8281V21.4844ZM19.7656 23.2031H16.3281V30.0781H14.6094V26.6406H9.45312V40.3906H24.9219V19.7656H19.7656V23.2031ZM12.8906 38.6719H11.1719V28.3594H12.8906V38.6719ZM14.6094 31.7969H16.3281V38.6719H14.6094V31.7969ZM18.0469 38.6719V24.9219H19.7656V38.6719H18.0469ZM21.4844 21.4844H23.2031V38.6719H21.4844V21.4844ZM26.6406 35.2344H40.3906V36.9531H26.6406V35.2344ZM26.6406 38.6719H35.2344V40.3906H26.6406V38.6719ZM36.9531 38.6719H40.3906V40.3906H36.9531V38.6719Z" fill="black"/>
</g>
<defs>
<clipPath id="clip0_1242_3140">
<rect width="55" height="55" fill="white"/>
</clipPath>
</defs>
</svg>
