<svg width="55" height="55" viewBox="0 0 55 55" fill="none" xmlns="http://www.w3.org/2000/svg">
<g clip-path="url(#clip0_1242_3197)">
<path d="M29.2743 1.7742V17.0766C28.3767 15.4572 27.1713 14.0289 25.7259 12.8718V1.7742C25.7259 1.28629 26.1251 0.8871 26.613 0.8871H28.3872C28.8751 0.8871 29.2743 1.28629 29.2743 1.7742ZM22.1775 5.32258V10.7516L22.1597 10.7871C21.0509 10.3347 19.8622 10.0242 18.6291 9.86452V5.32258C18.6291 4.83468 19.0283 4.43549 19.5162 4.43549H21.2904C21.7783 4.43549 22.1775 4.83468 22.1775 5.32258ZM15.0807 1.7742V9.86452C13.8476 10.0242 12.6589 10.3347 11.5501 10.7871L11.5323 10.7516V1.7742C11.5323 1.28629 11.9315 0.8871 12.4194 0.8871H14.1936C14.6815 0.8871 15.0807 1.28629 15.0807 1.7742ZM7.98393 5.32258V12.8718C6.53852 14.0289 5.33314 15.4572 4.43555 17.0766V5.32258C4.43555 4.83468 4.83474 4.43549 5.32264 4.43549H7.09684C7.58474 4.43549 7.98393 4.83468 7.98393 5.32258Z" fill="#ADBDEB"/>
<path d="M38.1449 31.0484L50.5642 31.9355C50.5642 39.2806 44.6029 45.2419 37.2578 45.2419C33.7981 45.2419 30.64 43.9202 28.2715 41.7468L38.1449 31.0484Z" fill="#ADBDEB"/>
<path d="M37.258 18.629L38.1451 31.0484L28.2717 41.7468C26.5596 40.1855 25.2556 38.1718 24.5459 35.8919V35.8831C28.458 33.3548 31.0483 28.9548 31.0483 23.9516C31.0507 22.7548 30.9016 21.5626 30.6048 20.4032C32.5653 19.2766 34.8362 18.629 37.258 18.629Z" fill="#3870CF"/>
<path d="M54.1125 28.3871L41.6932 27.5L40.8061 15.0806C48.1512 15.0806 54.1125 21.0419 54.1125 28.3871ZM9.75769 41.6935V48.7903L0.886719 51.4516V39.9194L9.75769 41.6935Z" fill="#ADBDEB"/>
<path d="M23.9517 45.2419C24.9275 45.2419 25.7259 46.0403 25.7259 47.0161C25.7259 47.504 25.5307 47.9476 25.2025 48.2669C24.8832 48.5952 24.4396 48.7903 23.9517 48.7903H22.1775C21.2017 48.7903 20.4033 47.9919 20.4033 47.0161C20.4033 46.5282 20.5985 46.0847 20.9267 45.7653C21.2461 45.4371 21.6896 45.2419 22.1775 45.2419H23.9517ZM23.9517 48.7903C24.9275 48.7903 25.7259 49.5887 25.7259 50.5645C25.7259 51.0524 25.5307 51.496 25.2025 51.8153C24.8832 52.1435 24.4396 52.3387 23.9517 52.3387H22.1775C21.2017 52.3387 20.4033 51.5403 20.4033 50.5645C20.4033 50.0766 20.5985 49.6331 20.9267 49.3137C21.2461 48.9855 21.6896 48.7903 22.1775 48.7903H23.9517ZM22.1775 41.6935H23.9517C24.9275 41.6935 25.7259 42.4919 25.7259 43.4677C25.7259 43.9556 25.5307 44.3992 25.2025 44.7185C24.8832 45.0468 24.4396 45.2419 23.9517 45.2419H22.1775C21.2017 45.2419 20.4033 44.4435 20.4033 43.4677C20.4033 42.9798 20.5985 42.5363 20.9267 42.2169C21.2461 41.8887 21.6896 41.6935 22.1775 41.6935Z" fill="#F0D0B4"/>
<path d="M22.1772 39.0323C22.1772 39.7685 21.8756 40.4339 21.3965 40.9129C21.1215 41.1879 20.7844 41.4097 20.403 41.5339C20.128 41.6403 19.8264 41.6935 19.5159 41.6935H16.8546C15.8788 41.6935 15.0804 42.4919 15.0804 43.4677V52.3387C13.4038 52.3387 11.8247 51.5492 10.8223 50.2097L9.75781 48.7903V41.6935L11.7627 40.0879C13.3362 38.8289 15.2918 38.1437 17.307 38.1452H21.2901C21.778 38.1452 22.1772 38.5444 22.1772 39.0323Z" fill="#F0D0B4"/>
<path d="M20.4036 43.4677V52.3387C20.4036 53.3145 19.6052 54.1129 18.6294 54.1129H16.8552C15.8794 54.1129 15.0811 53.3145 15.0811 52.3387V43.4677C15.0811 42.4919 15.8794 41.6936 16.8552 41.6936H19.5165C19.827 41.6936 20.1286 41.6403 20.4036 41.5339V41.5427V43.4677Z" fill="#969FAA"/>
<path d="M30.6047 20.4032C30.9015 21.5626 31.0506 22.7549 31.0482 23.9516C31.0482 28.9548 28.4579 33.3548 24.5458 35.8831C22.3281 37.3113 19.6934 38.1452 16.8547 38.1452C9.01275 38.1452 2.66113 31.7936 2.66113 23.9516C2.66113 21.4589 3.29984 19.1169 4.43533 17.0766C5.33292 15.4572 6.5383 14.0289 7.98371 12.8718C9.0571 12.0113 10.2547 11.3016 11.5498 10.7871C12.6587 10.3347 13.8474 10.0242 15.0805 9.86452C15.666 9.79356 16.2515 9.75807 16.8547 9.75807C17.4579 9.75807 18.0434 9.79356 18.6289 9.86452C19.8619 10.0242 21.0506 10.3347 22.1595 10.7871C23.4547 11.3016 24.6523 12.0113 25.7256 12.8718C27.1711 14.0289 28.3764 15.4572 29.274 17.0766C29.8506 18.1145 30.3031 19.2323 30.6047 20.4032Z" fill="#ADBDEB"/>
<path d="M16.8551 34.5968C22.7343 34.5968 27.5003 29.8308 27.5003 23.9516C27.5003 18.0725 22.7343 13.3065 16.8551 13.3065C10.976 13.3065 6.20996 18.0725 6.20996 23.9516C6.20996 29.8308 10.976 34.5968 16.8551 34.5968Z" fill="#3870CF"/>
<path d="M28.3868 23.9516C28.3868 17.5929 23.2132 12.4194 16.8545 12.4194C10.4958 12.4194 5.32227 17.5929 5.32227 23.9516C5.32227 30.3103 10.4958 35.4839 16.8545 35.4839C23.2132 35.4839 28.3868 30.3103 28.3868 23.9516ZM7.09646 23.9516C7.09646 18.5714 11.4743 14.1936 16.8545 14.1936C22.2348 14.1936 26.6126 18.5714 26.6126 23.9516C26.6126 29.3319 22.2348 33.7097 16.8545 33.7097C11.4743 33.7097 7.09646 29.3319 7.09646 23.9516Z" fill="#0B1941"/>
<path d="M38.084 17.7419H37.2581C35.1379 17.7432 33.0449 18.219 31.1327 19.1347C30.8714 18.3544 30.5465 17.597 30.1613 16.8699V1.77419C30.1613 0.795726 29.3656 0 28.3871 0H26.6129C25.6344 0 24.8387 0.795726 24.8387 1.77419V11.181C24.2694 10.8228 23.6767 10.5034 23.0645 10.2247V5.32258C23.0645 4.34411 22.2688 3.54839 21.2903 3.54839H19.5161C18.5377 3.54839 17.7419 4.34411 17.7419 5.32258V8.91621C17.4465 8.89847 17.1547 8.87097 16.8548 8.87097C16.555 8.87097 16.2631 8.89847 15.9677 8.91621V1.77419C15.9677 0.795726 15.172 0 14.1935 0H12.4194C11.4409 0 10.6452 0.795726 10.6452 1.77419V10.2247C10.0332 10.5037 9.44049 10.8232 8.87097 11.181V5.32258C8.87097 4.34411 8.07524 3.54839 7.09677 3.54839H5.32258C4.34411 3.54839 3.54839 4.34411 3.54839 5.32258V16.8699C2.382 19.048 1.7725 21.4809 1.77419 23.9516C1.77419 30.8169 6.38976 36.614 12.6775 38.4308C12.1621 38.7076 11.6689 39.0278 11.2085 39.396L9.52565 40.7417L0 38.8371V52.6439L9.42008 49.8176L10.1129 50.7419C10.618 51.4116 11.2529 51.9727 11.9796 52.3917C12.7063 52.8107 13.5099 53.079 14.3426 53.1806C14.5179 53.7088 14.8547 54.1687 15.3055 54.4951C15.7563 54.8216 16.2983 54.9982 16.8548 55H18.629C19.2126 54.9982 19.7793 54.8044 20.2417 54.4485C20.7041 54.0926 21.0364 53.5943 21.1874 53.0306C21.4944 53.1539 21.827 53.2258 22.1774 53.2258H23.9516C25.4189 53.2258 26.6129 52.0318 26.6129 50.5645C26.6107 49.9077 26.364 49.2752 25.921 48.7903C26.3468 48.3184 26.6129 47.7001 26.6129 47.0161C26.6129 46.3322 26.3459 45.7139 25.921 45.2419C26.3468 44.77 26.6129 44.1517 26.6129 43.4677C26.6129 42.0005 25.4189 40.8064 23.9516 40.8064H22.5864C22.8999 40.2678 23.0649 39.6555 23.0645 39.0323C23.0645 38.5896 22.896 38.1904 22.6272 37.879C23.1213 37.6732 23.6039 37.4444 24.0705 37.1898C26.2057 42.5789 31.374 46.129 37.2581 46.129C45.084 46.129 51.4516 39.7615 51.4516 31.9355V31.1096L38.9755 30.219L38.084 17.7419ZM26.6129 1.77419H28.3871V14.2539C27.846 13.6126 27.2526 13.0173 26.6129 12.4744V1.77419ZM19.5161 5.32258H21.2903V9.53895C20.7137 9.36153 20.1194 9.22847 19.5161 9.12113V5.32258ZM12.4194 1.77419H14.1935V9.12024C13.5903 9.22847 12.996 9.36065 12.4194 9.53806V1.77419ZM5.32258 5.32258H7.09677V12.4744C6.4573 13.0176 5.86388 13.6128 5.32258 14.2539V5.32258ZM3.54839 23.9516C3.54839 16.6144 9.51766 10.6452 16.8548 10.6452C24.192 10.6452 30.1613 16.6144 30.1613 23.9516C30.1613 31.2888 24.192 37.2581 16.8548 37.2581C9.51766 37.2581 3.54839 31.2888 3.54839 23.9516ZM8.87097 48.1303L1.77419 50.2594V41.0016L8.87097 42.421V48.1303ZM11.5323 49.6774L10.6452 48.4949V42.1202L12.3182 40.7816C13.7352 39.6516 15.4931 39.035 17.3055 39.0323H21.2903C21.2903 40.0107 20.4946 40.8064 19.5161 40.8064H16.8548C15.3876 40.8064 14.1935 42.0005 14.1935 43.4677V51.3549C13.132 51.1378 12.186 50.5415 11.5323 49.6774ZM24.8387 47.0161C24.8387 47.5049 24.4413 47.9032 23.9516 47.9032H22.1774C21.949 47.893 21.7333 47.7951 21.5753 47.6298C21.4173 47.4646 21.3291 47.2448 21.3291 47.0161C21.3291 46.7875 21.4173 46.5677 21.5753 46.4024C21.7333 46.2372 21.949 46.1392 22.1774 46.129H23.9516C24.4413 46.129 24.8387 46.5273 24.8387 47.0161ZM19.5161 52.3387C19.5161 52.8275 19.1187 53.2258 18.629 53.2258H16.8548C16.3652 53.2258 15.9677 52.8275 15.9677 52.3387V43.4677C15.9677 42.979 16.3652 42.5806 16.8548 42.5806H19.5161V52.3387ZM23.9516 51.4516H22.1774C21.949 51.4414 21.7333 51.3435 21.5753 51.1782C21.4173 51.013 21.3291 50.7932 21.3291 50.5645C21.3291 50.3359 21.4173 50.1161 21.5753 49.9508C21.7333 49.7856 21.949 49.6876 22.1774 49.6774H23.9516C24.18 49.6876 24.3957 49.7856 24.5537 49.9508C24.7117 50.1161 24.7999 50.3359 24.7999 50.5645C24.7999 50.7932 24.7117 51.013 24.5537 51.1782C24.3957 51.3435 24.18 51.4414 23.9516 51.4516ZM24.8387 43.4677C24.8387 43.9565 24.4413 44.3548 23.9516 44.3548H22.1774C21.949 44.3446 21.7333 44.2467 21.5753 44.0815C21.4173 43.9162 21.3291 43.6964 21.3291 43.4677C21.3291 43.2391 21.4173 43.0193 21.5753 42.854C21.7333 42.6888 21.949 42.5909 22.1774 42.5806H23.9516C24.4413 42.5806 24.8387 42.979 24.8387 43.4677ZM25.6043 36.2113C29.4294 33.4728 31.9355 29.0036 31.9355 23.9516C31.9355 22.9022 31.8264 21.8785 31.6215 20.8885C33.1177 20.1179 34.7551 19.66 36.4339 19.5427L37.2332 30.7281L28.2336 40.4782C27.0758 39.2498 26.181 37.7978 25.6043 36.2113ZM37.2581 44.3548C34.4572 44.3598 31.7373 43.4154 29.5421 41.6758L38.508 31.9639L49.6508 32.7596C49.225 39.2248 43.8297 44.3548 37.2581 44.3548Z" fill="#0B1941"/>
<path d="M40.8067 14.1935H39.854L40.8644 28.3303L55.0003 29.3398V28.3871C55.0003 20.5611 48.6327 14.1935 40.8067 14.1935ZM42.5242 26.6697L41.763 16.0041C47.8503 16.469 52.7249 21.3435 53.1906 27.4317L42.5242 26.6697ZM33.71 3.54839H35.4842V5.32258H33.71V3.54839ZM37.2583 3.54839H49.6777V5.32258H37.2583V3.54839ZM33.71 7.09677H35.4842V8.87097H33.71V7.09677ZM37.2583 7.09677H49.6777V8.87097H37.2583V7.09677ZM33.71 10.6452H35.4842V12.4194H33.71V10.6452ZM37.2583 10.6452H49.6777V12.4194H37.2583V10.6452Z" fill="#0B1941"/>
</g>
<defs>
<clipPath id="clip0_1242_3197">
<rect width="55" height="55" fill="white"/>
</clipPath>
</defs>
</svg>
