<svg width="14" height="14" viewBox="0 0 14 14" fill="none" xmlns="http://www.w3.org/2000/svg">
<path d="M4.95133 5.97489C5.68115 7.25704 6.74296 8.31885 8.02511 9.04867L8.71267 8.08578C8.82323 7.93095 8.98672 7.82202 9.17218 7.77959C9.35765 7.73717 9.55223 7.76419 9.71911 7.85556C10.8191 8.45672 12.0339 8.81827 13.2837 8.91644C13.4787 8.9319 13.6608 9.0203 13.7935 9.16403C13.9263 9.30775 14 9.49623 14 9.69189V13.1623C14 13.3549 13.9286 13.5406 13.7996 13.6836C13.6706 13.8266 13.4931 13.9166 13.3016 13.9362C12.8893 13.979 12.474 14 12.0556 14C5.39778 14 0 8.60222 0 1.94444C0 1.526 0.021 1.11067 0.0637778 0.698444C0.0834203 0.506876 0.173432 0.329405 0.316392 0.200382C0.459352 0.0713589 0.645094 -4.15005e-05 0.837667 1.80968e-08H4.30811C4.50377 -2.45144e-05 4.69225 0.0736956 4.83597 0.206462C4.9797 0.339228 5.0681 0.521285 5.08356 0.716333C5.18173 1.96606 5.54328 3.18086 6.14444 4.28089C6.23581 4.44777 6.26283 4.64235 6.22041 4.82782C6.17798 5.01328 6.06905 5.17677 5.91422 5.28733L4.95133 5.97489ZM2.98978 5.46389L4.46756 4.40844C4.04816 3.50318 3.76083 2.54243 3.61433 1.55556H1.56333C1.55867 1.68467 1.55633 1.81456 1.55633 1.94444C1.55556 7.74356 6.25644 12.4444 12.0556 12.4444C12.1854 12.4444 12.3153 12.4421 12.4444 12.4367V10.3857C11.4576 10.2392 10.4968 9.95184 9.59156 9.53244L8.53611 11.0102C8.11118 10.8451 7.69845 10.6502 7.301 10.4269L7.25589 10.4012C5.73034 9.533 4.467 8.26966 3.59878 6.74411L3.57311 6.699C3.34982 6.30155 3.15489 5.88882 2.98978 5.46389Z" fill="white"/>
</svg>
