<svg width="53" height="26" viewBox="0 0 53 26" fill="none" xmlns="http://www.w3.org/2000/svg">
<path fill-rule="evenodd" clip-rule="evenodd" d="M22.0254 18.4824V15.9661H22.8667C23.085 15.9545 23.3002 16.0238 23.467 16.1597C23.5442 16.2242 23.605 16.3044 23.6441 16.3942C23.6843 16.4841 23.7028 16.5813 23.6976 16.6788C23.7131 16.8168 23.6812 16.9559 23.606 17.0747C23.5349 17.1901 23.4237 17.2776 23.2909 17.321C23.1076 17.3818 22.913 17.4087 22.7184 17.4003H22.4043V18.4824H22.0254ZM22.8018 16.2828H22.4043V17.0747H22.8203C22.9501 17.083 23.0777 17.0454 23.1807 16.9691C23.2229 16.931 23.2559 16.8843 23.2765 16.8326C23.2971 16.7808 23.3053 16.7252 23.3002 16.6699C23.3002 16.4149 23.1344 16.2828 22.8018 16.2828ZM24.715 16.8195C24.8355 16.8195 24.9559 16.8423 25.0682 16.8865C25.1804 16.9307 25.2824 16.9955 25.3678 17.0773C25.4533 17.1589 25.5223 17.256 25.5686 17.3627C25.615 17.4694 25.6386 17.5838 25.6386 17.6993C25.6407 17.8101 25.618 17.9201 25.5717 18.0218C25.5254 18.1235 25.4574 18.2146 25.3709 18.2888C25.2803 18.3694 25.1742 18.4318 25.0589 18.4726C24.9426 18.5135 24.819 18.5317 24.6965 18.5263C24.4534 18.5324 24.2176 18.4471 24.0395 18.2888C23.9571 18.2108 23.8912 18.1175 23.8469 18.0148C23.8016 17.912 23.78 17.8017 23.781 17.6905C23.778 17.5771 23.8006 17.4643 23.8469 17.3596C23.8923 17.2549 23.9623 17.1608 24.0488 17.0835C24.1373 17.0025 24.2413 16.9389 24.3556 16.8967C24.4699 16.8544 24.5925 16.8341 24.715 16.8372V16.8195ZM24.715 17.1187C24.6398 17.1145 24.5647 17.1258 24.4946 17.1516C24.4236 17.1773 24.3608 17.2171 24.3083 17.2682C24.2032 17.3758 24.1466 17.5178 24.1507 17.6642C24.1476 17.7354 24.161 17.8065 24.1878 17.873C24.2146 17.9395 24.2557 18.0002 24.3083 18.0513C24.3639 18.1028 24.4308 18.1427 24.5039 18.1685C24.577 18.1943 24.6553 18.2053 24.7325 18.2009C24.8097 18.2046 24.8859 18.1932 24.957 18.1674C25.0291 18.1417 25.0939 18.1021 25.1485 18.0513C25.2525 17.947 25.3091 17.8079 25.306 17.6642C25.3081 17.5908 25.2947 17.5179 25.2659 17.4498C25.2371 17.3817 25.1938 17.3199 25.1392 17.2682C25.0826 17.2175 25.0157 17.1781 24.9426 17.1524C24.8695 17.1268 24.7922 17.1153 24.715 17.1187ZM28.18 16.8195H28.5496L27.7825 18.5088H27.6631L27.1544 17.3562L26.6457 18.5088H26.5262L25.7591 16.8195H26.1288L26.5808 17.8313L27.0246 16.8195H27.3016L27.7362 17.8313L28.1985 16.8195H28.18ZM30.1951 17.6993H28.9564C28.9564 17.8441 29.0161 17.983 29.1232 18.0865C29.1747 18.1349 29.2375 18.1723 29.3054 18.1965C29.3744 18.2209 29.4475 18.2312 29.5196 18.2272C29.7472 18.226 29.9675 18.155 30.1488 18.0249V18.3504C30.051 18.4114 29.9459 18.4589 29.8347 18.4911C29.7132 18.521 29.5896 18.5358 29.465 18.5351C29.3024 18.5398 29.1417 18.5001 29.0027 18.4207C28.8833 18.3411 28.7844 18.2356 28.7164 18.1128C28.6258 17.9432 28.5898 17.7526 28.6114 17.5637C28.632 17.3748 28.7103 17.1959 28.8359 17.0483C28.909 16.9701 28.9986 16.9082 29.0995 16.8672C29.2004 16.8261 29.3085 16.8068 29.4187 16.8107C29.5227 16.8072 29.6267 16.8259 29.7225 16.8654C29.8193 16.905 29.9037 16.9645 29.9727 17.0395C30.1179 17.2175 30.19 17.4394 30.1766 17.6642L30.1951 17.6993ZM28.9842 17.5058H29.8532C29.8532 17.3953 29.811 17.2885 29.7328 17.2066C29.6936 17.1703 29.6473 17.1421 29.5968 17.1239C29.5454 17.1058 29.4908 17.0979 29.4372 17.1011C29.325 17.0983 29.2159 17.1361 29.1324 17.2066C29.049 17.2876 28.9965 17.393 28.9842 17.5058ZM30.9437 16.8459V17.2243C31.1095 16.9691 31.2763 16.8372 31.4421 16.8372C31.5986 16.8493 31.7448 16.9187 31.8488 17.0307L31.6645 17.3122C31.578 17.222 31.4596 17.1656 31.3319 17.1539C31.2753 17.1563 31.2197 17.171 31.1702 17.1968C31.1198 17.2228 31.0776 17.2593 31.0446 17.3034C30.9633 17.4072 30.9211 17.5345 30.9252 17.6642V18.544H30.574V16.8195L30.9437 16.8459ZM32.5233 15.9661H34.6949V16.2828H33.7713V18.4824H33.3924V16.2828H32.4677V15.9661H32.5233ZM35.2963 16.8459C35.5403 16.8423 35.7761 16.9308 35.9522 17.0922C36.0397 17.1713 36.1087 17.2669 36.1551 17.3731C36.2014 17.4792 36.223 17.5934 36.2199 17.7082C36.222 17.8189 36.1993 17.9289 36.153 18.0306C36.1077 18.1322 36.0387 18.2233 35.9522 18.2976C35.8626 18.3781 35.7555 18.4406 35.6402 18.4814C35.5239 18.5222 35.4013 18.5405 35.2778 18.5351C35.0347 18.5412 34.7989 18.4558 34.6218 18.2976C34.4602 18.1345 34.3706 17.9189 34.3706 17.6949C34.3706 17.471 34.4602 17.2555 34.6218 17.0922C34.7104 17.0102 34.8164 16.9461 34.9328 16.9037C35.0481 16.8614 35.1717 16.8418 35.2963 16.8459ZM35.2963 17.1451C35.2211 17.141 35.146 17.1521 35.0759 17.1779C35.0059 17.2037 34.9421 17.2435 34.8896 17.2947C34.835 17.3463 34.7917 17.4081 34.7629 17.4762C34.7341 17.5443 34.7207 17.6172 34.7227 17.6905C34.7197 17.7627 34.733 17.8346 34.7619 17.9014C34.7907 17.9682 34.834 18.0283 34.8896 18.0776C34.9441 18.1285 35.009 18.1681 35.0811 18.1939C35.1521 18.2196 35.2294 18.231 35.3056 18.2272C35.3818 18.2326 35.459 18.2221 35.5311 18.1963C35.6021 18.1704 35.667 18.13 35.7216 18.0776C35.7751 18.0276 35.8184 17.9675 35.8472 17.9008C35.876 17.8341 35.8894 17.7626 35.8873 17.6905C35.8894 17.6172 35.876 17.5443 35.8472 17.4762C35.8184 17.4081 35.7761 17.3463 35.7216 17.2947C35.6639 17.2443 35.597 17.2052 35.5239 17.1796C35.4518 17.1539 35.3735 17.1421 35.2963 17.1451ZM37.7449 15.9926H39.2421V16.3093H38.0868V17.0747H39.168V17.4003H38.0868V18.1832H39.2421V18.5088H37.7079V15.9661L37.7449 15.9926ZM41.0627 17.3034V18.4824H40.7115V17.5586C40.726 17.4255 40.7002 17.2911 40.6374 17.1715C40.6024 17.1281 40.555 17.0958 40.5004 17.0785C40.4469 17.0613 40.3882 17.0599 40.3326 17.0747C40.2616 17.0745 40.1905 17.0927 40.1297 17.1274C40.0525 17.1718 39.9835 17.2283 39.9259 17.2947V18.4824H39.584V16.8195H39.9259V17.0747C40.0566 16.9281 40.243 16.8365 40.4438 16.8195C40.5499 16.8198 40.6549 16.8489 40.7445 16.9034C40.8341 16.9579 40.9062 17.0356 40.9515 17.1274C41.0194 17.0387 41.1059 16.9651 41.2068 16.9119C41.3077 16.8586 41.4189 16.8272 41.5343 16.8195C41.6125 16.8186 41.6908 16.8338 41.7618 16.8642C41.8339 16.8946 41.8978 16.9394 41.9503 16.9955C42.0728 17.1522 42.1315 17.346 42.1161 17.541V18.4824H41.7649V17.497C41.7732 17.3857 41.7443 17.2748 41.6815 17.1803C41.6517 17.1425 41.6125 17.1124 41.5672 17.0925C41.5219 17.0725 41.4725 17.0634 41.4231 17.0659C41.3448 17.0699 41.2676 17.0911 41.1986 17.1276C41.1296 17.1642 41.0709 17.2154 41.0256 17.277L41.0627 17.3034ZM42.5969 19.3534V16.8195H43.2065C43.4753 16.8163 43.7348 16.9071 43.9366 17.0747C44.0231 17.1541 44.091 17.2501 44.1353 17.3562C44.1806 17.4624 44.2002 17.5763 44.1961 17.6905C44.2012 17.804 44.1817 17.9173 44.1384 18.0232C44.0952 18.1292 44.0303 18.2256 43.9459 18.3064C43.8666 18.3851 43.7698 18.4467 43.6627 18.4877C43.5566 18.5286 43.4423 18.5478 43.327 18.544C43.2034 18.5438 43.0809 18.5198 42.9666 18.4736V19.3534H42.5969ZM43.1973 17.1539H42.9203V18.1745C43.0191 18.2263 43.1303 18.2535 43.2436 18.2536C43.3177 18.2565 43.3919 18.2439 43.4609 18.2165C43.5298 18.1891 43.5916 18.1477 43.6411 18.0953C43.7471 17.9814 43.8027 17.8335 43.7986 17.6818C43.7976 17.5808 43.7729 17.4813 43.7245 17.3914C43.6822 17.314 43.6133 17.2521 43.5299 17.2155C43.4135 17.1684 43.2868 17.1473 43.1602 17.1539H43.1973ZM45.3967 16.8459C45.6418 16.8423 45.8776 16.9308 46.0537 17.0922C46.1412 17.1713 46.2102 17.2669 46.2565 17.3731C46.3018 17.4792 46.3245 17.5934 46.3214 17.7082C46.3235 17.8189 46.3008 17.9289 46.2545 18.0306C46.2081 18.1322 46.1391 18.2233 46.0537 18.2976C45.9631 18.3781 45.857 18.4406 45.7417 18.4814C45.6253 18.5222 45.5017 18.5405 45.3782 18.5351C45.1352 18.5412 44.8994 18.4558 44.7223 18.2976C44.6378 18.2209 44.5709 18.1279 44.5256 18.0248C44.4813 17.9217 44.4597 17.8108 44.4638 17.6993C44.4586 17.5856 44.4803 17.4723 44.5266 17.3673C44.5729 17.2624 44.643 17.1685 44.7315 17.0922C44.8201 17.0113 44.9241 16.9478 45.0384 16.9055C45.1527 16.8632 45.2742 16.843 45.3967 16.8459ZM45.3967 17.1451C45.3216 17.141 45.2464 17.1521 45.1764 17.1779C45.1063 17.2037 45.0435 17.2435 44.99 17.2947C44.9354 17.3463 44.8932 17.4081 44.8644 17.4762C44.8355 17.5443 44.8221 17.6172 44.8242 17.6905C44.8211 17.7627 44.8345 17.8346 44.8633 17.9014C44.8911 17.9682 44.9354 18.0283 44.99 18.0776C45.0456 18.1285 45.1105 18.1681 45.1815 18.1939C45.2536 18.2196 45.3298 18.231 45.406 18.2272C45.4832 18.2326 45.5594 18.2221 45.6315 18.1963C45.7036 18.1704 45.7684 18.13 45.822 18.0776C45.8766 18.0276 45.9198 17.9675 45.9486 17.9008C45.9764 17.8341 45.9909 17.7626 45.9888 17.6905C45.9909 17.6172 45.9775 17.5443 45.9486 17.4762C45.9198 17.4081 45.8766 17.3463 45.822 17.2947C45.7653 17.2439 45.6984 17.2046 45.6253 17.1789C45.5522 17.1531 45.475 17.1417 45.3967 17.1451ZM48.8534 16.8459H49.2231L48.456 18.5351H48.3448L47.8279 17.3826L47.3192 18.5351H47.208L46.4419 16.8459H46.8115L47.2636 17.8578L47.6332 16.8195H47.8927L48.3262 17.8313L48.7793 16.8195L48.8534 16.8459ZM50.8768 17.7257H49.5928C49.5928 17.7983 49.6082 17.8701 49.6381 17.9367C49.668 18.0033 49.7122 18.0633 49.7678 18.1128C49.8203 18.1613 49.8832 18.1987 49.9511 18.223C50.0201 18.2472 50.0932 18.2576 50.1653 18.2536C50.3929 18.2512 50.6122 18.1803 50.7945 18.0513V18.3768C50.6956 18.4362 50.5906 18.4836 50.4804 18.5176C50.3589 18.5468 50.2353 18.5616 50.1107 18.5615C49.948 18.5672 49.7874 18.5275 49.6484 18.4472C49.5248 18.371 49.426 18.2646 49.3621 18.1392C49.2839 18.0018 49.2447 17.8469 49.2509 17.6905C49.2417 17.4647 49.3251 17.2441 49.4816 17.0747C49.5547 16.9965 49.6443 16.9346 49.7452 16.8935C49.8451 16.8525 49.9542 16.8332 50.0644 16.8372C50.1684 16.8335 50.2724 16.8523 50.3682 16.8919C50.4639 16.9314 50.5494 16.9909 50.6184 17.0659C50.7636 17.2439 50.8356 17.4658 50.8223 17.6905L50.8768 17.7257ZM49.6577 17.5322H50.535C50.536 17.4216 50.4938 17.3149 50.4155 17.233C50.3754 17.1975 50.329 17.17 50.2786 17.1518C50.2281 17.1337 50.1735 17.1254 50.12 17.1274C50.0067 17.1229 49.8976 17.1609 49.8142 17.233C49.7318 17.3154 49.6772 17.4197 49.6577 17.5322ZM51.6162 16.8724V17.2507C51.783 16.9955 51.9498 16.8635 52.1156 16.8635C52.1938 16.8686 52.27 16.8884 52.339 16.9217C52.409 16.9548 52.4708 17.0009 52.5223 17.0571L52.3462 17.3386C52.3112 17.2704 52.2587 17.211 52.1949 17.1652C52.13 17.1194 52.0559 17.0884 51.9766 17.0747C51.9189 17.0764 51.8623 17.0908 51.8108 17.1167C51.7593 17.1426 51.715 17.1794 51.681 17.2243C51.6028 17.3298 51.5616 17.4558 51.5616 17.5849V18.4648H51.2197V16.8195L51.6162 16.8724Z" fill="#F6F6F6"/>
<path fill-rule="evenodd" clip-rule="evenodd" d="M13.681 19.2327L13.1009 20.2741C11.948 22.2415 10.2854 23.8607 8.28799 24.9604C8.08659 25.0496 7.93823 25.124 7.73766 25.2058C7.53874 25.2715 7.34481 25.351 7.15749 25.4439C10.8341 24.7836 14.1485 22.8184 16.4924 19.9096C18.5229 17.4549 20.6132 13.4753 20.3156 8.97509C20.0778 4.65336 17.593 1.38041 13.9562 0.465486C10.0732 -0.516401 7.14257 1.20934 5.02994 4.03598C4.7697 4.38093 4.53846 4.7466 4.33789 5.12943C7.20142 3.70123 10.6161 3.06893 13.4946 5.12943C16.0092 6.9518 16.7601 10.619 16.1053 13.8176C15.7166 15.5359 15.0187 17.1692 14.0449 18.6376C13.9711 18.7716 13.7175 19.0989 13.681 19.203V19.2327Z" fill="#E76120"/>
<path fill-rule="evenodd" clip-rule="evenodd" d="M3.66136 25.2494C3.39283 25.4354 2.35185 25.1081 2.0766 25.0634C2.79924 25.4919 3.61164 25.7465 4.44956 25.8073C5.36539 25.8385 6.27956 25.7204 7.15727 25.4577C7.34458 25.3649 7.53852 25.2853 7.73743 25.2197C7.938 25.1379 8.08719 25.0634 8.28776 24.9742C10.2868 23.8705 11.9503 22.246 13.1006 20.2731L13.6808 19.254C13.7479 19.0457 13.9038 18.7706 13.9933 18.5548C14.8552 16.7439 15.2589 14.749 15.1685 12.7454C15.0989 11.6466 14.7864 10.5771 14.2535 9.61384C13.4264 8.23918 12.1227 7.2166 10.591 6.74061C9.05855 6.26471 7.40508 6.36865 5.94472 7.03269C4.39568 7.75226 3.12761 8.96289 2.33693 10.4767C2.21791 10.6849 2.12119 10.9304 2.01709 11.1089C2.25844 11.0018 2.49432 10.8827 2.72373 10.7519C3.51632 10.3559 4.36419 10.08 5.23775 9.93367C7.633 9.53941 10.1625 10.313 11.3817 12.3735C11.9644 13.5206 12.1749 14.8205 11.9842 16.0927C11.6942 18.3612 10.7974 20.5095 9.38842 22.3112C9.05938 22.7178 8.70134 23.1007 8.3176 23.4568C7.92972 23.8008 7.51449 24.1117 7.07522 24.3866C6.24973 24.8998 4.59045 25.5247 3.66136 25.2792V25.2494Z" fill="#009844"/>
<path fill-rule="evenodd" clip-rule="evenodd" d="M2.07682 25.0636C2.35198 25.1082 3.39313 25.4355 3.66083 25.2495C3.46275 25.2001 3.27884 25.1022 3.127 24.9647C2.97517 24.8271 2.85971 24.6541 2.79092 24.4611C2.29993 23.3304 2.71649 21.2625 2.98428 20.1468C3.20748 19.2542 3.44535 18.4285 3.72797 17.5657L4.56838 15.1035H1.2437C0.929586 15.9358 0.680862 16.7914 0.49985 17.6623C-0.0877741 19.9831 -0.697781 23.9925 2.07682 25.0636Z" fill="#005BA1"/>
<path fill-rule="evenodd" clip-rule="evenodd" d="M1.13926 12.9014L1.38467 13.1767C1.5632 12.9894 1.77189 12.8335 2.00205 12.7155C2.28078 12.5778 2.58752 12.5061 2.8984 12.5061C3.20929 12.5061 3.51628 12.5778 3.79476 12.7155C3.91411 12.7786 4.02848 12.8507 4.13706 12.9312C4.23568 13.0222 4.34012 13.1066 4.44952 13.1841L4.69485 12.9312C4.49013 12.6941 4.23568 12.5039 3.95058 12.3733C3.62237 12.2157 3.26275 12.1338 2.8984 12.1338C2.53406 12.1338 2.17436 12.2157 1.8459 12.3733C1.56071 12.5036 1.30693 12.6939 1.10205 12.9312L1.13926 12.9014Z" fill="#005BA1"/>
<path fill-rule="evenodd" clip-rule="evenodd" d="M1.5708 13.372L1.82375 13.6546C2.03982 13.437 2.31598 13.2889 2.61684 13.2292C2.9177 13.1697 3.22949 13.2011 3.51228 13.3199C3.68716 13.3945 3.84298 13.5091 3.96564 13.6546L4.26318 13.3273C3.89933 12.9706 3.412 12.7681 2.90228 12.762C2.64974 12.7633 2.40044 12.8183 2.17086 12.9235C1.94128 13.0287 1.73673 13.1816 1.5708 13.372Z" fill="#005BA1"/>
<path fill-rule="evenodd" clip-rule="evenodd" d="M2.05469 13.855L2.32248 14.0707L2.39682 14.0186C2.5417 13.9059 2.71914 13.8434 2.90264 13.8401C3.28199 13.8401 3.35608 13.9963 3.60224 14.1154L3.78043 13.855C3.67103 13.735 3.53759 13.6391 3.38923 13.5736C3.24054 13.508 3.07992 13.4741 2.91748 13.4741C2.75511 13.4741 2.59449 13.508 2.44588 13.5736C2.29736 13.6391 2.16409 13.735 2.05469 13.855Z" fill="#005BA1"/>
<path fill-rule="evenodd" clip-rule="evenodd" d="M2.47852 14.3239L2.96196 14.8074L3.35664 14.3239C3.30252 14.2598 3.2353 14.2082 3.15947 14.1728C3.08371 14.1375 3.00099 14.1191 2.91736 14.1191C2.83374 14.1191 2.75102 14.1375 2.67519 14.1728C2.59944 14.2082 2.53222 14.2598 2.47852 14.3239Z" fill="#005BA1"/>
<path fill-rule="evenodd" clip-rule="evenodd" d="M24.0051 10.0556C26.1477 9.81774 25.4487 12.5751 24.5038 13.1807C24.0456 13.3946 23.5489 13.4654 23.0603 13.3861L23.9687 10.0556H24.0051ZM22.0254 14.2187C22.9136 14.3219 23.8099 14.2709 24.6859 14.0673C26.2205 13.2996 26.6565 10.6611 25.8938 9.67714C25.3941 9.03918 24.1771 9.21219 23.4416 9.20135L22.0527 14.2187H22.0254Z" fill="#F6F6F6"/>
<path fill-rule="evenodd" clip-rule="evenodd" d="M28.1323 14.0052C28.6458 13.8434 29.2628 14.4096 28.5411 14.5534C27.8194 14.6973 27.3419 14.2479 28.1323 14.0052ZM28.9499 11.5065C29.5496 11.2998 29.3238 12.2885 29.0022 12.4053C28.6806 12.5222 28.5063 12.4053 28.576 12.0188C28.6458 11.6324 28.7242 11.5514 28.9499 11.4705V11.5065ZM28.1672 12.7829C28.0577 12.7959 27.9531 12.8362 27.8621 12.9004C27.772 12.9646 27.6974 13.0507 27.6461 13.1514C27.5908 13.2621 27.5782 13.3901 27.6102 13.5101C27.6422 13.6301 27.7168 13.733 27.8194 13.7984C27.1414 14.0681 26.9505 14.5445 27.2373 14.8681C27.7235 15.3714 29.8973 15.1557 29.5321 13.8344C29.3674 13.2143 28.4627 13.466 28.3154 13.1514C28.4539 12.7919 28.8017 13.2233 29.5147 12.7379C29.6803 12.5914 29.8072 12.4044 29.8847 12.194C29.9622 11.9837 29.9874 11.7565 29.9583 11.5335H30.341L30.4969 10.9403C29.628 10.8145 28.2631 10.8055 27.9415 11.8391C27.8882 12.0238 27.8882 12.2205 27.9415 12.4053C27.9522 12.4783 27.9822 12.5468 28.0287 12.6031L28.1759 12.8098L28.1672 12.7829Z" fill="#F6F6F6"/>
<path fill-rule="evenodd" clip-rule="evenodd" d="M46.7575 13.4459C45.3549 13.7384 45.6529 11.6256 47.3658 11.7015C47.2107 12.2976 47.0075 12.881 46.7575 13.4459ZM47.6749 10.8238C46.3819 10.9105 45.3549 11.0947 44.9781 12.5574C44.5262 14.3018 46.0839 14.4102 47.4545 14.1827L49.1341 9.18774H48.2278L47.6749 10.8238Z" fill="#F6F6F6"/>
<path fill-rule="evenodd" clip-rule="evenodd" d="M36.2286 11.7069C36.1268 12.1307 35.9639 12.5651 35.8428 12.9888C35.7207 13.4125 35.7309 13.3278 35.4673 13.4444C34.4515 13.8893 34.7252 12.7346 35.111 12.2261C35.2275 12.0336 35.3949 11.8814 35.594 11.789C35.7931 11.6966 36.0136 11.668 36.2286 11.7069ZM35.4763 13.9634C35.482 13.9915 35.482 14.0202 35.4763 14.0482C35.4763 14.0482 35.4763 14.1542 35.4763 14.2177H36.2591L37.2738 10.9865C36.629 10.8227 35.9537 10.8521 35.3247 11.0713C33.3655 11.8447 33.4063 15.309 35.4469 13.9634H35.4763Z" fill="#F6F6F6"/>
<path fill-rule="evenodd" clip-rule="evenodd" d="M51.7397 11.6864C51.6781 12.0832 51.5319 12.5533 51.4403 12.9503C51.4258 13.0542 51.3933 13.1521 51.3454 13.2356C51.2975 13.3192 51.2359 13.3862 51.1658 13.4312C51.0956 13.476 51.0178 13.4975 50.9399 13.4938C50.8621 13.49 50.7868 13.4613 50.7184 13.4097C50.5037 13.086 50.7723 11.6028 51.7397 11.6864ZM51.1717 13.9111V14.1618H51.7551L52.5224 11.0284C52.1075 10.8355 51.6576 10.8333 51.2419 11.022C50.8253 11.2106 50.4669 11.5798 50.2197 12.0729C49.6971 13.3053 50.0427 14.9766 51.1563 13.9529L51.1717 13.9111Z" fill="#F6F6F6"/>
<path fill-rule="evenodd" clip-rule="evenodd" d="M41.5098 14.2706H42.3399L42.8732 12.6113C42.8732 12.5368 42.8732 12.4836 42.9337 12.4305C43.0057 12.1539 42.9851 12.1432 43.2626 11.9412C44.0003 11.3775 44.1133 11.7284 43.9489 12.2922L43.3642 14.2706H44.1636L44.8613 12.1433C44.8613 12.0688 44.8613 11.9944 44.8613 11.9518C44.9629 11.4945 44.8613 11.0051 44.4822 10.8882C44.0482 10.8512 43.6166 10.9839 43.2729 11.2604L43.354 10.9414H42.5341L41.5098 14.2281V14.2706Z" fill="#F6F6F6"/>
<path fill-rule="evenodd" clip-rule="evenodd" d="M32.8049 10.7646H32.3828L32.1914 11.5166H32.6049C32.5357 12.0666 31.4011 15.0524 33.303 14.0759L33.4183 13.1779C33.3038 13.2609 33.1825 13.3213 33.0578 13.3575C32.6357 13.3013 33.1569 11.8645 33.2338 11.5278H33.7174L33.8857 10.7646H33.4405L33.6328 10.0349H33.0039L32.8271 10.7646H32.8049Z" fill="#F6F6F6"/>
<path fill-rule="evenodd" clip-rule="evenodd" d="M39.8154 14.2596L40.7187 14.2706L42.3568 9.18774H41.4325L39.8154 14.2596Z" fill="#F6F6F6"/>
<path fill-rule="evenodd" clip-rule="evenodd" d="M37.2739 14.2596L37.8577 14.2706L38.9682 9.18774H38.3772L37.2739 14.2596Z" fill="#F6F6F6"/>
<path fill-rule="evenodd" clip-rule="evenodd" d="M26.2612 14.2706H26.9182L27.7197 11.2616H27.0628L26.2612 14.2706ZM27.7037 10.0349C27.8876 10.0349 27.992 10.2458 27.9438 10.4949C27.925 10.6151 27.8742 10.725 27.7992 10.808C27.7242 10.8908 27.6287 10.9424 27.5269 10.9549C27.3511 10.9549 27.2386 10.7536 27.2868 10.4949C27.3065 10.3753 27.3573 10.2663 27.4323 10.1837C27.5073 10.101 27.6019 10.0489 27.7037 10.0349Z" fill="#F6F6F6"/>
<path fill-rule="evenodd" clip-rule="evenodd" d="M30.4971 14.2706H31.1546L31.9559 11.2616H31.2984L30.4971 14.2706ZM31.9398 10.0349C32.1167 10.0349 32.2283 10.2458 32.1801 10.4949C32.1622 10.6151 32.1113 10.725 32.0363 10.808C31.9612 10.8908 31.8656 10.9424 31.7638 10.9549C31.5789 10.9549 31.4753 10.7536 31.5226 10.4949C31.5423 10.3753 31.5941 10.2663 31.6682 10.1837C31.7433 10.101 31.8388 10.0489 31.9398 10.0349Z" fill="#F6F6F6"/>
<path fill-rule="evenodd" clip-rule="evenodd" d="M48.2866 14.2706H48.9438L49.7456 11.2616H49.0884L48.2866 14.2706ZM49.7295 10.0349C49.9054 10.0349 50.0179 10.2458 49.9697 10.4949C49.9509 10.6151 49.9001 10.725 49.8251 10.808C49.7501 10.8908 49.6545 10.9424 49.5527 10.9549C49.3688 10.9549 49.2643 10.7536 49.3125 10.4949C49.3322 10.3753 49.3831 10.2663 49.4581 10.1837C49.5331 10.101 49.6277 10.0489 49.7295 10.0349Z" fill="#F6F6F6"/>
</svg>
