<svg width="14" height="12" viewBox="0 0 14 12" fill="none" xmlns="http://www.w3.org/2000/svg">
<path d="M0.7 0.75H13.3C13.4857 0.75 13.6637 0.811458 13.795 0.920854C13.9263 1.03025 14 1.17862 14 1.33333V10.6667C14 10.8214 13.9263 10.9697 13.795 11.0791C13.6637 11.1885 13.4857 11.25 13.3 11.25H0.7C0.514348 11.25 0.336301 11.1885 0.205025 11.0791C0.0737498 10.9697 0 10.8214 0 10.6667V1.33333C0 1.17862 0.0737498 1.03025 0.205025 0.920854C0.336301 0.811458 0.514348 0.75 0.7 0.75ZM12.6 3.22217L7.0504 7.36383L1.4 3.20933V10.0833H12.6V3.22217ZM1.7577 1.91667L7.0427 5.80283L12.2514 1.91667H1.7577Z" fill="white"/>
</svg>
