<svg width="55" height="55" viewBox="0 0 55 55" fill="none" xmlns="http://www.w3.org/2000/svg">
<g clip-path="url(#clip0_1242_3168)">
<path d="M42.1094 51.5625C42.1094 52.0352 41.9203 52.4648 41.6023 52.7742C41.293 53.0922 40.8633 53.2812 40.3906 53.2812H14.6094C13.6641 53.2812 12.8906 52.5078 12.8906 51.5625C12.8906 50.6172 13.2773 49.7578 13.8961 49.1305C14.5234 48.5117 15.3828 48.125 16.3281 48.125H38.6719C40.5711 48.125 42.1094 49.6633 42.1094 51.5625Z" fill="#3870CF"/>
<path d="M36.0938 48.125H18.9062C20.5133 47.0508 21.4844 45.2461 21.4844 43.3039V42.9688H33.5156V43.3039C33.5156 45.2461 34.4867 47.0508 36.0938 48.125Z" fill="#3870CF"/>
<path d="M53.2812 36.0938V39.5312C53.2812 41.4305 51.743 42.9688 49.8438 42.9688H5.15625C3.25703 42.9688 1.71875 41.4305 1.71875 39.5312V36.0938H53.2812Z" fill="#ADBDEB"/>
<path d="M49.8438 8.59375H5.15625C3.25703 8.59375 1.71875 10.132 1.71875 12.0312V36.0938H53.2812V12.0312C53.2812 10.132 51.743 8.59375 49.8438 8.59375Z" fill="#C2D6FF"/>
<path d="M5.15625 12.0312H10.3125V18.9062H5.15625V12.0312ZM44.6875 12.0312H49.8438V18.9062H44.6875V12.0312Z" fill="#3C82C1"/>
<path d="M27.5 25.7812V32.6562L13.75 21.4844V14.6094L27.5 25.7812ZM41.25 14.6094V21.4844L27.5 32.6562V25.7812L41.25 14.6094Z" fill="#CF9E76"/>
<path d="M41.25 14.6094L27.5 25.7812L13.75 14.6094L20.6594 9.42734C20.7883 10.7508 21.2953 12.0055 22.1289 13.0539L24.0625 15.4687V17.1875C24.0625 19.0867 25.6008 20.625 27.5 20.625C28.4453 20.625 29.3047 20.2383 29.932 19.6195C30.5508 18.9922 30.9375 18.1328 30.9375 17.1875V15.4687L32.8711 13.0539C33.7011 12.0125 34.2116 10.7528 34.3406 9.42734L41.25 14.6094Z" fill="#ECC19C"/>
<path d="M30.9375 15.4688V17.1875C30.9375 18.1328 30.5508 18.9922 29.932 19.6195C29.3047 20.2383 28.4453 20.625 27.5 20.625C25.6008 20.625 24.0625 19.0867 24.0625 17.1875V15.4688H27.5H30.9375Z" fill="#3870CF"/>
<path d="M34.375 8.75703C34.375 8.98047 34.3664 9.20391 34.3406 9.42734C34.2117 10.7508 33.7047 12.0055 32.8711 13.0539L30.9375 15.4688H24.0625L22.1289 13.0539C21.2989 12.0125 20.7884 10.7528 20.6594 9.42734C20.6336 9.20391 20.625 8.98047 20.625 8.75703V8.59375C20.625 6.69453 21.3984 4.97578 22.6359 3.72969C23.9271 2.44182 25.6763 1.71864 27.5 1.71875C31.2984 1.71875 34.375 4.79531 34.375 8.59375V8.75703Z" fill="#ADBDEB"/>
<path d="M27.5 10.3125C28.4492 10.3125 29.2188 9.54299 29.2188 8.59375C29.2188 7.64451 28.4492 6.875 27.5 6.875C26.5508 6.875 25.7812 7.64451 25.7812 8.59375C25.7812 9.54299 26.5508 10.3125 27.5 10.3125Z" fill="#3870CF"/>
<path d="M23.2031 38.6719H24.9219V40.3906H23.2031V38.6719ZM26.6406 38.6719H28.3594V40.3906H26.6406V38.6719ZM30.0781 38.6719H31.7969V40.3906H30.0781V38.6719Z" fill="black"/>
<path d="M49.8438 7.73438H35.1837C34.7548 3.8732 31.4746 0.859375 27.5 0.859375C23.5254 0.859375 20.2452 3.8732 19.8163 7.73438H5.15625C2.78695 7.73438 0.859375 9.66195 0.859375 12.0312V39.5312C0.859375 41.9005 2.78695 43.8281 5.15625 43.8281H20.5932C20.5215 44.5068 20.309 45.1631 19.9693 45.755C19.6295 46.3469 19.17 46.8614 18.6201 47.2656H16.3281C13.9588 47.2656 12.0312 49.1932 12.0312 51.5625C12.0312 52.9839 13.188 54.1406 14.6094 54.1406H40.3906C41.812 54.1406 42.9688 52.9839 42.9688 51.5625C42.9688 49.1932 41.0412 47.2656 38.6719 47.2656H36.3808C35.8309 46.8614 35.3713 46.3469 35.0316 45.755C34.6918 45.1631 34.4793 44.5068 34.4077 43.8281H49.8438C52.213 43.8281 54.1406 41.9005 54.1406 39.5312V12.0312C54.1406 9.66195 52.213 7.73438 49.8438 7.73438ZM21.4844 8.59375C21.4844 5.27656 24.1837 2.57812 27.5 2.57812C30.8163 2.57812 33.5156 5.27656 33.5156 8.59375V8.76047C33.5138 10.1262 33.0491 11.4509 32.1973 12.5185L30.5241 14.6094H28.3594V11.0138C28.8606 10.8371 29.2949 10.5096 29.6026 10.0764C29.9103 9.64308 30.0764 9.12519 30.0781 8.59375C30.0781 7.17234 28.9214 6.01562 27.5 6.01562C26.0786 6.01562 24.9219 7.17234 24.9219 8.59375C24.9219 9.71266 25.6429 10.658 26.6406 11.0138V14.6094H24.4759L22.8035 12.5185C21.9512 11.4512 21.4861 10.1263 21.4844 8.76047V8.59375ZM24.9219 16.3281H30.0781V17.1875C30.0781 18.6089 28.9214 19.7656 27.5 19.7656C26.0786 19.7656 24.9219 18.6089 24.9219 17.1875V16.3281ZM26.6406 8.59375C26.6405 8.42354 26.6908 8.2571 26.7852 8.11551C26.8797 7.97391 27.014 7.86352 27.1713 7.7983C27.3285 7.73309 27.5015 7.71598 27.6685 7.74914C27.8354 7.78231 27.9888 7.86426 28.1091 7.98461C28.2295 8.10497 28.3114 8.25833 28.3446 8.42528C28.3778 8.59223 28.3607 8.76526 28.2954 8.92249C28.2302 9.07971 28.1198 9.21405 27.9782 9.30851C27.8366 9.40297 27.6702 9.45329 27.5 9.45312C27.0256 9.45312 26.6406 9.06727 26.6406 8.59375ZM23.2031 15.7704V17.1875C23.2031 19.5568 25.1307 21.4844 27.5 21.4844C29.8693 21.4844 31.7969 19.5568 31.7969 17.1875V15.7704L33.5397 13.5919C34.1669 12.8033 34.634 11.8998 34.9147 10.9321L39.8535 14.6369L27.5 24.6735L15.1465 14.636L20.0853 10.9313C20.3659 11.899 20.833 12.8025 21.4603 13.591L23.2031 15.7704ZM14.6094 16.4149L26.6406 26.1903V30.8507L14.6094 21.0753V16.4149ZM28.3594 26.1903L40.3906 16.4149V21.0753L28.3594 30.8507V26.1903ZM5.15625 9.45312H19.1924L12.8906 14.1797V21.8934L27.5 33.7631L42.1094 21.8934V14.1797L35.8067 9.45312H49.8438C51.2652 9.45312 52.4219 10.6098 52.4219 12.0312V35.2344H2.57812V12.0312C2.57812 10.6098 3.73484 9.45312 5.15625 9.45312ZM41.25 51.5625C41.25 51.7904 41.1595 52.009 40.9983 52.1702C40.8371 52.3313 40.6185 52.4219 40.3906 52.4219H14.6094C14.3815 52.4219 14.1629 52.3313 14.0017 52.1702C13.8405 52.009 13.75 51.7904 13.75 51.5625C13.75 50.1411 14.9067 48.9844 16.3281 48.9844H38.6719C40.0933 48.9844 41.25 50.1411 41.25 51.5625ZM33.9702 47.2656H21.0298C21.7727 46.2636 22.2172 45.0719 22.312 43.8281H32.6889C32.7837 45.0718 33.2279 46.2633 33.9702 47.2656ZM49.8438 42.1094H5.15625C3.73484 42.1094 2.57812 40.9527 2.57812 39.5312V36.9531H52.4219V39.5312C52.4219 40.9527 51.2652 42.1094 49.8438 42.1094Z" fill="black"/>
<path d="M48.9844 31.7969H50.7031V33.5156H48.9844V31.7969ZM45.5469 31.7969H47.2656V33.5156H45.5469V31.7969ZM42.1094 31.7969H43.8281V33.5156H42.1094V31.7969ZM42.1094 28.3594H50.7031V30.0781H42.1094V28.3594ZM42.1094 24.9219H50.7031V26.6406H42.1094V24.9219ZM7.73438 31.7969H9.45312V33.5156H7.73438V31.7969ZM11.1719 31.7969H12.8906V33.5156H11.1719V31.7969ZM4.29688 31.7969H6.01562V33.5156H4.29688V31.7969ZM4.29688 28.3594H12.8906V30.0781H4.29688V28.3594ZM4.29688 24.9219H12.8906V26.6406H4.29688V24.9219ZM11.1719 11.1719H4.29688V19.7656H11.1719V11.1719ZM9.45312 18.0469H6.01562V12.8906H9.45312V18.0469ZM4.29688 21.4844H11.1719V23.2031H4.29688V21.4844ZM50.7031 11.1719H43.8281V19.7656H50.7031V11.1719ZM48.9844 18.0469H45.5469V12.8906H48.9844V18.0469ZM43.8281 21.4844H50.7031V23.2031H43.8281V21.4844Z" fill="black"/>
</g>
<defs>
<clipPath id="clip0_1242_3168">
<rect width="55" height="55" fill="white"/>
</clipPath>
</defs>
</svg>
