<svg width="87" height="87" viewBox="0 0 87 87" fill="none" xmlns="http://www.w3.org/2000/svg">
<path d="M12.1282 59.1771C11.2504 58.8763 10.2929 59.3455 9.99251 60.2247L8.92719 63.3405C5.28125 57.2232 3.36744 50.2807 3.36744 43.0676C3.36744 21.1773 21.1764 3.36828 43.0667 3.36828C51.4214 3.36828 59.4141 5.9336 66.1805 10.7872C66.9356 11.329 67.9863 11.1556 68.5278 10.4008C69.0693 9.64582 68.8962 8.59496 68.1412 8.0533C51.4571 -3.91401 27.8986 -2.66584 12.616 12.6169C-1.56536 26.7984 -3.54562 47.9624 5.44038 64.0306L3.54996 63.3844C2.67119 63.0834 1.71454 63.5527 1.4141 64.4318C1.1135 65.3111 1.58249 66.2673 2.46159 66.5677L8.85452 68.7533C9.82261 69.0841 10.8842 68.498 11.0731 67.464L13.176 61.3129C13.4765 60.4338 13.0075 59.4775 12.1282 59.1771Z" fill="#0B1941"/>
<path d="M80.6931 22.1043L82.5836 22.7506C83.4628 23.0512 84.419 22.5822 84.7194 21.7029C85.02 20.8238 84.551 19.8675 83.6719 19.5671C76.8812 17.2697 77.2553 17.3199 76.8322 17.2953C75.9923 17.2352 75.2175 17.8119 75.0604 18.6706L72.9575 24.822C72.6569 25.7011 73.1259 26.6574 74.0052 26.9579C74.8822 27.2576 75.8397 26.7913 76.1408 25.9102L77.206 22.7945C80.8521 28.9119 82.7657 35.8542 82.7657 43.0674C82.7657 64.9577 64.9567 82.7667 43.0665 82.7667C34.7118 82.7667 26.7191 80.2014 19.9527 75.3478C19.1979 74.8063 18.1469 74.9795 17.6054 75.7343C17.0639 76.4891 17.237 77.5402 17.992 78.0816C25.3335 83.3475 34.0041 86.131 43.0666 86.131C54.5693 86.131 65.3837 81.6516 73.5173 73.5179C87.6991 59.3365 89.679 38.1726 80.6931 22.1043Z" fill="#0B1941"/>
<path d="M17.3719 60.3594L25.7734 68.7609C26.4304 69.4176 27.4953 69.4176 28.1525 68.7609L32.7613 64.152C33.6325 64.5786 34.5286 64.9506 35.4428 65.265V71.7807C35.4428 72.7096 36.1961 73.4629 37.125 73.4629H49.0067C49.9356 73.4629 50.6889 72.7096 50.6889 71.7807V65.265C51.6031 64.9506 52.4994 64.5786 53.3704 64.152L57.9793 68.7609C58.6363 69.4176 59.7011 69.4176 60.3582 68.7609L68.7596 60.3594C69.4165 59.7025 69.4165 58.6374 68.7596 57.9803L64.1508 53.3717C64.5774 52.5005 64.9493 51.6044 65.2637 50.6901H71.7795C72.7084 50.6901 73.4616 49.9368 73.4616 49.0079V37.1264C73.4616 36.1973 72.7084 35.4442 71.7795 35.4442H65.2637C64.9493 34.5298 64.5774 33.6337 64.151 32.7627L68.7596 28.1539C69.4165 27.497 69.4165 26.4318 68.7596 25.7749L60.3582 17.3735C59.7015 16.7169 58.6362 16.7166 57.9793 17.3735L53.3704 21.9823C52.4992 21.5557 51.6031 21.1838 50.6889 20.8694V14.3533C50.6889 13.4243 49.9356 12.6711 49.0067 12.6711H37.125C36.1961 12.6711 35.4428 13.4243 35.4428 14.3533V20.869C34.5284 21.1834 33.6323 21.5554 32.7613 21.982L28.1525 17.3732C27.4958 16.7166 26.4303 16.7161 25.7734 17.3732L17.3719 25.7746C16.715 26.4315 16.715 27.4965 17.3719 28.1535L21.9808 32.7623C21.5543 33.6334 21.1824 34.5296 20.868 35.4439H14.3521C13.4232 35.4439 12.6699 36.197 12.6699 37.1261V49.0076C12.6699 49.9365 13.4232 50.6898 14.3521 50.6898H20.8678C21.1822 51.604 21.5542 52.5003 21.9808 53.3713L17.3719 57.98C16.715 58.6372 16.715 59.7024 17.3719 60.3594ZM25.2339 54.8764C25.7663 54.344 25.88 53.5226 25.5123 52.8655C24.7476 51.4986 24.145 50.0465 23.7216 48.55C23.5167 47.8257 22.8558 47.3258 22.103 47.3258H16.0343V38.8086H22.1032C22.856 38.8086 23.5169 38.3085 23.7218 37.5843C24.1452 36.0877 24.7478 34.6358 25.5125 33.2689C25.8802 32.6118 25.7665 31.7904 25.2341 31.258L20.9407 26.9644L26.9632 20.9419L31.2566 25.2355C31.7892 25.7682 32.6109 25.8814 33.2675 25.514C34.6344 24.7491 36.0864 24.1468 37.5829 23.7234C38.3073 23.5185 38.8072 22.8574 38.8072 22.1048V16.0355H47.3245V22.1044C47.3245 22.8572 47.8247 23.5183 48.5488 23.723C50.0455 24.1463 51.4973 24.7488 52.8643 25.5137C53.5217 25.8814 54.3427 25.7677 54.8751 25.2351L59.1686 20.9415L65.1911 26.9641L60.8977 31.2576C60.3653 31.7901 60.2515 32.6113 60.6193 33.2685C61.384 34.6354 61.9865 36.0873 62.4099 37.584C62.6148 38.3083 63.2758 38.8082 64.0285 38.8082H70.0975V47.3254H64.0285C63.2758 47.3254 62.6148 47.8255 62.4099 48.5497C61.9865 50.0463 61.384 51.4982 60.6193 52.8652C60.2515 53.5222 60.3653 54.3436 60.8977 54.876L65.1911 59.1694L59.1686 65.192L54.8751 60.8985C54.3427 60.3661 53.5212 60.2524 52.8643 60.6201C51.4973 61.3849 50.0453 61.9874 48.5488 62.4108C47.8245 62.6157 47.3245 63.2766 47.3245 64.0294V70.0984H38.8072V64.0294C38.8072 63.2766 38.3071 62.6157 37.5829 62.4108C36.0863 61.9874 34.6344 61.3849 33.2675 60.6201C32.6106 60.2526 31.7892 60.3661 31.2566 60.8985L26.9632 65.192L20.9407 59.1694L25.2339 54.8764Z" fill="#0B1941"/>
<path d="M43.0673 59.2762C52.0043 59.2762 59.2752 52.0053 59.2752 43.0683C59.2752 34.1312 52.0043 26.8604 43.0673 26.8604C34.1302 26.8604 26.8594 34.1312 26.8594 43.0683C26.8595 52.0055 34.1302 59.2762 43.0673 59.2762ZM43.0673 30.2249C50.1492 30.2249 55.9108 35.9865 55.9108 43.0684C55.9108 50.1504 50.1492 55.912 43.0673 55.912C35.9853 55.912 30.2237 50.1504 30.2237 43.0684C30.2239 35.9865 35.9855 30.2249 43.0673 30.2249Z" fill="#0B1941"/>
<path d="M43.0669 44.7502H48.9786C49.9075 44.7502 50.6608 43.997 50.6608 43.0681C50.6608 42.1392 49.9075 41.3859 48.9786 41.3859H44.7491V35.4673C44.7491 34.5383 43.9958 33.7852 43.0669 33.7852C42.1379 33.7852 41.3848 34.5383 41.3848 35.4673V43.0681C41.3848 43.997 42.138 44.7502 43.0669 44.7502Z" fill="#0B1941"/>
</svg>
