<svg width="87" height="87" viewBox="0 0 87 87" fill="none" xmlns="http://www.w3.org/2000/svg">
<path d="M55.9873 5.74219H51.6803C50.8878 5.74219 50.2451 6.38488 50.2451 7.17805C50.2451 7.97057 50.8878 8.61325 51.6803 8.61325H55.9873C56.7798 8.61325 57.4225 7.97057 57.4225 7.17805C57.4225 6.38488 56.7798 5.74219 55.9873 5.74219Z" fill="#0B1941"/>
<path d="M51.6803 20.0975H55.9873C56.7798 20.0975 57.4225 19.4548 57.4225 18.6623C57.4225 17.8691 56.7798 17.2264 55.9873 17.2264H51.6803C50.8878 17.2264 50.2451 17.8691 50.2451 18.6623C50.2451 19.4548 50.8878 20.0975 51.6803 20.0975Z" fill="#0B1941"/>
<path d="M63.1641 26.3752V4.30693C63.1641 1.92806 61.2361 0 58.8579 0H27.2755C24.8973 0 22.9692 1.92806 22.9692 4.30693V26.3752C0.0170858 27.6573 0 30.2011 0 31.5824V43.0667C0 44.5025 0.826689 45.895 9.66858 47.0864L34.1387 65.4727C35.2414 66.2816 35.8913 67.5683 35.8887 68.9352V83.2623C35.8887 84.848 37.174 86.1333 38.7597 86.1333C39.2973 86.1327 39.8237 85.9835 40.2817 85.7029L48.2345 80.7244C49.4863 79.9332 50.2453 78.5558 50.2447 77.0752V68.9352C50.244 67.5618 50.8998 66.2705 52.0104 65.4615L76.4648 47.0864C85.3066 45.895 86.1333 44.5025 86.1333 43.0667V31.5824C86.1333 30.2011 86.1162 27.6573 63.1641 26.3752ZM83.2623 42.6362C80.9412 44.0714 66.2291 45.9377 43.0667 45.9377C19.9043 45.9377 5.1921 44.0603 2.87107 42.6362V34.2405C6.33882 35.1947 9.89266 35.8026 13.48 36.0569C21.3901 36.875 31.8926 37.3245 43.0667 37.3245C54.2408 37.3245 64.7433 36.875 72.6533 36.0569C76.2407 35.8026 79.7945 35.1947 83.2623 34.2405V42.6362ZM60.2931 22.9692H25.8403V14.3553H60.2931V22.9692ZM25.8403 25.8403H60.2931V34.0703C55.2534 34.3095 49.4863 34.4535 43.0667 34.4535C36.647 34.4535 30.8799 34.3095 25.8403 34.0703V25.8403ZM82.2043 31.5909C79.4883 32.4393 72.8945 33.3567 63.1641 33.9179V29.2535C74.2482 29.8837 79.8799 30.8641 82.2043 31.5909ZM25.8403 4.30693C25.8403 3.51376 26.483 2.87107 27.2755 2.87107H58.8579C59.6504 2.87107 60.2931 3.51376 60.2931 4.30693V11.4843H25.8403V4.30693ZM22.9692 29.2535V33.9179C13.2388 33.3567 6.64505 32.4433 3.92907 31.5909C6.25339 30.8641 11.8851 29.8837 22.9692 29.2535ZM50.3031 63.1516C48.4618 64.5034 47.3743 66.6509 47.3736 68.9352V77.0752C47.3677 77.5701 47.1134 78.0294 46.6974 78.2982L38.7597 83.2623V68.9352C38.7624 66.6582 37.6807 64.5152 35.8473 63.1641L15.274 47.7094C22.9501 48.4171 32.7094 48.8088 43.0667 48.8088C53.4239 48.8088 63.1832 48.4171 70.8593 47.7094L50.3031 63.1516Z" fill="#0B1941"/>
<path d="M31.582 5.74219H30.1461C29.3536 5.74219 28.7109 6.38488 28.7109 7.17805C28.7109 7.97057 29.3536 8.61325 30.1461 8.61325H31.582C32.3745 8.61325 33.0172 7.97057 33.0172 7.17805C33.0172 6.38488 32.3745 5.74219 31.582 5.74219Z" fill="#0B1941"/>
<path d="M38.7597 5.74219H37.3245C36.5314 5.74219 35.8887 6.38488 35.8887 7.17805C35.8887 7.97057 36.5314 8.61325 37.3245 8.61325H38.7597C39.5529 8.61325 40.1956 7.97057 40.1956 7.17805C40.1956 6.38488 39.5529 5.74219 38.7597 5.74219Z" fill="#0B1941"/>
<path d="M30.1461 20.0975H31.582C32.3745 20.0975 33.0172 19.4548 33.0172 18.6623C33.0172 17.8691 32.3745 17.2264 31.582 17.2264H30.1461C29.3536 17.2264 28.7109 17.8691 28.7109 18.6623C28.7109 19.4548 29.3536 20.0975 30.1461 20.0975Z" fill="#0B1941"/>
<path d="M37.3245 20.0975H38.7597C39.5529 20.0975 40.1956 19.4548 40.1956 18.6623C40.1956 17.8691 39.5529 17.2264 38.7597 17.2264H37.3245C36.5314 17.2264 35.8887 17.8691 35.8887 18.6623C35.8887 19.4548 36.5314 20.0975 37.3245 20.0975Z" fill="#0B1941"/>
<path d="M31.582 28.7107H30.1461C29.3536 28.7107 28.7109 29.3534 28.7109 30.1459C28.7109 30.9391 29.3536 31.5818 30.1461 31.5818H31.582C32.3745 31.5818 33.0172 30.9391 33.0172 30.1459C33.0172 29.3534 32.3745 28.7107 31.582 28.7107Z" fill="#0B1941"/>
<path d="M38.7597 28.7107H37.3245C36.5314 28.7107 35.8887 29.3534 35.8887 30.1459C35.8887 30.9391 36.5314 31.5818 37.3245 31.5818H38.7597C39.5529 31.5818 40.1956 30.9391 40.1956 30.1459C40.1956 29.3534 39.5529 28.7107 38.7597 28.7107Z" fill="#0B1941"/>
<path d="M51.6803 31.5818H55.9873C56.7798 31.5818 57.4225 30.9391 57.4225 30.1459C57.4225 29.3534 56.7798 28.7107 55.9873 28.7107H51.6803C50.8878 28.7107 50.2451 29.3534 50.2451 30.1459C50.2451 30.9391 50.8878 31.5818 51.6803 31.5818Z" fill="#0B1941"/>
<path d="M73.2128 0C72.4203 0 71.7776 0.642688 71.7776 1.43586V16.6323L69.9212 14.7759C69.358 14.2324 68.4623 14.2397 67.909 14.7937C67.355 15.3476 67.3471 16.2427 67.8912 16.8058L72.1982 21.1128C72.4676 21.3828 72.833 21.5346 73.2141 21.5346C73.5959 21.5346 73.9613 21.3828 74.2307 21.1128L78.5377 16.8058C79.0818 16.2427 79.0739 15.3476 78.5199 14.7937C77.9659 14.2397 77.0709 14.2324 76.5077 14.7759L74.6487 16.6323V1.43586C74.6487 0.642688 74.006 0 73.2128 0Z" fill="#0B1941"/>
</svg>
