<svg width="87" height="87" viewBox="0 0 87 87" fill="none" xmlns="http://www.w3.org/2000/svg">
<path d="M36.3379 16.15H49.7962V18.8417H36.3379V16.15Z" fill="#0B1941"/>
<path d="M36.3379 21.5333H49.7962V24.225H36.3379V21.5333Z" fill="#0B1941"/>
<path d="M76.7126 72.675V61.9083C76.7126 61.3108 76.3182 60.7845 75.7436 60.6163L44.4126 51.4781V34.9916H53.8334C54.5776 34.9916 55.1792 34.3887 55.1792 33.6458V12.1125C55.1792 11.7558 55.0379 11.4127 54.7849 11.161L46.7099 3.08598C46.4582 2.83296 46.1164 2.69165 45.7584 2.69165H32.3001C31.5558 2.69165 30.9542 3.29458 30.9542 4.03748V33.6458C30.9542 34.3887 31.5558 34.9916 32.3001 34.9916H41.7209V51.4781L10.3899 60.6163C9.81523 60.7845 9.4209 61.3108 9.4209 61.9083V72.675C9.4209 73.2725 9.81523 73.7988 10.3899 73.967L42.6899 83.3878C42.8137 83.4241 42.9389 83.4417 43.0667 83.4417C43.1946 83.4417 43.3197 83.4241 43.4436 83.3878L75.7436 73.967C76.3182 73.7988 76.7126 73.2725 76.7126 72.675ZM47.1042 7.28633L50.5846 10.7667H47.1042V7.28633ZM33.6459 5.38332H44.4126V12.1125C44.4126 12.8554 45.0142 13.4583 45.7584 13.4583H52.4876V32.3H33.6459V5.38332ZM41.7209 54.2815V61.3511L38.6349 58.2651L36.7319 60.1682L42.1152 65.5515C42.3777 65.8139 42.7222 65.9458 43.0667 65.9458C43.4113 65.9458 43.7558 65.8139 44.0182 65.5515L49.4016 60.1682L47.4986 58.2651L44.4126 61.3511V54.2815L70.5608 61.9083L43.0667 69.9268L15.5727 61.9083L41.7209 54.2815ZM12.1126 63.7023L41.7209 72.3385V80.3018L12.1126 71.6656V63.7023ZM44.4126 80.3018V72.3385L74.0209 63.7023V71.6656L44.4126 80.3018Z" fill="#0B1941"/>
<path d="M36.3379 10.7667H41.7212V13.4583H36.3379V10.7667Z" fill="#0B1941"/>
<path d="M4.03724 34.9916H13.4581C13.4581 38.7021 16.4768 41.7208 20.1872 41.7208H24.2247C26.4507 41.7208 28.2622 43.5323 28.2622 45.7583V47.8928L25.1762 44.8068L23.2732 46.7098L28.6566 52.0932C28.919 52.3556 29.2635 52.4875 29.6081 52.4875C29.9526 52.4875 30.2971 52.3556 30.5596 52.0932L35.9429 46.7098L34.0399 44.8068L30.9539 47.8928V45.7583C30.9539 42.0479 27.9352 39.0291 24.2247 39.0291H20.1872C17.9612 39.0291 16.1497 37.2177 16.1497 34.9916H25.5706C26.3148 34.9916 26.9164 34.3887 26.9164 33.6458V12.1125C26.9164 11.7558 26.7751 11.4127 26.5221 11.161L18.4471 3.08598C18.1954 2.83296 17.8536 2.69165 17.4956 2.69165H4.03724C3.29299 2.69165 2.69141 3.29458 2.69141 4.03748V33.6458C2.69141 34.3887 3.29299 34.9916 4.03724 34.9916ZM18.8414 7.28633L22.3217 10.7667H18.8414V7.28633ZM5.38307 5.38332H16.1497V12.1125C16.1497 12.8554 16.7513 13.4583 17.4956 13.4583H24.2247V32.3H5.38307V5.38332Z" fill="#0B1941"/>
<path d="M8.0752 16.15H21.5335V18.8417H8.0752V16.15Z" fill="#0B1941"/>
<path d="M8.0752 21.5333H21.5335V24.225H8.0752V21.5333Z" fill="#0B1941"/>
<path d="M8.0752 26.9167H21.5335V29.6084H8.0752V26.9167Z" fill="#0B1941"/>
<path d="M8.0752 10.7667H13.4585V13.4583H8.0752V10.7667Z" fill="#0B1941"/>
<path d="M83.4419 33.6458V12.1125C83.4419 11.7558 83.3006 11.4127 83.0476 11.161L74.9726 3.08598C74.7209 2.83296 74.3791 2.69165 74.0211 2.69165H60.5628C59.8185 2.69165 59.2169 3.29458 59.2169 4.03748V33.6458C59.2169 34.3887 59.8185 34.9916 60.5628 34.9916H69.9836C69.9836 37.2177 68.1721 39.0291 65.9461 39.0291H61.9086C58.1981 39.0291 55.1794 42.0479 55.1794 45.7583V47.8928L52.0934 44.8068L50.1904 46.7098L55.5738 52.0932C55.8362 52.3556 56.1807 52.4875 56.5253 52.4875C56.8698 52.4875 57.2143 52.3556 57.4768 52.0932L62.8601 46.7098L60.9571 44.8068L57.8711 47.8928V45.7583C57.8711 43.5323 59.6826 41.7208 61.9086 41.7208H65.9461C69.6566 41.7208 72.6753 38.7021 72.6753 34.9916H82.0961C82.8403 34.9916 83.4419 34.3887 83.4419 33.6458ZM75.3669 7.28633L78.8473 10.7667H75.3669V7.28633ZM61.9086 32.3V5.38332H72.6753V12.1125C72.6753 12.8554 73.2769 13.4583 74.0211 13.4583H80.7503V32.3H61.9086Z" fill="#0B1941"/>
<path d="M64.5996 16.15H78.0579V18.8417H64.5996V16.15Z" fill="#0B1941"/>
<path d="M64.5996 21.5333H78.0579V24.225H64.5996V21.5333Z" fill="#0B1941"/>
<path d="M64.5996 26.9167H78.0579V29.6084H64.5996V26.9167Z" fill="#0B1941"/>
<path d="M64.5996 10.7667H69.9829V13.4583H64.5996V10.7667Z" fill="#0B1941"/>
<path d="M36.3379 26.9167H39.0296V29.6084H36.3379V26.9167Z" fill="#0B1941"/>
<path d="M41.7207 26.9167H44.4124V29.6084H41.7207V26.9167Z" fill="#0B1941"/>
<path d="M47.1045 26.9167H49.7962V29.6084H47.1045V26.9167Z" fill="#0B1941"/>
</svg>
