<svg width="80" height="80" viewBox="0 0 80 80" fill="none" xmlns="http://www.w3.org/2000/svg">
<path d="M40 2.5C38.2694 2.5 36.5777 3.01318 35.1388 3.97464C33.6998 4.9361 32.5783 6.30267 31.9161 7.90152C31.2538 9.50037 31.0805 11.2597 31.4181 12.957C31.7558 14.6544 32.5891 16.2135 33.8128 17.4372C35.0365 18.6609 36.5956 19.4942 38.293 19.8319C39.9903 20.1695 41.7496 19.9962 43.3485 19.3339C44.9473 18.6717 46.3139 17.5502 47.2754 16.1112C48.2368 14.6723 48.75 12.9806 48.75 11.25C48.75 8.92936 47.8281 6.70376 46.1872 5.06282C44.5462 3.42187 42.3207 2.5 40 2.5ZM40 17.5C38.7639 17.5 37.5555 17.1334 36.5277 16.4467C35.4999 15.7599 34.6988 14.7838 34.2258 13.6418C33.7527 12.4997 33.6289 11.2431 33.8701 10.0307C34.1113 8.8183 34.7065 7.70466 35.5806 6.83058C36.4547 5.9565 37.5683 5.36125 38.7807 5.12009C39.9931 4.87893 41.2497 5.00271 42.3918 5.47575C43.5338 5.9488 44.5099 6.74988 45.1967 7.77769C45.8835 8.80549 46.25 10.0139 46.25 11.25C46.25 12.0708 46.0883 12.8835 45.7743 13.6418C45.4602 14.4001 44.9998 15.0891 44.4194 15.6694C43.8391 16.2498 43.1501 16.7102 42.3918 17.0242C41.6335 17.3383 40.8208 17.5 40 17.5Z" fill="#0B1941"/>
<path d="M52.725 49.75C53.8333 49.7195 54.9024 49.3339 55.775 48.65C56.3247 48.216 56.7665 47.6607 57.0658 47.0274C57.3651 46.3942 57.5137 45.7003 57.5 45V37.5H63.75V51.375C62.2325 51.6848 60.884 52.547 59.966 53.7945C59.048 55.042 58.626 56.5859 58.7817 58.1269C58.9373 59.6679 59.6596 61.0962 60.8086 62.1349C61.9575 63.1736 63.4512 63.7487 65 63.7487C66.5489 63.7487 68.0425 63.1736 69.1914 62.1349C70.3404 61.0962 71.0627 59.6679 71.2184 58.1269C71.374 56.5859 70.952 55.042 70.034 53.7945C69.116 52.547 67.7676 51.6848 66.25 51.375V36.25C66.25 35.9185 66.1183 35.6005 65.8839 35.3661C65.6495 35.1317 65.3315 35 65 35H57.5V30.825C57.5017 29.5671 57.2551 28.3213 56.7745 27.1589C56.2939 25.9964 55.5887 24.9402 54.6992 24.0508C53.8098 23.1613 52.7536 22.4561 51.5911 21.9755C50.4287 21.4949 49.1829 21.2484 47.925 21.25H32.075C30.8171 21.2484 29.5713 21.4949 28.4089 21.9755C27.2464 22.4561 26.1902 23.1613 25.3008 24.0508C24.4113 24.9402 23.7061 25.9964 23.2255 27.1589C22.7449 28.3213 22.4984 29.5671 22.5 30.825V35H15C14.6685 35 14.3506 35.1317 14.1161 35.3661C13.8817 35.6005 13.75 35.9185 13.75 36.25V51.375C12.2325 51.6848 10.884 52.547 9.96602 53.7945C9.04805 55.042 8.62599 56.5859 8.78166 58.1269C8.93734 59.6679 9.65965 61.0962 10.8086 62.1349C11.9575 63.1736 13.4512 63.7487 15 63.7487C16.5489 63.7487 18.0425 63.1736 19.1915 62.1349C20.3404 61.0962 21.0627 59.6679 21.2184 58.1269C21.374 56.5859 20.952 55.042 20.034 53.7945C19.116 52.547 17.7676 51.6848 16.25 51.375V37.5H22.5V45C22.5 46.3261 23.0268 47.5979 23.9645 48.5355C24.9022 49.4732 26.1739 50 27.5 50H27.6875C28.5094 49.9597 29.3066 49.7055 30 49.2625V71.9375C30.0033 72.6723 30.1515 73.3993 30.4361 74.0768C30.7207 74.7542 31.1361 75.3689 31.6586 75.8856C32.1811 76.4023 32.8004 76.8109 33.481 77.0879C34.1616 77.3649 34.8902 77.505 35.625 77.5C36.4658 77.4972 37.2952 77.306 38.0523 76.9405C38.8095 76.5749 39.475 76.0442 40 75.3875C40.525 76.0442 41.1906 76.5749 41.9477 76.9405C42.7048 77.306 43.5343 77.4972 44.375 77.5C45.1098 77.505 45.8384 77.3649 46.519 77.0879C47.1996 76.8109 47.8189 76.4023 48.3414 75.8856C48.8639 75.3689 49.2793 74.7542 49.5639 74.0768C49.8486 73.3993 49.9967 72.6723 50 71.9375V49.075C50.8228 49.5617 51.7702 49.7963 52.725 49.75ZM68.75 57.5C68.75 58.2417 68.5301 58.9667 68.118 59.5834C67.706 60.2001 67.1203 60.6807 66.4351 60.9646C65.7498 61.2484 64.9958 61.3227 64.2684 61.178C63.541 61.0333 62.8728 60.6761 62.3484 60.1517C61.8239 59.6272 61.4668 58.959 61.3221 58.2316C61.1774 57.5042 61.2516 56.7502 61.5355 56.0649C61.8193 55.3797 62.2999 54.7941 62.9166 54.382C63.5333 53.9699 64.2583 53.75 65 53.75C65.9946 53.75 66.9484 54.1451 67.6517 54.8484C68.3549 55.5516 68.75 56.5054 68.75 57.5ZM18.75 57.5C18.75 58.2417 18.5301 58.9667 18.118 59.5834C17.706 60.2001 17.1203 60.6807 16.4351 60.9646C15.7499 61.2484 14.9959 61.3227 14.2684 61.178C13.541 61.0333 12.8728 60.6761 12.3484 60.1517C11.8239 59.6272 11.4668 58.959 11.3221 58.2316C11.1774 57.5042 11.2516 56.7502 11.5355 56.0649C11.8193 55.3797 12.2999 54.7941 12.9166 54.382C13.5333 53.9699 14.2583 53.75 15 53.75C15.9946 53.75 16.9484 54.1451 17.6517 54.8484C18.3549 55.5516 18.75 56.5054 18.75 57.5ZM37.6375 37.8625L39.325 28.675C39.5484 28.713 39.7738 28.7381 40 28.75C40.2263 28.7381 40.4517 28.713 40.675 28.675L42.35 37.85C42.4136 38.185 42.3833 38.5311 42.2625 38.85L40 43.425L37.7625 38.9C37.626 38.5723 37.5827 38.2133 37.6375 37.8625ZM41.1 25.9875C40.7194 26.174 40.2977 26.2606 39.8744 26.2394C39.4512 26.2181 39.0403 26.0895 38.6803 25.8658C38.3204 25.6421 38.0232 25.3306 37.8167 24.9604C37.6103 24.5903 37.5013 24.1738 37.5 23.75H42.5C42.4986 24.2164 42.3668 24.6732 42.1194 25.0686C41.8719 25.464 41.5189 25.7823 41.1 25.9875ZM47.5 71.9375C47.5016 72.342 47.4204 72.7426 47.2613 73.1145C47.1022 73.4864 46.8687 73.8218 46.575 74.1C46.2872 74.3896 45.9442 74.6186 45.5663 74.7732C45.1884 74.9277 44.7833 75.0049 44.375 75C43.555 75.0067 42.7657 74.6882 42.18 74.1142C41.5943 73.5402 41.2599 72.7575 41.25 71.9375V51.25C41.25 50.9185 41.1183 50.6005 40.8839 50.3661C40.6495 50.1317 40.3315 50 40 50C39.6685 50 39.3505 50.1317 39.1161 50.3661C38.8817 50.6005 38.75 50.9185 38.75 51.25V71.9375C38.7401 72.7575 38.4057 73.5402 37.82 74.1142C37.2343 74.6882 36.445 75.0067 35.625 75C35.2139 75.0042 34.8061 74.9256 34.4259 74.7688C34.0458 74.6121 33.7012 74.3804 33.4125 74.0875C33.1221 73.8101 32.8913 73.4764 32.7344 73.1067C32.5775 72.737 32.4977 72.3391 32.5 71.9375V36.25C32.5 35.9185 32.3683 35.6005 32.1339 35.3661C31.8995 35.1317 31.5815 35 31.25 35C30.9185 35 30.6005 35.1317 30.3661 35.3661C30.1317 35.6005 30 35.9185 30 36.25V44.7625C30.0226 45.4363 29.7887 46.0935 29.3456 46.6016C28.9025 47.1097 28.2831 47.4308 27.6125 47.5C26.9543 47.5273 26.3119 47.2937 25.825 46.85C25.566 46.6163 25.3588 46.3309 25.2168 46.0123C25.0747 45.6937 25.0008 45.3489 25 45V30.825C24.9973 29.4402 25.4025 28.0853 26.165 26.9294C26.9274 25.7734 28.0135 24.8676 29.2875 24.325C30.1653 23.9374 31.1155 23.7414 32.075 23.75H35C35.0014 24.5168 35.1791 25.2729 35.5194 25.96C35.8597 26.6471 36.3535 27.2467 36.9625 27.7125L35.175 37.5C35.0369 38.3461 35.1454 39.214 35.4875 40L38.875 46.85C38.9774 47.0613 39.1372 47.2396 39.3362 47.3643C39.5351 47.489 39.7652 47.5551 40 47.5551C40.2348 47.5551 40.4649 47.489 40.6639 47.3643C40.8628 47.2396 41.0227 47.0613 41.125 46.85L44.5375 39.95C44.8705 39.1612 44.966 38.2923 44.8125 37.45L43.0375 27.75C43.6516 27.2804 44.1484 26.6747 44.4889 25.9807C44.8294 25.2866 45.0044 24.5231 45 23.75H47.925C48.8845 23.7414 49.8348 23.9374 50.7125 24.325C51.9865 24.8676 53.0726 25.7734 53.8351 26.9294C54.5975 28.0853 55.0027 29.4402 55 30.825V45C55.0133 45.3274 54.9488 45.6532 54.8119 45.9508C54.6751 46.2485 54.4696 46.5095 54.2125 46.7125C53.746 47.0498 53.188 47.2373 52.6125 47.25C52.2749 47.2652 51.9376 47.2118 51.6212 47.093C51.3048 46.9742 51.0158 46.7924 50.7716 46.5588C50.5274 46.3251 50.3331 46.0443 50.2005 45.7334C50.0679 45.4226 49.9997 45.088 50 44.75V36.25C50 35.9185 49.8683 35.6005 49.6339 35.3661C49.3995 35.1317 49.0815 35 48.75 35C48.4185 35 48.1005 35.1317 47.8661 35.3661C47.6317 35.6005 47.5 35.9185 47.5 36.25V71.9375Z" fill="#0B1941"/>
<path d="M20.0003 65H10.0003C8.98234 65.0323 7.98078 65.2649 7.05283 65.6845C6.12487 66.1042 5.28872 66.7026 4.59218 67.4456C3.89564 68.1885 3.35237 69.0615 2.99342 70.0146C2.63447 70.9677 2.46689 71.9821 2.50025 73V76.25C2.4993 76.4145 2.53083 76.5776 2.59304 76.7299C2.65525 76.8822 2.7469 77.0207 2.86275 77.1375C3.1023 77.3659 3.4193 77.4954 3.75025 77.5H26.2503C26.5818 77.5 26.8997 77.3683 27.1341 77.1339C27.3686 76.8995 27.5003 76.5815 27.5003 76.25V73C27.5336 71.9821 27.366 70.9677 27.0071 70.0146C26.6481 69.0615 26.1049 68.1885 25.4083 67.4456C24.7118 66.7026 23.8756 66.1042 22.9477 65.6845C22.0197 65.2649 21.0182 65.0323 20.0003 65ZM25.0003 75H5.00025V73C4.96663 72.3104 5.06937 71.6209 5.30258 70.971C5.53579 70.3212 5.8949 69.7237 6.35934 69.2128C6.82378 68.7019 7.38443 68.2877 8.0092 67.9938C8.63396 67.6998 9.31056 67.5321 10.0003 67.5H20.0003C20.69 67.5321 21.3666 67.6998 21.9913 67.9938C22.6161 68.2877 23.1767 68.7019 23.6412 69.2128C24.1056 69.7237 24.4647 70.3212 24.6979 70.971C24.9311 71.6209 25.0339 72.3104 25.0003 73V75Z" fill="#0B1941"/>
<path d="M70.0003 65H60.0003C58.9823 65.0323 57.9808 65.2649 57.0528 65.6845C56.1249 66.1042 55.2887 66.7026 54.5922 67.4456C53.8956 68.1885 53.3524 69.0615 52.9934 70.0146C52.6345 70.9677 52.4669 71.9821 52.5003 73V76.25C52.4993 76.4145 52.5308 76.5776 52.593 76.7299C52.6552 76.8822 52.7469 77.0207 52.8628 77.1375C53.1023 77.3659 53.4193 77.4954 53.7503 77.5H76.2503C76.5818 77.5 76.8997 77.3683 77.1341 77.1339C77.3686 76.8995 77.5003 76.5815 77.5003 76.25V73C77.5336 71.9821 77.366 70.9677 77.0071 70.0146C76.6481 69.0615 76.1049 68.1885 75.4083 67.4456C74.7118 66.7026 73.8756 66.1042 72.9477 65.6845C72.0197 65.2649 71.0182 65.0323 70.0003 65ZM75.0003 75H55.0003V73C54.9666 72.3104 55.0694 71.6209 55.3026 70.971C55.5358 70.3212 55.8949 69.7237 56.3593 69.2128C56.8238 68.7019 57.3844 68.2877 58.0092 67.9938C58.634 67.6998 59.3106 67.5321 60.0003 67.5H70.0003C70.69 67.5321 71.3666 67.6998 71.9913 67.9938C72.6161 68.2877 73.1767 68.7019 73.6412 69.2128C74.1056 69.7237 74.4647 70.3212 74.6979 70.971C74.9311 71.6209 75.0339 72.3104 75.0003 73V75Z" fill="#0B1941"/>
</svg>
