<svg width="62" height="76" viewBox="0 0 62 76" fill="none" xmlns="http://www.w3.org/2000/svg">
<path d="M44.0836 75.8826H5.17007C3.79908 75.8809 2.48474 75.3222 1.51547 74.3291C0.546202 73.336 0.00117825 71.9896 0 70.5854V14.6315C0.00141394 13.2275 0.546541 11.8813 1.51578 10.8884C2.48503 9.89552 3.79923 9.33696 5.17007 9.33527H11.2324C11.6103 9.33527 11.9726 9.48901 12.2398 9.76268C12.507 10.0363 12.6571 10.4075 12.6571 10.7945C12.6571 11.1816 12.507 11.5527 12.2398 11.8264C11.9726 12.1001 11.6103 12.2538 11.2324 12.2538H5.17363C4.55824 12.2545 3.96827 12.5053 3.53321 12.9511C3.09815 13.3969 2.85354 14.0012 2.85306 14.6315V70.5854C2.85354 71.2158 3.09812 71.8203 3.53315 72.2662C3.96819 72.7121 4.55816 72.9631 5.17363 72.9641H44.0872C44.7027 72.9631 45.2928 72.7121 45.7279 72.2663C46.1631 71.8204 46.4079 71.2159 46.4086 70.5854V66.9245C46.4086 66.5375 46.5587 66.1663 46.8259 65.8926C47.0931 65.619 47.4555 65.4652 47.8334 65.4652C48.2112 65.4652 48.5736 65.619 48.8408 65.8926C49.108 66.1663 49.2581 66.5375 49.2581 66.9245V70.5854C49.2567 71.9904 48.711 73.3373 47.7408 74.3305C46.7706 75.3236 45.4553 75.8819 44.0836 75.8826Z" fill="#0B1941"/>
<path d="M47.829 43.4521C47.4511 43.4521 47.0887 43.2984 46.8215 43.0247C46.5543 42.751 46.4042 42.3799 46.4042 41.9928V14.6315C46.4035 14.0011 46.1587 13.3968 45.7235 12.951C45.2883 12.5053 44.6982 12.2545 44.0828 12.2538H38.0205C37.6426 12.2538 37.2802 12.1001 37.013 11.8264C36.7458 11.5527 36.5957 11.1816 36.5957 10.7945C36.5957 10.4075 36.7458 10.0363 37.013 9.76268C37.2802 9.48901 37.6426 9.33527 38.0205 9.33527H44.0828C45.4537 9.33696 46.768 9.89549 47.7374 10.8884C48.7068 11.8812 49.2521 13.2274 49.2537 14.6315V41.9928C49.2537 42.3799 49.1036 42.751 48.8364 43.0247C48.5692 43.2984 48.2068 43.4521 47.829 43.4521Z" fill="#0B1941"/>
<path d="M36.3709 16.8591H12.8874C12.2854 16.859 11.6923 16.7098 11.1587 16.4243C10.6252 16.1387 10.167 15.7252 9.82314 15.219C9.47931 14.7129 9.26008 14.1291 9.18413 13.5174C9.10818 12.9057 9.17777 12.2843 9.38696 11.7061L11.0103 7.22339C11.2769 6.49294 11.7544 5.86298 12.3793 5.41737C13.0041 4.97176 13.7467 4.73163 14.5081 4.72895H16.5063C16.7406 4.72871 16.9652 4.63334 17.1309 4.46375C17.2967 4.29415 17.39 4.06417 17.3905 3.8242C17.3922 2.81016 17.7863 1.83817 18.4865 1.1213C19.1868 0.404441 20.136 0.00120578 21.126 0H28.1322C29.122 0.00168814 30.0707 0.405136 30.7706 1.12195C31.4704 1.83876 31.8643 2.81048 31.866 3.8242C31.8662 4.06408 31.9594 4.29407 32.125 4.46369C32.2906 4.63331 32.5151 4.72871 32.7493 4.72895H34.7484C35.5102 4.73121 36.2533 4.97112 36.8787 5.41675C37.504 5.86238 37.982 6.49257 38.2489 7.22339L39.8713 11.7061C40.0807 12.2843 40.1505 12.9058 40.0746 13.5175C39.9988 14.1293 39.7795 14.7132 39.4357 15.2194C39.0918 15.7256 38.6335 16.1391 38.0998 16.4247C37.5661 16.7102 36.973 16.8593 36.3709 16.8591ZM14.5081 7.64749C14.3278 7.64835 14.152 7.70522 14.004 7.81058C13.856 7.91594 13.7427 8.06484 13.679 8.23759L12.0593 12.7203C12.0095 12.8571 11.9929 13.0043 12.0107 13.1492C12.0286 13.294 12.0804 13.4323 12.1618 13.5522C12.2432 13.6721 12.3517 13.7701 12.478 13.8377C12.6044 13.9053 12.7448 13.9406 12.8874 13.9406H36.3709C36.5134 13.9406 36.6539 13.9053 36.7802 13.8376C36.9066 13.77 37.0151 13.6721 37.0966 13.5522C37.178 13.4324 37.2299 13.2941 37.2479 13.1492C37.2659 13.0044 37.2494 12.8572 37.1999 12.7203L35.5766 8.23759C35.513 8.06499 35.3998 7.91619 35.252 7.81084C35.1041 7.70549 34.9285 7.64853 34.7484 7.64749H32.7493C31.7599 7.64557 30.8115 7.24214 30.1119 6.52555C29.4122 5.80896 29.0184 4.83761 29.0165 3.8242C29.0162 3.58408 28.923 3.35386 28.7572 3.18407C28.5915 3.01428 28.3667 2.91878 28.1322 2.91854H21.126C20.8917 2.91878 20.667 3.01431 20.5014 3.18413C20.3357 3.35395 20.2427 3.58417 20.2427 3.8242C20.2408 4.83777 19.8468 5.80925 19.147 6.52587C18.4471 7.24248 17.4985 7.64581 16.5089 7.64749H14.5081Z" fill="#0B1941"/>
<path d="M32.3167 12.2568H16.9365C16.5586 12.2568 16.1962 12.1031 15.929 11.8294C15.6618 11.5557 15.5117 11.1846 15.5117 10.7975C15.5117 10.4105 15.6618 10.0393 15.929 9.76567C16.1962 9.492 16.5586 9.33826 16.9365 9.33826H32.3167C32.6945 9.33826 33.0569 9.492 33.3241 9.76567C33.5913 10.0393 33.7414 10.4105 33.7414 10.7975C33.7414 11.1846 33.5913 11.5557 33.3241 11.8294C33.0569 12.1031 32.6945 12.2568 32.3167 12.2568Z" fill="#0B1941"/>
<path d="M26.5428 7.52084H22.7138C22.3359 7.52084 21.9736 7.36709 21.7064 7.09343C21.4392 6.81976 21.2891 6.44859 21.2891 6.06157C21.2891 5.67454 21.4392 5.30337 21.7064 5.0297C21.9736 4.75604 22.3359 4.60229 22.7138 4.60229H26.5428C26.9207 4.60229 27.2831 4.75604 27.5503 5.0297C27.8175 5.30337 27.9676 5.67454 27.9676 6.06157C27.9676 6.44859 27.8175 6.81976 27.5503 7.09343C27.2831 7.36709 26.9207 7.52084 26.5428 7.52084Z" fill="#0B1941"/>
<path d="M41.4182 27.2744H19.5126C19.1348 27.2744 18.7724 27.1206 18.5052 26.847C18.238 26.5733 18.0879 26.2021 18.0879 25.8151C18.0879 25.4281 18.238 25.0569 18.5052 24.7832C18.7724 24.5096 19.1348 24.3558 19.5126 24.3558H41.4182C41.7961 24.3558 42.1585 24.5096 42.4257 24.7832C42.6928 25.0569 42.843 25.4281 42.843 25.8151C42.843 26.2021 42.6928 26.5733 42.4257 26.847C42.1585 27.1206 41.7961 27.2744 41.4182 27.2744Z" fill="#0B1941"/>
<path d="M41.4182 36.8225H19.5126C19.1348 36.8225 18.7724 36.6687 18.5052 36.3951C18.238 36.1214 18.0879 35.7502 18.0879 35.3632C18.0879 34.9762 18.238 34.605 18.5052 34.3313C18.7724 34.0577 19.1348 33.9039 19.5126 33.9039H41.4182C41.7961 33.9039 42.1585 34.0577 42.4257 34.3313C42.6928 34.605 42.843 34.9762 42.843 35.3632C42.843 35.7502 42.6928 36.1214 42.4257 36.3951C42.1585 36.6687 41.7961 36.8225 41.4182 36.8225Z" fill="#0B1941"/>
<path d="M40.0041 46.3706H19.5126C19.1348 46.3706 18.7724 46.2169 18.5052 45.9432C18.238 45.6696 18.0879 45.2984 18.0879 44.9114C18.0879 44.5243 18.238 44.1532 18.5052 43.8795C18.7724 43.6058 19.1348 43.4521 19.5126 43.4521H40.0041C40.382 43.4521 40.7444 43.6058 41.0116 43.8795C41.2788 44.1532 41.4289 44.5243 41.4289 44.9114C41.4289 45.2984 41.2788 45.6696 41.0116 45.9432C40.7444 46.2169 40.382 46.3706 40.0041 46.3706Z" fill="#0B1941"/>
<path d="M35.6595 55.9188H19.5126C19.1348 55.9188 18.7724 55.765 18.5052 55.4914C18.238 55.2177 18.0879 54.8465 18.0879 54.4595C18.0879 54.0725 18.238 53.7013 18.5052 53.4277C18.7724 53.154 19.1348 53.0002 19.5126 53.0002H35.6595C36.0374 53.0002 36.3998 53.154 36.667 53.4277C36.9342 53.7013 37.0843 54.0725 37.0843 54.4595C37.0843 54.8465 36.9342 55.2177 36.667 55.4914C36.3998 55.765 36.0374 55.9188 35.6595 55.9188Z" fill="#0B1941"/>
<path d="M40.005 65.467H19.5126C19.1348 65.467 18.7724 65.3133 18.5052 65.0396C18.238 64.7659 18.0879 64.3948 18.0879 64.0077C18.0879 63.6207 18.238 63.2495 18.5052 62.9759C18.7724 62.7022 19.1348 62.5485 19.5126 62.5485H40.005C40.3829 62.5485 40.7453 62.7022 41.0125 62.9759C41.2797 63.2495 41.4298 63.6207 41.4298 64.0077C41.4298 64.3948 41.2797 64.7659 41.0125 65.0396C40.7453 65.3133 40.3829 65.467 40.005 65.467Z" fill="#0B1941"/>
<path d="M10.0189 29.4436C9.64114 29.4434 9.27888 29.2895 9.01182 29.0158L6.83106 26.7822C6.5636 26.5085 6.41325 26.1372 6.41309 25.75C6.41292 25.3627 6.56295 24.9913 6.83017 24.7174C7.0974 24.4434 7.45992 24.2894 7.838 24.2893C8.21608 24.2891 8.57874 24.4427 8.8462 24.7164L10.0189 25.9185L13.246 22.6187C13.5132 22.345 13.8757 22.1913 14.2536 22.1913C14.6315 22.1913 14.9939 22.345 15.2611 22.6187C15.5284 22.8924 15.6785 23.2637 15.6785 23.6507C15.6785 24.0378 15.5284 24.409 15.2611 24.6827L11.027 29.0195C10.7591 29.2921 10.3965 29.4446 10.0189 29.4436Z" fill="#0B1941"/>
<path d="M10.0203 38.9911C9.64259 38.9911 9.28035 38.8376 9.01315 38.5642L6.83239 36.3307C6.56516 36.057 6.41504 35.6857 6.41504 35.2987C6.41504 34.9116 6.56516 34.5404 6.83239 34.2667C7.09961 33.993 7.46204 33.8392 7.83995 33.8392C8.21786 33.8392 8.5803 33.993 8.84752 34.2667L10.0203 35.4688L13.2473 32.1635C13.5158 31.8964 13.876 31.7482 14.2503 31.7509C14.6245 31.7536 14.9827 31.907 15.2474 32.178C15.5121 32.449 15.6621 32.8158 15.6649 33.1991C15.6677 33.5825 15.5232 33.9515 15.2625 34.2266L11.0283 38.5642C10.8959 38.6997 10.7387 38.8071 10.5657 38.8804C10.3928 38.9536 10.2074 38.9912 10.0203 38.9911Z" fill="#0B1941"/>
<path d="M10.0203 48.5391C9.64247 48.5389 9.2802 48.3851 9.01315 48.1114L6.83239 45.8759C6.70007 45.7404 6.59511 45.5795 6.5235 45.4025C6.4519 45.2254 6.41504 45.0356 6.41504 44.844C6.41504 44.6523 6.4519 44.4625 6.5235 44.2855C6.59511 44.1084 6.70007 43.9475 6.83239 43.812C6.9647 43.6765 7.12178 43.569 7.29466 43.4956C7.46754 43.4223 7.65283 43.3845 7.83995 43.3845C8.02708 43.3845 8.21237 43.4223 8.38524 43.4956C8.55812 43.569 8.7152 43.6765 8.84752 43.812L10.0203 45.0131L13.2473 41.7079C13.5154 41.4342 13.8786 41.2808 14.2571 41.2814C14.6356 41.282 14.9984 41.4365 15.2656 41.7111C15.5328 41.9856 15.6826 42.3577 15.682 42.7453C15.6814 43.133 15.5305 43.5045 15.2625 43.7782L11.0283 48.1159C10.7603 48.3882 10.3977 48.5404 10.0203 48.5391Z" fill="#0B1941"/>
<path d="M10.021 58.0874C9.64321 58.0872 9.28095 57.9333 9.01389 57.6596L6.83313 55.426C6.57244 55.151 6.42789 54.7819 6.4307 54.3986C6.43352 54.0153 6.58349 53.6485 6.84819 53.3775C7.11289 53.1065 7.47107 52.953 7.84532 52.9503C8.21957 52.9476 8.57984 53.0958 8.84826 53.363L10.021 54.5641L13.2481 51.257C13.5153 50.9834 13.8777 50.8296 14.2556 50.8296C14.6336 50.8296 14.996 50.9834 15.2632 51.257C15.5304 51.5307 15.6806 51.902 15.6806 52.289C15.6806 52.6761 15.5304 53.0473 15.2632 53.321L11.029 57.6596C10.8967 57.7952 10.7395 57.9028 10.5666 57.9762C10.3936 58.0496 10.2082 58.0874 10.021 58.0874Z" fill="#0B1941"/>
<path d="M10.0203 67.636C9.64247 67.6358 9.2802 67.4819 9.01315 67.2082L6.83239 64.9746C6.56516 64.7009 6.41504 64.3297 6.41504 63.9426C6.41504 63.5556 6.56516 63.1844 6.83239 62.9107C7.09961 62.637 7.46204 62.4832 7.83995 62.4832C8.21786 62.4832 8.5803 62.637 8.84752 62.9107L10.0203 64.1173L13.2473 60.812C13.3796 60.6765 13.5367 60.569 13.7096 60.4957C13.8825 60.4223 14.0678 60.3846 14.2549 60.3846C14.442 60.3846 14.6273 60.4223 14.8002 60.4957C14.9731 60.569 15.1301 60.6765 15.2625 60.812C15.3948 60.9476 15.4997 61.1084 15.5713 61.2855C15.643 61.4626 15.6798 61.6524 15.6798 61.844C15.6798 62.0357 15.643 62.2255 15.5713 62.4025C15.4997 62.5796 15.3948 62.7405 15.2625 62.876L11.0283 67.2128C10.7603 67.485 10.3977 67.6372 10.0203 67.636Z" fill="#0B1941"/>
<path d="M47.831 68.3842C40.3342 68.3842 34.2354 62.1376 34.2354 54.4591C34.2354 46.7806 40.3324 40.5349 47.831 40.5349C55.3297 40.5349 61.4258 46.7815 61.4258 54.4591C61.4258 62.1367 55.327 68.3842 47.831 68.3842ZM47.831 43.4535C45.7056 43.4533 43.6278 44.0987 41.8604 45.308C40.0931 46.5174 38.7156 48.2363 37.9021 50.2476C37.0887 52.2588 36.8758 54.4719 37.2904 56.6071C37.705 58.7422 38.7285 60.7035 40.2314 62.2428C41.7344 63.7822 43.6492 64.8305 45.7339 65.2551C47.8185 65.6798 49.9793 65.4617 51.9429 64.6286C53.9066 63.7954 55.5849 62.3845 56.7656 60.5744C57.9464 58.7642 58.5765 56.6361 58.5763 54.4591C58.573 51.5413 57.4399 48.7439 55.4255 46.6807C53.411 44.6174 50.6799 43.4568 47.831 43.4535Z" fill="#0B1941"/>
<path d="M46.3232 59.3878C45.9454 59.3876 45.5831 59.2338 45.316 58.9601L41.5511 55.1039C41.2839 54.8302 41.1338 54.459 41.1338 54.0719C41.1338 53.6849 41.2839 53.3137 41.5511 53.04C41.8184 52.7663 42.1808 52.6125 42.5587 52.6125C42.9366 52.6125 43.299 52.7663 43.5663 53.04L46.3267 55.8673L52.0934 49.9609C52.3606 49.6872 52.7231 49.5334 53.101 49.5334C53.4789 49.5334 53.8413 49.6872 54.1085 49.9609C54.3758 50.2346 54.5259 50.6058 54.5259 50.9929C54.5259 51.38 54.3758 51.7512 54.1085 52.0249L47.3347 58.9628C47.2018 59.0984 47.0439 59.2057 46.8703 59.2786C46.6967 59.3516 46.5108 59.3887 46.3232 59.3878Z" fill="#0B1941"/>
</svg>
