<svg width="80" height="71" viewBox="0 0 80 71" fill="none" xmlns="http://www.w3.org/2000/svg">
<path d="M62.2969 19.4733H75.7497C76.8765 19.4721 77.9568 19.0239 78.7535 18.2272C79.5503 17.4304 79.9985 16.3501 79.9997 15.2233V4.55957C79.9985 3.43278 79.5503 2.35249 78.7535 1.55573C77.9568 0.758962 76.8765 0.3108 75.7497 0.30957H62.2969C61.1701 0.3108 60.0898 0.758962 59.293 1.55573C58.4963 2.35249 58.0481 3.43278 58.0469 4.55957V8.47334H48.833C47.7062 8.47457 46.6259 8.92273 45.8292 9.71949C45.0324 10.5163 44.5842 11.5965 44.583 12.7233V35.6114H32.6299V24.8605C32.6286 23.8918 32.4292 22.9335 32.0439 22.0447C31.6586 21.1558 31.0956 20.3552 30.3894 19.6919L23.0688 12.8313C21.7575 11.599 20.0249 10.9141 18.2253 10.9166H4.94194C3.75376 10.9763 2.63739 11.5035 1.8364 12.3831C1.03541 13.2628 0.614807 14.4235 0.666345 15.6121V53.8842C0.6148 55.0728 1.0354 56.2335 1.83639 57.1132C2.63738 57.9928 3.75375 58.52 4.94194 58.5797H28.3543C29.5425 58.52 30.6588 57.9928 31.4598 57.1132C32.2608 56.2335 32.6814 55.0728 32.6299 53.8842V38.4448C33.8252 38.4504 43.7104 38.4406 44.583 38.4448V59.7003C44.5842 60.8271 45.0324 61.9074 45.8291 62.7041C46.6259 63.5009 47.7062 63.9491 48.833 63.9503H58.0469V66.1071C58.0481 67.2339 58.4963 68.3142 59.293 69.1109C60.0898 69.9077 61.1701 70.3559 62.2969 70.3571H75.7497C76.8765 70.3559 77.9568 69.9077 78.7535 69.1109C79.5503 68.3142 79.9985 67.2339 79.9997 66.1071V55.4434C79.9985 54.3166 79.5503 53.2363 78.7535 52.4395C77.9568 51.6428 76.8765 51.1946 75.7497 51.1934H62.2969C61.1701 51.1946 60.0898 51.6428 59.293 52.4395C58.4963 53.2363 58.0481 54.3166 58.0469 55.4434V61.117H48.833C48.4574 61.1166 48.0973 60.9672 47.8317 60.7016C47.5661 60.436 47.4167 60.0759 47.4163 59.7003V38.4448H58.0469V40.6652C58.0481 41.792 58.4963 42.8723 59.293 43.6691C60.0898 44.4658 61.1701 44.914 62.2969 44.9152H75.7497C76.8765 44.914 77.9568 44.4658 78.7535 43.6691C79.5503 42.8723 79.9985 41.792 79.9997 40.6652V30.0015C79.9985 28.8747 79.5503 27.7944 78.7535 26.9976C77.9568 26.2009 76.8765 25.7527 75.7497 25.7515H62.2969C61.1701 25.7527 60.0898 26.2009 59.293 26.9976C58.4963 27.7944 58.0481 28.8747 58.0469 30.0015V35.6115H47.4163V12.7233C47.4167 12.3477 47.5661 11.9876 47.8317 11.722C48.0973 11.4564 48.4574 11.307 48.833 11.3067H58.0469V15.2233C58.0481 16.3501 58.4963 17.4304 59.293 18.2271C60.0898 19.0239 61.1701 19.4721 62.2969 19.4733ZM28.4525 21.7588C28.9543 22.2392 29.3304 22.8354 29.5479 23.4951H21.0586C20.683 23.4947 20.3229 23.3453 20.0573 23.0797C19.7917 22.8141 19.6423 22.454 19.6419 22.0784V14.004C20.1949 14.1958 20.702 14.5003 21.1312 14.8982L28.4525 21.7588ZM28.3543 55.7464H4.94194C4.50705 55.6835 4.11359 55.4541 3.84452 55.1067C3.57545 54.7593 3.45182 54.321 3.49968 53.8842V15.6121C3.45183 15.1753 3.57547 14.737 3.84454 14.3896C4.1136 14.0422 4.50706 13.8128 4.94194 13.7499H16.8086V22.0784C16.8098 23.2052 17.258 24.2855 18.0548 25.0822C18.8515 25.879 19.9318 26.3271 21.0586 26.3284H29.7966V53.8842C29.8444 54.321 29.7208 54.7593 29.4517 55.1067C29.1826 55.4541 28.7892 55.6835 28.3543 55.7464ZM60.8802 55.4434C60.8806 55.0678 61.03 54.7077 61.2956 54.4421C61.5612 54.1765 61.9213 54.0271 62.2969 54.0267H75.7497C76.1253 54.0271 76.4854 54.1765 76.751 54.4421C77.0166 54.7077 77.166 55.0678 77.1664 55.4434V66.1072C77.166 66.4828 77.0166 66.8429 76.751 67.1085C76.4854 67.3741 76.1253 67.5234 75.7497 67.5238H62.2969C61.9213 67.5234 61.5612 67.3741 61.2956 67.1085C61.03 66.8429 60.8806 66.4828 60.8802 66.1072V55.4434ZM60.8802 30.0015C60.8806 29.6259 61.03 29.2658 61.2956 29.0002C61.5612 28.7346 61.9213 28.5852 62.2969 28.5848H75.7497C76.1253 28.5852 76.4854 28.7346 76.751 29.0002C77.0166 29.2658 77.166 29.6259 77.1664 30.0015V40.6652C77.166 41.0408 77.0166 41.4009 76.751 41.6665C76.4854 41.9321 76.1253 42.0815 75.7497 42.0819H62.2969C61.9213 42.0815 61.5612 41.9321 61.2956 41.6665C61.03 41.4009 60.8806 41.0408 60.8802 40.6652V30.0015ZM60.8802 4.55957C60.8806 4.18396 61.03 3.82384 61.2956 3.55825C61.5612 3.29265 61.9213 3.14328 62.2969 3.1429H75.7497C76.1253 3.14328 76.4854 3.29265 76.751 3.55825C77.0166 3.82384 77.166 4.18396 77.1664 4.55957V15.2233C77.166 15.5989 77.0166 15.959 76.751 16.2246C76.4854 16.4902 76.1253 16.6396 75.7497 16.64H62.2969C61.9213 16.6396 61.5612 16.4902 61.2956 16.2246C61.03 15.959 60.8806 15.5989 60.8802 15.2233V4.55957Z" fill="#0B1941"/>
<path d="M64.3581 8.89534H73.6881C74.0591 8.8881 74.4124 8.73566 74.6722 8.47076C74.9319 8.20587 75.0774 7.84965 75.0774 7.47864C75.0774 7.10762 74.9319 6.75142 74.6721 6.48654C74.4123 6.22165 74.059 6.06923 73.6881 6.06201H64.3581C63.9871 6.06924 63.6338 6.22168 63.374 6.48657C63.1143 6.75146 62.9688 7.10767 62.9688 7.47868C62.9688 7.84969 63.1143 8.2059 63.374 8.47079C63.6338 8.73568 63.9871 8.88811 64.3581 8.89534Z" fill="#0B1941"/>
<path d="M64.3581 13.7208H73.6881C74.0591 13.7135 74.4124 13.5611 74.6722 13.2962C74.9319 13.0313 75.0774 12.6751 75.0774 12.3041C75.0774 11.9331 74.9319 11.5769 74.6721 11.312C74.4123 11.0471 74.059 10.8947 73.6881 10.8875H64.3581C63.9871 10.8947 63.6338 11.0471 63.374 11.312C63.1143 11.5769 62.9688 11.9331 62.9688 12.3041C62.9688 12.6751 63.1143 13.0313 63.374 13.2962C63.6338 13.5611 63.9871 13.7136 64.3581 13.7208Z" fill="#0B1941"/>
<path d="M64.3581 34.3372H73.6881C74.0591 34.33 74.4124 34.1776 74.6722 33.9127C74.9319 33.6478 75.0774 33.2915 75.0774 32.9205C75.0774 32.5495 74.9319 32.1933 74.6721 31.9284C74.4123 31.6635 74.059 31.5111 73.6881 31.5039H64.3581C63.9871 31.5111 63.6338 31.6636 63.374 31.9285C63.1143 32.1933 62.9688 32.5496 62.9688 32.9206C62.9688 33.2916 63.1143 33.6478 63.374 33.9127C63.6338 34.1776 63.9871 34.33 64.3581 34.3372Z" fill="#0B1941"/>
<path d="M64.3581 39.1627H73.6881C74.0591 39.1554 74.4124 39.003 74.6722 38.7381C74.9319 38.4732 75.0774 38.117 75.0774 37.746C75.0774 37.375 74.9319 37.0188 74.6721 36.7539C74.4123 36.489 74.059 36.3366 73.6881 36.3293H64.3581C63.9871 36.3366 63.6338 36.489 63.374 36.7539C63.1143 37.0188 62.9688 37.375 62.9688 37.746C62.9688 38.117 63.1143 38.4732 63.374 38.7381C63.6338 39.003 63.9871 39.1554 64.3581 39.1627Z" fill="#0B1941"/>
<path d="M64.3581 59.7791H73.6881C74.0591 59.7719 74.4124 59.6194 74.6722 59.3546C74.9319 59.0897 75.0774 58.7334 75.0774 58.3624C75.0774 57.9914 74.9319 57.6352 74.6721 57.3703C74.4123 57.1054 74.059 56.953 73.6881 56.9458H64.3581C63.9871 56.953 63.6338 57.1055 63.374 57.3704C63.1143 57.6352 62.9688 57.9915 62.9688 58.3625C62.9688 58.7335 63.1143 59.0897 63.374 59.3546C63.6338 59.6195 63.9871 59.7719 64.3581 59.7791Z" fill="#0B1941"/>
<path d="M64.3581 64.6046H73.6881C74.0591 64.5973 74.4124 64.4449 74.6722 64.18C74.9319 63.9151 75.0774 63.5589 75.0774 63.1879C75.0774 62.8169 74.9319 62.4606 74.6721 62.1958C74.4123 61.9309 74.059 61.7785 73.6881 61.7712H64.3581C63.9871 61.7785 63.6338 61.9309 63.374 62.1958C63.1143 62.4607 62.9688 62.8169 62.9688 63.1879C62.9688 63.5589 63.1143 63.9151 63.374 64.18C63.6338 64.4449 63.9871 64.5973 64.3581 64.6046Z" fill="#0B1941"/>
<path d="M25.5151 32.6509H7.78674C7.4158 32.6581 7.06249 32.8106 6.80273 33.0755C6.54296 33.3404 6.39745 33.6966 6.39746 34.0676C6.39747 34.4386 6.543 34.7948 6.80278 35.0597C7.06257 35.3246 7.41588 35.477 7.78682 35.4842H25.5151C25.886 35.477 26.2393 35.3245 26.4991 35.0597C26.7589 34.7948 26.9044 34.4386 26.9044 34.0675C26.9044 33.6965 26.7589 33.3403 26.4991 33.0754C26.2393 32.8105 25.886 32.6581 25.5151 32.6509Z" fill="#0B1941"/>
<path d="M25.5151 40.2017H7.78674C7.4158 40.2089 7.06249 40.3613 6.80273 40.6262C6.54296 40.8911 6.39745 41.2474 6.39746 41.6184C6.39747 41.9894 6.543 42.3456 6.80278 42.6105C7.06257 42.8754 7.41588 43.0278 7.78682 43.035H25.5151C25.886 43.0278 26.2393 42.8753 26.4991 42.6104C26.7589 42.3455 26.9044 41.9893 26.9044 41.6183C26.9044 41.2473 26.7589 40.8911 26.4991 40.6262C26.2393 40.3613 25.886 40.2089 25.5151 40.2017Z" fill="#0B1941"/>
<path d="M25.5151 47.5935H7.78674C7.4158 47.6007 7.06249 47.7532 6.80273 48.0181C6.54296 48.283 6.39745 48.6392 6.39746 49.0102C6.39747 49.3812 6.543 49.7374 6.80278 50.0023C7.06257 50.2672 7.41588 50.4196 7.78682 50.4268H25.5151C25.886 50.4196 26.2393 50.2672 26.4991 50.0023C26.7589 49.7374 26.9044 49.3812 26.9044 49.0102C26.9044 48.6392 26.7589 48.2829 26.4991 48.0181C26.2393 47.7532 25.886 47.6007 25.5151 47.5935Z" fill="#0B1941"/>
</svg>
