<svg width="87" height="87" viewBox="0 0 87 87" fill="none" xmlns="http://www.w3.org/2000/svg">
<g clip-path="url(#clip0_1462_4555)">
<path d="M54.5784 86.1328C54.5173 86.1328 54.4563 86.1287 54.3952 86.1206L53.6212 86.0175H31.5554C31.1837 86.0175 30.8275 85.8689 30.5664 85.6037C30.3052 85.3384 30.1607 84.9796 30.1662 84.6072L30.2815 76.9154C30.2815 70.3565 36.2428 67.3101 39.8522 66.5205C41.2266 66.0416 44.9635 65.9778 46.4206 66.5253C50.0314 67.321 55.969 70.3715 55.969 76.9358V84.7435C55.969 85.1438 55.7967 85.5257 55.4941 85.7882C55.2398 86.012 54.9135 86.1328 54.5784 86.1328ZM32.9657 83.239H53.1905V76.9358C53.1905 70.8456 46.0258 69.28 45.7206 69.2163C45.5897 69.1884 45.4648 69.1437 45.3482 69.0813C44.7288 68.8493 41.5196 68.8655 40.8094 69.1254C40.747 69.1477 40.5957 69.202 40.5306 69.2142C40.2246 69.2787 33.06 70.8443 33.06 76.9344L32.9657 83.239Z" fill="#0B1941"/>
<path d="M43.0669 63.9636C39.127 63.9636 35.9219 60.7476 35.9219 56.7922C35.9219 52.8374 39.127 49.6194 43.0669 49.6194C47.0067 49.6194 50.2119 52.8374 50.2119 56.7922C50.2119 60.7476 47.0067 63.9636 43.0669 63.9636ZM43.0669 52.3979C40.6608 52.3979 38.7004 54.3698 38.7004 56.7922C38.7004 59.2139 40.6594 61.1851 43.0669 61.1851C45.4743 61.1851 47.4334 59.2139 47.4334 56.7922C47.4334 54.3698 45.4729 52.3979 43.0669 52.3979Z" fill="#0B1941"/>
<path d="M83.3547 86.1334C83.2936 86.1334 83.2326 86.1293 83.1702 86.1212L82.3989 86.0181H60.3337C59.9613 86.0181 59.6059 85.8695 59.3447 85.6043C59.0835 85.339 58.9391 84.9802 58.9445 84.6078L59.0598 76.916C59.0598 70.3571 65.0211 67.3107 68.6299 66.5211C70.0042 66.0408 73.7412 65.9771 75.1969 66.5272C78.8064 67.3215 84.7439 70.3707 84.7439 76.9364V84.7441C84.7439 85.1443 84.5716 85.5263 84.2691 85.7901C84.0161 86.0126 83.6898 86.1334 83.3547 86.1334ZM61.742 83.2396H81.9654V76.9364C81.9654 70.8462 74.8014 69.2806 74.4955 69.2168C74.3653 69.189 74.2384 69.1443 74.1217 69.0805C73.5051 68.8512 70.2959 68.8675 69.5857 69.1246C69.5232 69.1483 69.372 69.2026 69.3069 69.2148C69.0009 69.2792 61.8369 70.8435 61.8369 76.935L61.742 83.2396Z" fill="#0B1941"/>
<path d="M71.8435 63.9636C67.9037 63.9636 64.6992 60.7476 64.6992 56.7922C64.6992 52.8374 67.9037 49.6194 71.8435 49.6194C75.784 49.6194 78.9899 52.8374 78.9899 56.7922C78.9899 60.7476 75.784 63.9636 71.8435 63.9636ZM71.8435 52.3979C69.4374 52.3979 67.4777 54.3698 67.4777 56.7922C67.4777 59.2139 69.4361 61.1851 71.8435 61.1851C74.2517 61.1851 76.2114 59.2139 76.2114 56.7922C76.21 54.3698 74.2517 52.3979 71.8435 52.3979Z" fill="#0B1941"/>
<path d="M25.7997 86.1334C25.7386 86.1334 25.6769 86.1293 25.6145 86.1212L24.8439 86.0181H2.77807C2.40566 86.0181 2.0502 85.8695 1.78904 85.6043C1.52788 85.339 1.38339 84.9802 1.38882 84.6078L1.50414 76.916C1.50414 70.3571 7.46542 67.3107 11.0749 66.5211C12.4472 66.0408 16.1855 65.9771 17.6419 66.5272C21.2528 67.3215 27.1903 70.3721 27.1903 76.9364V84.7441C27.1903 85.1443 27.018 85.5263 26.7148 85.7901C26.4604 86.0126 26.1341 86.1334 25.7997 86.1334ZM4.18834 83.2396H24.4118V76.9364C24.4118 70.8449 17.2471 69.2806 16.9419 69.2168C16.811 69.189 16.6848 69.1443 16.5681 69.0805C15.9508 68.8512 12.7416 68.8675 12.032 69.1246C11.9696 69.1483 11.8184 69.2026 11.7526 69.2148C11.4473 69.2792 4.28263 70.8435 4.28263 76.935L4.18834 83.2396Z" fill="#0B1941"/>
<path d="M14.2899 63.9636C10.3501 63.9636 7.14355 60.7476 7.14355 56.7922C7.14355 52.8374 10.3501 49.6194 14.2899 49.6194C18.2297 49.6194 21.4349 52.8374 21.4349 56.7922C21.4349 60.7476 18.2297 63.9636 14.2899 63.9636ZM14.2899 52.3979C11.8825 52.3979 9.92205 54.3698 9.92205 56.7922C9.92205 59.2139 11.8811 61.1851 14.2899 61.1851C16.696 61.1851 18.6564 59.2139 18.6564 56.7922C18.6564 54.3698 16.6973 52.3979 14.2899 52.3979Z" fill="#0B1941"/>
<path d="M52.2734 17.1016H55.0519V31.2566H52.2734V17.1016Z" fill="#0B1941"/>
<path d="M57.8789 22.1853H60.6574V31.2568H57.8789V22.1853Z" fill="#0B1941"/>
<path d="M63.2803 17.9951H66.0588V31.2567H63.2803V17.9951Z" fill="#0B1941"/>
<path d="M70.7314 7.27197H73.5099V31.2562H70.7314V7.27197Z" fill="#0B1941"/>
<path d="M79.2988 37.4805H38.9312C38.1633 37.4805 37.542 36.8598 37.542 36.0913C37.542 35.3227 38.1633 34.702 38.9312 34.702H77.9095V2.77849H31.2463V27.981C31.2463 28.7489 30.6249 29.3702 29.857 29.3702C29.0885 29.3702 28.4678 28.7489 28.4678 27.981V1.38925C28.4678 0.620684 29.0885 0 29.857 0H79.2988C80.0673 0 80.688 0.620684 80.688 1.38925V36.0913C80.688 36.8578 80.0673 37.4805 79.2988 37.4805Z" fill="#0B1941"/>
<path d="M17.6574 17.9118C13.3607 17.9118 9.86523 14.4027 9.86523 10.0877C9.86523 5.77551 13.3621 2.2644 17.6574 2.2644C21.9533 2.2644 25.4502 5.77347 25.4502 10.0877C25.4502 14.4013 21.9547 17.9118 17.6574 17.9118ZM17.6574 5.0429C14.8931 5.0429 12.6437 7.30585 12.6437 10.0877C12.6437 12.8703 14.8931 15.1333 17.6574 15.1333C20.4223 15.1333 22.6717 12.8703 22.6717 10.0877C22.6717 7.30585 20.4223 5.0429 17.6574 5.0429Z" fill="#0B1941"/>
<path d="M25.3587 47.3894H10.4053C9.63675 47.3894 9.01607 46.7687 9.01607 46.0001V43.8844C8.37571 44.0872 7.6838 44.1279 6.99867 43.9861C5.16782 43.6164 3.83691 41.9423 3.83691 40.0097V33.2805C3.83691 29.4417 4.98128 25.7407 7.14859 22.5789C7.90426 21.476 8.90617 20.6396 10.0424 20.162C11.2112 19.6702 12.4444 19.4226 13.7143 19.4226H22.0165C22.2221 19.4226 22.4276 19.4307 22.6318 19.4477C24.9381 19.6336 27.1041 20.9964 28.4248 23.0931L31.5466 28.0566L37.7161 31.4191C39.838 32.5764 40.8433 35.0198 40.1073 37.2284C39.6819 38.501 38.7818 39.5097 37.5703 40.068C36.3838 40.6181 35.002 40.6507 33.7865 40.1589C33.7363 40.1392 33.6874 40.1155 33.642 40.089L26.7785 36.3351L26.7493 46.0062C26.7452 46.77 26.1246 47.3894 25.3587 47.3894ZM11.7946 44.6109H23.9742L24.0047 33.9887L24.0115 31.8214C24.0142 31.0548 24.6349 30.4369 25.4008 30.4369H25.4048C26.1714 30.4396 26.79 31.0603 26.79 31.8261V31.8302L26.7859 33.1706L34.8922 37.6049C35.3907 37.7888 35.9239 37.765 36.4049 37.5412C36.9136 37.3078 37.2928 36.8825 37.4719 36.3466C37.7771 35.4308 37.3104 34.3597 36.3865 33.8557L29.8989 30.3202C29.6906 30.2062 29.5156 30.0421 29.3881 29.8392L26.0717 24.5699C25.2156 23.2098 23.8447 22.3307 22.4066 22.2153C22.2763 22.2038 22.1454 22.1984 22.0152 22.1984H13.7129C12.8155 22.1984 11.9445 22.3748 11.1189 22.7207C10.4745 22.99 9.89384 23.4845 9.44071 24.1459C7.59222 26.8457 6.61541 30.0034 6.61541 33.2778V40.0097C6.61541 40.6168 7.01834 41.1561 7.55152 41.2632C8.05485 41.3643 8.40759 41.1561 8.56972 41.0224C8.85326 40.7904 9.01607 40.4458 9.01607 40.0782V30.8364C9.01607 30.0685 9.63675 29.4472 10.4053 29.4472C11.1732 29.4472 11.7946 30.0685 11.7946 30.8364V44.6109Z" fill="#0B1941"/>
<path d="M35.4883 32.4788L44.8684 18.5579L47.1714 20.1099L37.7913 34.0309L35.4883 32.4788Z" fill="#0B1941"/>
</g>
<defs>
<clipPath id="clip0_1462_4555">
<rect width="86.1333" height="86.1333" fill="white"/>
</clipPath>
</defs>
</svg>
