<svg width="87" height="87" viewBox="0 0 87 87" fill="none" xmlns="http://www.w3.org/2000/svg">
<path d="M5.38379 26.6071H16.1505V32.3H5.38379V53.5507H16.1505V59.5262H5.38379V80.75H50.55V78.0583H8.07546V62.2178H37.1724V59.5262H18.8421V53.5507H36.2168V50.859H8.07546V34.9916H48.9619V32.3H18.8421V26.6071H67.2921V33.6458H69.9838V26.6071H80.7505V5.3833H5.38379V26.6071ZM8.07546 8.07497H78.0588V23.9154H8.07546V8.07497Z" fill="#0B1941"/>
<path d="M70.6836 35.0178H78.0588V38.7458H80.7504V32.3262H70.6836V35.0178Z" fill="#0B1941"/>
<path d="M38.0664 20.5108H48.1602V11.4802H38.0664V20.5108ZM40.7581 14.1719H45.4685V17.8191H40.7581V14.1719Z" fill="#0B1941"/>
<path d="M36.1602 47.4541V38.4236H26.0664V47.4541H36.1602ZM28.7581 41.1153H33.4685V44.7625H28.7581V41.1153Z" fill="#0B1941"/>
<path d="M38.0664 20.5108H48.1063V11.4802H38.0664V20.5108ZM40.7581 14.1719H45.4147V17.8191H40.7581V14.1719Z" fill="#0B1941"/>
<path d="M21.1063 47.4541V38.4236H11.0664V47.4541H21.1063ZM13.7581 41.1153H18.4147V44.7625H13.7581V41.1153Z" fill="#0B1941"/>
<path d="M39.123 11.4802H48.5439V14.1719H39.123V11.4802Z" fill="#0B1941"/>
<path d="M50.5498 11.4802H53.6318V14.1719H50.5498V11.4802Z" fill="#0B1941"/>
<path d="M78.0582 78.0579H69.1084V80.7496H80.7499V68.5967H78.0582V78.0579Z" fill="#0B1941"/>
<path d="M21.5332 74.6533V65.6228H11.4395V74.6533H21.5332ZM14.1311 68.3145H18.8415V71.9617H14.1311V68.3145Z" fill="#0B1941"/>
<path d="M34.3856 74.6533V65.6228H24.3457V74.6533H34.3856ZM27.0374 68.3145H31.694V71.9617H27.0374V68.3145Z" fill="#0B1941"/>
<path d="M38.9082 42.6501V53.2418C38.9082 58.0195 40.3752 74.1561 59.3918 80.7506L59.8225 80.8987L60.2666 80.7506C79.2697 74.1561 80.7502 58.0195 80.7502 53.2418V42.6501L59.8225 30.5376L38.9082 42.6501ZM78.0585 53.2418C78.0585 57.535 76.7127 71.9354 59.8225 77.9782C42.9188 71.9354 41.5999 57.535 41.5999 53.2418V44.1978L59.8225 33.6465L78.0585 44.1978V53.2418Z" fill="#0B1941"/>
<path d="M49.8496 54.0621L47.9385 55.9598L57.2247 65.246L71.7059 50.7648L69.7948 48.8538L57.2247 61.4373L49.8496 54.0621Z" fill="#0B1941"/>
</svg>
